<?xml version="1.0" encoding="UTF-8"?>
<svg width="1059mm" height="288.66mm" version="1.1" viewBox="0 0 1059 288.66" xmlns="http://www.w3.org/2000/svg">
<defs>
<clipPath id="a">
<rect y="687" width="1095" height="1100"/>
</clipPath>
</defs>
<g transform="translate(333.63 175.02)">
<g stroke-width=".26458" aria-label="Hinode">
<path d="m9.3627 49.552v-153.94h32.547v63.516h66.072v-63.516h32.472v153.94h-32.472v-63.591h-66.072v63.591z"/>
<path d="m166.69 49.552v-115.46h32.021v115.46zm16.086-130.34q-7.1409 0-12.252-4.7355-5.0362-4.8107-5.0362-11.501 0-6.6147 5.0362-11.35 5.1114-4.8107 12.252-4.8107 7.1408 0 12.177 4.8107 5.1114 4.7355 5.1114 11.35 0 6.6899-5.1114 11.501-5.0362 4.7355-12.177 4.7355z"/>
<path d="m256.29-17.196v66.748h-32.021v-115.46h30.518v20.37h1.353q3.8335-10.072 12.854-15.935 9.02-5.9382 21.874-5.9382 12.027 0 20.972 5.2617t13.906 15.033q4.961 9.6965 4.961 23.151v73.513h-32.021v-67.801q0.0752-10.599-5.412-16.537-5.4872-6.0134-15.109-6.0134-6.4644 0-11.425 2.7812-4.8858 2.7812-7.667 8.118-2.706 5.2617-2.7812 12.703z"/>
<path d="m408.05 51.807q-17.514 0-30.292-7.4415-12.703-7.5167-19.619-20.896-6.9154-13.455-6.9154-31.194 0-17.89 6.9154-31.269 6.9154-13.455 19.619-20.896 12.778-7.5167 30.292-7.5167t30.217 7.5167q12.778 7.4415 19.694 20.896 6.9154 13.38 6.9154 31.269 0 17.739-6.9154 31.194-6.9154 13.38-19.694 20.896-12.703 7.4415-30.217 7.4415zm0.15034-24.805q7.9677 0 13.305-4.51 5.3368-4.5852 8.0429-12.478 2.7812-7.8925 2.7812-17.965 0-10.072-2.7812-17.965-2.706-7.8925-8.0429-12.478t-13.305-4.5852q-8.0429 0-13.53 4.5852-5.412 4.5852-8.1932 12.478-2.706 7.8925-2.706 17.965 0 10.072 2.706 17.965 2.7812 7.8925 8.1932 12.478 5.4872 4.51 13.53 4.51z"/>
<path d="m528.31 51.431q-13.154 0-23.828-6.765-10.599-6.8402-16.837-20.07-6.1637-13.305-6.1637-32.622 0-19.844 6.3892-32.998 6.3892-13.229 16.988-19.769 10.674-6.6147 23.377-6.6147 9.6965 0 16.161 3.3073 6.5395 3.2322 10.523 8.118 4.059 4.8107 6.1637 9.471h0.97717v-57.879h31.946v153.94h-31.57v-18.491h-1.353q-2.255 4.8107-6.3892 9.5462-4.059 4.6603-10.599 7.7422-6.4644 3.0818-15.785 3.0818zm10.148-25.482q7.7422 0 13.079-4.2093 5.412-4.2845 8.2684-11.952 2.9315-7.667 2.9315-17.965 0-10.298-2.8563-17.89-2.8564-7.5919-8.2684-11.726-5.412-4.1342-13.154-4.1342-7.8925 0-13.305 4.2845-5.412 4.2845-8.1932 11.876-2.7812 7.5919-2.7812 17.589 0 10.072 2.7812 17.815 2.8564 7.667 8.1932 12.027 5.412 4.2845 13.305 4.2845z"/>
<path d="m672.86 51.807q-17.815 0-30.668-7.216-12.778-7.2912-19.694-20.596-6.9154-13.38-6.9154-31.645 0-17.815 6.9154-31.269 6.9154-13.455 19.468-20.972 12.628-7.5167 29.616-7.5167 11.425 0 21.272 3.6832 9.922 3.608 17.288 10.899 7.4415 7.2912 11.576 18.341 4.1342 10.974 4.1342 25.707v8.7945h-97.491v-19.844h67.35q0-6.9154-3.0067-12.252-3.0067-5.3368-8.3435-8.3435-5.2617-3.0818-12.252-3.0818-7.2912 0-12.929 3.3825-5.5624 3.3073-8.7194 8.9449-3.157 5.5624-3.2322 12.403v18.867q0 8.569 3.157 14.808 3.2322 6.2389 9.0952 9.6214 5.863 3.3825 13.906 3.3825 5.3368 0 9.7717-1.5033 4.4348-1.5033 7.5918-4.51 3.157-3.0067 4.8107-7.3664l29.616 1.9543q-2.255 10.674-9.2455 18.641-6.9154 7.8925-17.89 12.327-10.899 4.3597-25.181 4.3597z"/>
</g>
<g transform="matrix(.26458 0 0 .26458 -333.63 -176.34)">
<g transform="translate(0,-687)" clip-path="url(#a)" fill-rule="evenodd">
<path d="m0 933.5c0-133.38 108.12-241.5 241.5-241.5h607.99c133.38 0 241.5 108.12 241.5 241.5v608c0 133.37-108.12 241.5-241.5 241.5h-607.99c-133.38 0-241.5-108.13-241.5-241.5z" fill="#D43900"/>
<path d="m954.7 1354.9c0 16.01-13.078 29-29.25 29h-58.5c-16.172 0-29.25-12.99-29.25-29s13.078-29 29.25-29h58.5c16.172 0 29.25 12.99 29.25 29z" fill="#fff"/>
<path d="m252.7 1354.9c0 16.01-13.078 29-29.25 29h-58.5c-16.172 0-29.25-12.99-29.25-29s13.078-29 29.25-29h58.5c16.172 0 29.25 12.99 29.25 29z" fill="#fff"/>
<path d="m256.14 1107.1c-11.261-11.51-11.261-30.12 0-41.63 11.274-11.51 29.481-11.51 40.755 0l34.354 35.1c11.261 11.51 11.261 30.12 0 41.63-11.274 11.52-29.481 11.52-40.755 0z" fill="#fff"/>
<path d="m758.23 1142.2c-11.379-11.51-11.379-30.12 0-41.63l34.732-35.1c11.379-11.51 29.797-11.51 41.19 0 11.392 11.51 11.392 30.12 0 41.63l-34.732 35.1c-11.379 11.52-29.798 11.52-41.19 0z" fill="#fff"/>
<path d="m719.36 1379.5c15.301-105.6-67.029-200.26-173.67-200.26-106.72 0-188.96 94.78-173.67 200.26 2.287 15.94-8.828 30.75-24.831 33.02-16.055 2.19-30.797-8.81-33.098-24.75-20.241-141.79 90.247-266.92 231.6-266.92 141.47 0 251.81 125.28 231.61 266.94-2.314 15.92-17.082 27.04-33.112 24.76-15.99-2.3-27.105-17.11-24.83-33.05z" fill="#fff"/>
<path d="m837.7 1500.4c0 16.28-13.078 29.5-29.25 29.5h-526.5c-16.172 0-29.25-13.22-29.25-29.5 0-16.29 13.078-29.5 29.25-29.5h526.5c16.172 0 29.25 13.21 29.25 29.5z" fill="#fff"/>
<path d="m544.7 1061.9c-16.008 0-29-13.08-29-29.25v-58.502c0-16.176 12.992-29.25 29-29.25 16.009 0 29 13.074 29 29.25v58.502c0 16.17-12.991 29.25-29 29.25z" fill="#fff"/>
</g>
</g>
</g>
</svg>