<?xml version="1.0" encoding="UTF-8" standalone="no"?>
<svg
   width="1059mm"
   height="288.66mm"
   version="1.1"
   viewBox="0 0 1059 288.66"
   id="svg541"
   sodipodi:docname="logo_embedded.svg"
   inkscape:export-filename="/Users/mark/Documents/Developer/GitHub/hugo-theme-hinode/static/logo_embedded.png"
   inkscape:export-xdpi="45.049999"
   inkscape:export-ydpi="45.049999"
   inkscape:version="1.1.2 (b8e25be8, 2022-02-05)"
   xmlns:inkscape="http://www.inkscape.org/namespaces/inkscape"
   xmlns:sodipodi="http://sodipodi.sourceforge.net/DTD/sodipodi-0.dtd"
   xmlns="http://www.w3.org/2000/svg"
   xmlns:svg="http://www.w3.org/2000/svg">
  <sodipodi:namedview
     id="namedview543"
     pagecolor="#ffffff"
     bordercolor="#666666"
     borderopacity="1.0"
     inkscape:pageshadow="2"
     inkscape:pageopacity="0.0"
     inkscape:pagecheckerboard="0"
     inkscape:document-units="mm"
     showgrid="false"
     inkscape:zoom="0.28157263"
     inkscape:cx="2001.2598"
     inkscape:cy="545.15241"
     inkscape:window-width="1296"
     inkscape:window-height="843"
     inkscape:window-x="0"
     inkscape:window-y="38"
     inkscape:window-maximized="0"
     inkscape:current-layer="svg541" />
  <defs
     id="defs503">
    <clipPath
       id="a">
      <rect
         y="687"
         width="1095"
         height="1100"
         id="rect500" />
    </clipPath>
  </defs>
  <g
     transform="translate(333.63 175.02)"
     id="g539">
    <g
       stroke-width=".26458"
       aria-label="Hinode"
       id="g517">
      <path
         d="m9.3625 49.552v-153.94h32.547v63.515h66.071v-63.515h32.472v153.94h-32.472v-63.59h-66.071v63.59z"
         id="path505" />
      <path
         d="m166.68 49.552v-115.45h32.021v115.45zm16.085-130.34q-7.1408 0-12.252-4.7354-5.0361-4.8106-5.0361-11.5 0-6.6146 5.0361-11.35 5.1113-4.8106 12.252-4.8106 7.1408 0 12.177 4.8106 5.1113 4.7354 5.1113 11.35 0 6.6898-5.1113 11.5-5.0361 4.7354-12.177 4.7354z"
         id="path507" />
      <path
         d="m256.17-17.195v66.747h-32.021v-115.45h30.517v20.37h1.353q3.8335-10.072 12.853-15.935 9.0199-5.9381 21.873-5.9381 12.027 0 20.971 5.2616 8.9447 5.2616 13.906 15.033 4.9609 9.6964 4.9609 23.151v73.512h-32.021v-67.8q0.0752-10.598-5.4119-16.536-5.4871-6.0133-15.108-6.0133-6.4643 0-11.425 2.7811-4.8858 2.7811-7.6669 8.1179-2.706 5.2616-2.7811 12.703z"
         id="path509" />
      <path
         d="m407.78 51.807q-17.514 0-30.292-7.4414-12.703-7.5166-19.618-20.896-6.9152-13.455-6.9152-31.194 0-17.889 6.9152-31.269 6.9153-13.455 19.618-20.896 12.778-7.5166 30.292-7.5166t30.217 7.5166q12.778 7.4414 19.693 20.896 6.9153 13.38 6.9153 31.269 0 17.739-6.9153 31.194-6.9153 13.38-19.693 20.896-12.703 7.4414-30.217 7.4414zm0.15033-24.805q7.9676 0 13.304-4.51 5.3368-4.5851 8.0427-12.478 2.7811-7.8924 2.7811-17.965 0-10.072-2.7811-17.965-2.706-7.8924-8.0427-12.478-5.3368-4.5851-13.304-4.5851-8.0427 0-13.53 4.5851-5.4119 4.5851-8.1931 12.478-2.706 7.8924-2.706 17.965 0 10.072 2.706 17.965 2.7811 7.8924 8.1931 12.478 5.4871 4.51 13.53 4.51z"
         id="path511" />
      <path
         d="m527.97 51.431q-13.154 0-23.828-6.7649-10.598-6.8401-16.837-20.069-6.1636-13.304-6.1636-32.622 0-19.844 6.3891-32.998 6.3891-13.229 16.987-19.769 10.674-6.6146 23.377-6.6146 9.6964 0 16.161 3.3073 6.5394 3.2321 10.523 8.1179 4.059 4.8106 6.1636 9.4709h0.97716v-57.878h31.945v153.94h-31.57v-18.491h-1.353q-2.255 4.8106-6.3891 9.5461-4.059 4.6603-10.598 7.7421-6.4643 3.0818-15.785 3.0818zm10.147-25.481q7.7421 0 13.079-4.2093 5.4119-4.2845 8.2682-11.951 2.9315-7.6669 2.9315-17.965 0-10.298-2.8563-17.889t-8.2682-11.726-13.154-4.1341q-7.8924 0-13.304 4.2845-5.4119 4.2845-8.1931 11.876-2.7811 7.5918-2.7811 17.589 0 10.072 2.7811 17.814 2.8563 7.6669 8.1931 12.027 5.4119 4.2845 13.304 4.2845z"
         id="path513" />
      <path
         d="m672.4 51.807q-17.814 0-30.668-7.2159-12.778-7.2911-19.693-20.595-6.9152-13.38-6.9152-31.645 0-17.814 6.9152-31.269 6.9153-13.455 19.468-20.971 12.628-7.5166 29.615-7.5166 11.425 0 21.272 3.6831 9.9219 3.608 17.288 10.899 7.4414 7.2911 11.576 18.34 4.1341 10.974 4.1341 25.707v8.7944h-97.49v-19.844h67.349q0-6.9153-3.0066-12.252-3.0066-5.3368-8.3434-8.3434-5.2616-3.0818-12.252-3.0818-7.2911 0-12.929 3.3825-5.5623 3.3073-8.7192 8.9447-3.157 5.5623-3.2321 12.402v18.867q0 8.5689 3.157 14.808 3.2321 6.2388 9.0951 9.6212 5.8629 3.3825 13.906 3.3825 5.3368 0 9.7716-1.5033 4.4348-1.5033 7.5918-4.51 3.157-3.0066 4.8106-7.3663l29.615 1.9543q-2.255 10.674-9.2454 18.641-6.9152 7.8924-17.889 12.327-10.899 4.3596-25.181 4.3596z"
         id="path515" />
    </g>
    <g
       transform="matrix(.26458 0 0 .26458 -333.63 -176.34)"
       id="g537">
      <g
         transform="translate(0,-687)"
         clip-path="url(#a)"
         fill-rule="evenodd"
         id="g535">
        <path
           d="m0 933.5c0-133.38 108.12-241.5 241.5-241.5h607.99c133.38 0 241.5 108.12 241.5 241.5v608c0 133.37-108.12 241.5-241.5 241.5h-607.99c-133.38 0-241.5-108.13-241.5-241.5z"
           fill="#D43900"
           id="path519" />
        <path
           d="m954.7 1354.9c0 16.01-13.078 29-29.25 29h-58.5c-16.172 0-29.25-12.99-29.25-29s13.078-29 29.25-29h58.5c16.172 0 29.25 12.99 29.25 29z"
           fill="#fff"
           id="path521" />
        <path
           d="m252.7 1354.9c0 16.01-13.078 29-29.25 29h-58.5c-16.172 0-29.25-12.99-29.25-29s13.078-29 29.25-29h58.5c16.172 0 29.25 12.99 29.25 29z"
           fill="#fff"
           id="path523" />
        <path
           d="m256.14 1107.1c-11.261-11.51-11.261-30.12 0-41.63 11.274-11.51 29.481-11.51 40.755 0l34.354 35.1c11.261 11.51 11.261 30.12 0 41.63-11.274 11.52-29.481 11.52-40.755 0z"
           fill="#fff"
           id="path525" />
        <path
           d="m758.23 1142.2c-11.379-11.51-11.379-30.12 0-41.63l34.732-35.1c11.379-11.51 29.797-11.51 41.19 0 11.392 11.51 11.392 30.12 0 41.63l-34.732 35.1c-11.379 11.52-29.798 11.52-41.19 0z"
           fill="#fff"
           id="path527" />
        <path
           d="m719.36 1379.5c15.301-105.6-67.029-200.26-173.67-200.26-106.72 0-188.96 94.78-173.67 200.26 2.287 15.94-8.828 30.75-24.831 33.02-16.055 2.19-30.797-8.81-33.098-24.75-20.241-141.79 90.247-266.92 231.6-266.92 141.47 0 251.81 125.28 231.61 266.94-2.314 15.92-17.082 27.04-33.112 24.76-15.99-2.3-27.105-17.11-24.83-33.05z"
           fill="#fff"
           id="path529" />
        <path
           d="m837.7 1500.4c0 16.28-13.078 29.5-29.25 29.5h-526.5c-16.172 0-29.25-13.22-29.25-29.5 0-16.29 13.078-29.5 29.25-29.5h526.5c16.172 0 29.25 13.21 29.25 29.5z"
           fill="#fff"
           id="path531" />
        <path
           d="m544.7 1061.9c-16.008 0-29-13.08-29-29.25v-58.502c0-16.176 12.992-29.25 29-29.25 16.009 0 29 13.074 29 29.25v58.502c0 16.17-12.991 29.25-29 29.25z"
           fill="#fff"
           id="path533" />
      </g>
    </g>
  </g>
</svg>
