<?xml version="1.0" encoding="UTF-8"?>
<svg width="1059mm" height="288.66mm" version="1.1" viewBox="0 0 1059 288.66" xmlns="http://www.w3.org/2000/svg">
<defs>
<clipPath id="a">
<rect y="687" width="1095" height="1100"/>
</clipPath>
</defs>
<g transform="translate(333.63 175.02)">
<text x="-4.0170074" y="49.55217" fill="#000000" font-family="sans-serif" font-size="211.67px" stroke-width=".26458" style="line-height:1.25" xml:space="preserve"><tspan x="-4.0170074" y="49.55217" font-family="Inter" font-size="211.67px" font-weight="bold" stroke-width=".26458">Hinode</tspan></text>
<g transform="matrix(.26458 0 0 .26458 -333.63 -176.34)">
<g transform="translate(0,-687)" clip-path="url(#a)" fill-rule="evenodd">
<path d="m0 933.5c0-133.38 108.12-241.5 241.5-241.5h607.99c133.38 0 241.5 108.12 241.5 241.5v608c0 133.37-108.12 241.5-241.5 241.5h-607.99c-133.38 0-241.5-108.13-241.5-241.5z" fill="#D43900"/>
<path d="m954.7 1354.9c0 16.01-13.078 29-29.25 29h-58.5c-16.172 0-29.25-12.99-29.25-29s13.078-29 29.25-29h58.5c16.172 0 29.25 12.99 29.25 29z" fill="#fff"/>
<path d="m252.7 1354.9c0 16.01-13.078 29-29.25 29h-58.5c-16.172 0-29.25-12.99-29.25-29s13.078-29 29.25-29h58.5c16.172 0 29.25 12.99 29.25 29z" fill="#fff"/>
<path d="m256.14 1107.1c-11.261-11.51-11.261-30.12 0-41.63 11.274-11.51 29.481-11.51 40.755 0l34.354 35.1c11.261 11.51 11.261 30.12 0 41.63-11.274 11.52-29.481 11.52-40.755 0z" fill="#fff"/>
<path d="m758.23 1142.2c-11.379-11.51-11.379-30.12 0-41.63l34.732-35.1c11.379-11.51 29.797-11.51 41.19 0 11.392 11.51 11.392 30.12 0 41.63l-34.732 35.1c-11.379 11.52-29.798 11.52-41.19 0z" fill="#fff"/>
<path d="m719.36 1379.5c15.301-105.6-67.029-200.26-173.67-200.26-106.72 0-188.96 94.78-173.67 200.26 2.287 15.94-8.828 30.75-24.831 33.02-16.055 2.19-30.797-8.81-33.098-24.75-20.241-141.79 90.247-266.92 231.6-266.92 141.47 0 251.81 125.28 231.61 266.94-2.314 15.92-17.082 27.04-33.112 24.76-15.99-2.3-27.105-17.11-24.83-33.05z" fill="#fff"/>
<path d="m837.7 1500.4c0 16.28-13.078 29.5-29.25 29.5h-526.5c-16.172 0-29.25-13.22-29.25-29.5 0-16.29 13.078-29.5 29.25-29.5h526.5c16.172 0 29.25 13.21 29.25 29.5z" fill="#fff"/>
<path d="m544.7 1061.9c-16.008 0-29-13.08-29-29.25v-58.502c0-16.176 12.992-29.25 29-29.25 16.009 0 29 13.074 29 29.25v58.502c0 16.17-12.991 29.25-29 29.25z" fill="#fff"/>
</g>
</g>
</g>
</svg>