<?xml version="1.0" standalone="no"?>
<!DOCTYPE svg PUBLIC "-//W3C//DTD SVG 1.1//EN" "http://www.w3.org/Graphics/SVG/1.1/DTD/svg11.dtd">
<svg xmlns="http://www.w3.org/2000/svg">
<defs >
<font id="Asap" horiz-adv-x="537" ><font-face
    font-family="Asap"
    units-per-em="1000"
    panose-1="0 0 0 0 0 0 0 0 0 0"
    ascent="934"
    descent="-212"
    alphabetic="0" />
<glyph unicode=" " horiz-adv-x="240" />
<glyph unicode="!" horiz-adv-x="294" d="M141 202Q125 202 118 208T111 224V680Q111 691 120 696T151 702H171Q192 702 201 696T210 678L183 224Q182 214 175 208T152 202H141ZM140 -2Q118 -2 108 4T98 20V86Q98 97 108 102T140 108H154Q177 108 186 103T196
86V20Q196 10 187 4T154 -2H140Z" />
<glyph unicode="&quot;" horiz-adv-x="370" d="M95 472Q85 472 80 475T73 484L51 676Q50 690 60 696T91 702H101Q122 702 132 696T141 676L118 484Q117 478 112 475T96 472H95ZM273 472Q263 472 258 475T251 484L229 676Q228 690 238 696T269 702H279Q300 702
310 696T319 676L296 484Q295 478 290 475T274 472H273Z" />
<glyph unicode="#" horiz-adv-x="534" d="M106 -2Q92 -2 85 2T79 19L110 196H34Q14 196 14 226V243Q14 273 34 273H125L151 420H70Q50 420 50 450V467Q50 497 70 497H164L195 664Q197 675 204 680T239 686H243Q257 686 265 682T271 667L238 497H357L387 664Q389
675 396 680T431 686H436Q450 686 458 682T464 667L433 497H501Q521 497 521 467V450Q521 420 501 420H418L393 273H469Q489 273 489 243V226Q489 196 469 196H377L346 20Q345 10 337 4T303 -2H299Q285 -2 278 2T272 19L303 196H185L153 20Q151 10 144 4T110 -2H106ZM200
273H318L344 420H226L200 273Z" />
<glyph unicode="$" horiz-adv-x="500" d="M258 -71Q232 -71 232 -53V741Q232 759 258 759H263Q289 759 289 741V-53Q289 -71 263 -71H258ZM243 -6Q201 -6 165 2T101 21T58 44Q49 50 43 56T36 70Q36 75 38 83T43 101T51 116T62 122Q72 122 96 109T158 83T243 70Q287
70 316 83T359 122T374 188Q374 218 362 239T328 275T279 301T223 324Q191 336 160 350T104 386T64 439T49 521Q49 561 65 595T110 654T180 692T268 706Q293 706 320 701T371 688T412 669Q421 664 426 658T431 646Q431 640 429 631T424 613T415 598T405 592Q396
592 376 601T329 620T266 630Q227 630 199 617T156 579T140 520Q140 483 159 461T209 426T276 398Q309 385 342 370T404 331T448 274T465 188Q465 143 450 107T406 46T336 7T243 -6Z" />
<glyph unicode="%" horiz-adv-x="698" d="M154 284Q90 284 54 341T18 497Q18 596 54 652T154 709Q219 709 255 653T292 497Q292 398 256 341T154 284ZM154 335Q192 335 214 378T236 497Q236 572 214 615T154 658Q117 658 96 615T74 497Q74 421 95 378T154 335ZM153
-3Q140 -3 140 4Q140 6 141 8T143 14L508 691Q512 699 516 701T529 703H545Q558 703 558 696Q558 694 558 692T555 686L190 9Q186 2 182 0T169 -3H153ZM542 -6Q478 -6 442 51T406 207Q406 306 442 362T542 419Q607 419 643 363T680 207Q680 108 644 51T542 -6ZM542
45Q580 45 602 88T624 207Q624 282 602 325T542 368Q505 368 484 325T462 207Q462 131 483 88T542 45Z" />
<glyph unicode="&amp;" horiz-adv-x="624" d="M273 -6Q236 -6 197 5T125 40T71 105T50 203Q50 253 69 289T117 347T176 377V381Q134 398 104 438T73 538Q73 595 99 632T171 687T275 706Q292 706 311 704T345 695T360 674Q360 672 358 660T351 637T338 625Q332
625 317 629T277 634Q225 634 200 616T166 573T157 529Q157 504 170 476T213 428T291 408H407L419 513Q421 524 428 529T450 535H458Q478 535 485 530T493 513V408H578Q598 408 598 378V366Q598 336 578 336H493V126Q493 94 503 81T540 68Q563 68 573 73T590 78Q595
78 598 72T603 56T605 39T606 28Q606 18 593 10T561 -2T527 -6Q511 -6 494 -3T460 9T432 34Q416 25 393 16T339 0T273 -6ZM281 66Q310 66 338 74T389 92T426 112L417 78Q412 91 410 103T407 126V336H287Q217 336 177 301T137 204Q137 150 160 120T217 78T281 66Z"
/>
<glyph unicode="&apos;" horiz-adv-x="192" d="M95 472Q85 472 80 475T73 484L51 676Q50 690 60 696T91 702H101Q122 702 132 696T141 676L118 484Q117 478 112 475T96 472H95Z" />
<glyph unicode="(" horiz-adv-x="301" d="M261 -212Q256 -212 250 -209T239 -201Q184 -150 143 -75T78 92T55 286Q55 389 78 480T143 646T239 773Q244 778 249 780T260 783Q266 783 273 780T285 770T290 758Q290 753 288 749T281 738Q237 686 204 615T154 461T136
286Q136 195 153 112T203 -42T280 -166Q285 -171 287 -175T289 -184Q289 -189 285 -195T274 -207T261 -212Z" />
<glyph unicode=")" horiz-adv-x="301" d="M40 784Q45 784 51 781T62 773Q118 722 159 647T223 481T246 286Q246 184 223 93T158 -73T62 -201Q57 -206 52 -208T41 -211Q35 -211 28 -207T16 -198T11 -186Q11 -181 13 -177T20 -166Q65 -113 97 -43T147 111T165 286Q165
377 148 460T98 615T21 738Q17 743 15 747T12 756Q12 761 16 767T27 779T40 784Z" />
<glyph unicode="*" horiz-adv-x="373" d="M99 414Q92 414 85 420T77 434Q77 437 78 440T82 447L153 546L55 578Q48 580 45 584T41 593Q41 604 46 610T59 617Q61 617 63 617T68 616L167 584V689Q167 709 187 709Q207 709 207 689V584L306 616Q308 617 310 617T315
617Q321 617 327 611T333 594Q333 588 330 584T319 578L220 546L292 447Q297 441 297 434Q297 427 290 421T275 414Q266 414 260 423L187 524L114 423Q111 419 107 417T99 414Z" />
<glyph unicode="+" horiz-adv-x="560" d="M277 -2Q247 -2 247 18V197H70Q50 197 50 227V234Q50 264 70 264H247V443Q247 463 277 463H284Q314 463 314 443V264H490Q510 264 510 234V227Q510 197 490 197H314V18Q314 -2 284 -2H277Z" />
<glyph unicode="," horiz-adv-x="198" d="M42 -116Q35 -116 25 -112T15 -99Q15 -94 20 -87T32 -68Q38 -56 44 -41T54 3T58 81Q58 96 67 102T96 108H110Q130 108 139 102T148 81Q148 38 137 2T109 -60T74 -101T42 -116Z" />
<glyph unicode="-" horiz-adv-x="320" d="M65 230Q45 230 45 260V270Q45 300 65 300H255Q275 300 275 270V260Q275 230 255 230H65Z" />
<glyph unicode="." horiz-adv-x="198" d="M92 -2Q70 -2 60 4T50 20V86Q50 97 60 102T92 108H106Q129 108 138 103T148 86V20Q148 10 139 4T106 -2H92Z" />
<glyph unicode="/" horiz-adv-x="422" d="M50 -76Q37 -76 31 -73T25 -63Q25 -58 29 -47T39 -24L335 688Q339 697 345 700T368 703H372Q386 703 391 701T397 690Q397 686 393 675T383 651L87 -61Q83 -70 77 -73T54 -76H50Z" />
<glyph unicode="0" horiz-adv-x="535" d="M267 -6Q207 -6 156 31T72 147T40 350Q40 475 72 553T155 669T267 706Q328 706 380 669T464 554T496 350Q496 226 464 147T380 31T267 -6ZM267 66Q303 66 336 93T390 183T411 350Q411 455 390 517T336 606T267 634Q231
634 199 607T146 517T125 350Q125 245 145 183T198 94T267 66Z" />
<glyph unicode="1" horiz-adv-x="535" d="M70 0Q50 0 50 30V42Q50 72 70 72H244V646L278 617L72 582Q63 581 58 587T50 603T47 623Q47 638 51 643T65 651L297 702Q308 702 318 696T328 681V72H486Q506 72 506 42V30Q506 0 486 0H70Z" />
<glyph unicode="2" horiz-adv-x="535" d="M67 0Q61 0 58 7T53 24T51 44Q51 49 52 54T55 61L341 420Q354 436 362 452T376 486T381 520Q381 573 348 603T260 634Q213 634 181 623T131 600T103 589Q98 589 91 597T79 615T74 633Q74 642 90 654T135 678T197 698T267
706Q355 706 410 658T465 526Q465 497 458 469T436 415T402 363L168 72H453Q473 72 473 42V30Q473 0 453 0H67Z" />
<glyph unicode="3" horiz-adv-x="535" d="M233 -6Q190 -6 155 -1T95 14T57 33T43 53Q43 63 48 74T60 93T72 101Q81 101 100 93T151 75T225 66Q275 66 308 81T359 128T376 204Q376 281 334 308T224 336H181Q161 336 161 366V377Q161 393 166 400T181 407H220Q251
407 275 416T317 442T344 483T353 538Q353 557 344 579T309 618T234 634Q189 634 160 626T115 610T90 601Q85 601 78 608T67 626T62 643Q62 652 79 663T122 684T179 700T236 706Q325 706 380 664T436 536Q436 498 422 469T384 419T335 386V382Q365 374 394 351T442
291T461 203Q461 138 434 91T355 19T233 -6Z" />
<glyph unicode="4" horiz-adv-x="535" d="M376 -2Q360 -2 353 4T346 20V167H38Q33 167 28 176T21 197T18 218Q18 222 18 225T20 229L349 688Q354 695 363 698T383 702H399Q415 702 422 697T429 680V239H496Q516 239 516 209V197Q516 181 512 174T496 167H429V20Q429
10 422 4T399 -2H376ZM97 211L82 239H346V481Q346 498 347 520T351 558L316 575L367 588L97 211Z" />
<glyph unicode="5" horiz-adv-x="535" d="M232 -6Q177 -6 135 4T69 28T45 54Q45 61 49 69T58 86T70 99T80 104Q90 104 108 95T157 76T231 66Q308 66 347 103T386 213Q386 280 340 315T206 350H121Q105 350 99 357T93 380L110 670Q111 686 118 693T142 700H408Q428
700 428 670V658Q428 628 408 628H156L193 663L176 387L143 422H230Q271 422 313 412T391 379T450 315T472 213Q472 162 456 122T408 53T333 9T232 -6Z" />
<glyph unicode="6" horiz-adv-x="535" d="M268 -5Q215 -5 175 12T109 61T69 140T55 247Q55 319 74 381T124 493T192 583T266 648T333 688T380 702Q388 702 394 696T404 680T411 663T413 649Q413 647 412 644T405 638Q334 607 284 564T201 470T154 360T139 239Q139
187 151 153T182 101T225 75T273 67Q300 67 329 81T378 124T399 199Q399 248 380 277T331 320T268 333Q224 333 189 320T133 293L148 366Q171 381 206 393T293 405Q333 405 367 391T428 351T469 287T484 203Q484 155 468 117T422 52T353 10T268 -5Z" />
<glyph unicode="7" horiz-adv-x="535" d="M140 -2Q118 -2 108 1T97 14Q97 17 98 20T101 28L405 659L425 628H75Q55 628 55 658V670Q55 700 75 700H464Q473 700 479 692T487 671T490 649Q490 646 490 643T488 638L192 14Q190 9 184 6T170 0T152 -2H140Z" />
<glyph unicode="8" horiz-adv-x="535" d="M267 -6Q207 -6 158 15T80 80T51 192Q51 250 68 286T113 345T175 386L243 358Q214 343 190 323T152 273T137 202Q137 157 154 127T202 81T267 66Q303 66 332 81T380 126T398 202Q398 241 381 265T335 305T273 333T205
358T142 393T97 447T79 533Q79 590 104 628T173 686T269 706Q322 706 365 687T435 629T461 533Q461 491 446 460T406 408T350 375L276 400Q304 415 326 433T363 476T377 533Q377 586 345 610T269 634Q225 634 194 610T163 533Q163 496 180 473T226 436T289 411T358
385T420 349T466 290T484 197Q484 145 467 107T421 44T352 7T267 -6Z" />
<glyph unicode="9" horiz-adv-x="535" d="M267 702Q320 702 360 685T426 636T466 557T480 450Q480 378 461 316T411 204T343 114T269 49T202 9T155 -5Q147 -5 141 1T131 17T124 35T122 48Q122 50 123 53T130 59Q201 91 251 133T334 227T381 337T396 458Q396 511
384 544T353 596T310 622T262 630Q235 630 206 616T157 573T136 498Q136 449 155 420T204 377T267 364Q311 364 346 377T402 404L387 331Q364 316 329 304T242 292Q202 292 168 306T107 346T66 410T51 494Q51 542 67 580T113 645T182 687T267 702Z" />
<glyph unicode=":" horiz-adv-x="198" d="M92 -2Q70 -2 60 4T50 20V86Q50 97 60 102T92 108H106Q129 108 138 103T148 86V20Q148 10 139 4T106 -2H92ZM92 415Q70 415 60 421T50 437V503Q50 514 60 519T92 525H106Q129 525 138 520T148 503V437Q148 427 139 421T106
415H92Z" />
<glyph unicode=";" horiz-adv-x="198" d="M42 -116Q35 -116 25 -112T15 -99Q15 -94 20 -87T32 -68Q38 -56 44 -41T54 3T58 81Q58 96 67 102T96 108H110Q130 108 139 102T148 81Q148 38 137 2T109 -60T74 -101T42 -116ZM92 415Q70 415 60 421T50 437V503Q50 514
60 519T92 525H106Q129 525 138 520T148 503V437Q148 427 139 421T106 415H92Z" />
<glyph unicode="&lt;" horiz-adv-x="560" d="M500 3Q496 3 490 5T479 9L68 183Q54 190 50 196T45 218V235Q45 250 49 256T68 270L479 444Q483 446 489 448T500 450Q509 450 511 442T514 421V407Q514 394 512 387T497 375L103 214V240L498 78Q506 75 509 71T513
61T514 46V32Q514 19 512 11T500 3Z" />
<glyph unicode="=" horiz-adv-x="560" d="M70 376Q50 376 50 406V413Q50 443 70 443H490Q510 443 510 413V406Q510 376 490 376H70ZM70 274Q50 274 50 304V311Q50 341 70 341H490Q510 341 510 311V304Q510 274 490 274H70Z" />
<glyph unicode="&gt;" horiz-adv-x="560" d="M60 3Q51 3 49 11T46 32V46Q46 55 46 60T50 70T62 78L457 240V214L63 375Q51 380 49 387T46 407V421Q46 434 48 442T60 450Q64 450 70 448T81 444L492 270Q506 263 510 257T515 235V218Q515 203 511 197T492 183L81
9Q77 8 71 6T60 3Z" />
<glyph unicode="?" horiz-adv-x="445" d="M163 202Q147 202 140 208T133 225Q133 248 143 274T172 328T219 384Q245 410 266 434T301 483T315 538Q315 585 283 608T188 632Q157 632 130 624T84 608T57 600Q53 600 49 606T42 620T36 637T34 651Q34 661 50 671T91
689T147 701T204 706Q268 706 313 687T384 633T409 548Q409 508 396 477T361 420T314 370Q291 347 269 324T232 276T211 222Q210 212 203 207T178 202H163ZM162 -2Q140 -2 130 4T120 20V86Q120 97 130 102T162 108H176Q199 108 208 103T218 86V20Q218 10 209 4T176
-2H162Z" />
<glyph unicode="@" horiz-adv-x="974" d="M422 -126Q349 -126 290 -100T187 -26T120 89T96 237Q96 336 130 421T226 569T369 669T546 705Q621 705 682 682T788 616T855 514T879 380Q879 289 853 215T778 98T667 54Q638 54 618 65T586 97T575 147V182L590 175Q572
132 547 105T494 66T435 54Q414 54 389 62T342 90T305 145T290 236Q290 315 316 375T389 470T501 505Q542 505 570 489T612 458Q620 480 624 491T647 502H653Q665 502 670 497T675 481Q675 481 673 459T667 401T659 324T651 246T645 182T642 149Q642 128 650 120T667
109T682 107Q710 107 735 129T781 189T813 276T825 380Q825 465 790 528T693 626T546 661Q463 661 391 629T265 538T181 403T150 237Q150 142 184 70T280 -42T422 -82Q471 -82 501 -75T550 -60T576 -53Q583 -53 586 -60T590 -78Q590 -88 572 -96T525 -111T469 -122T422
-126ZM451 115Q470 115 493 127T539 170T580 256Q583 282 586 313T593 371T599 409Q586 420 563 431T507 443Q450 443 419 414T375 338T363 241Q363 169 389 142T451 115Z" />
<glyph unicode="A" horiz-adv-x="613" d="M55 -2Q33 -2 23 2T12 15Q12 18 13 21T15 29L252 686Q255 694 265 698T292 702H321Q338 702 348 698T361 686L598 28Q600 24 600 21T601 15Q601 8 591 3T558 -2H550Q535 -2 524 1T510 14L321 552Q317 566 313 581T306
610H304Q301 596 298 581T290 552L100 14Q97 5 86 2T60 -2H55ZM125 180V254H484V180H125Z" />
<glyph unicode="B" horiz-adv-x="593" d="M128 0Q97 0 97 30V670Q97 700 128 700H306Q381 700 430 678T505 616T530 523Q530 489 515 457T474 401T420 369V365Q464 355 495 332T543 276T560 201Q560 132 530 88T442 22T299 0H128ZM187 76H331Q396 76 432 109T469
200Q469 256 430 288T314 320H187V76ZM187 396H301Q362 396 400 431T439 515Q439 571 406 597T297 624H187V396Z" />
<glyph unicode="C" horiz-adv-x="619" d="M379 -6Q215 -6 136 80T57 350Q57 529 139 617T381 706Q415 706 447 701T505 688T548 670Q559 663 565 657T572 644Q572 638 570 630T563 613T553 599T541 593Q533 593 514 602T462 621T383 630Q303 630 251 601T174 510T148
349Q148 253 173 192T249 100T379 70Q418 70 448 77T501 92T538 108T557 115Q563 115 568 109T578 95T584 79T586 67Q586 58 578 50T554 33Q536 23 510 14T450 0T379 -6Z" />
<glyph unicode="D" horiz-adv-x="695" d="M128 0Q97 0 97 30V670Q97 700 128 700H329Q480 700 559 613T638 352Q638 180 559 90T329 0H128ZM187 76H329Q435 76 491 146T547 352Q547 487 491 555T329 624H187V76Z" />
<glyph unicode="E" horiz-adv-x="546" d="M128 0Q97 0 97 30V670Q97 700 128 700H476Q496 700 496 670V654Q496 624 476 624H187V396H446Q466 396 466 366V350Q466 320 446 320H187V76H477Q497 76 497 46V30Q497 0 477 0H128Z" />
<glyph unicode="F" horiz-adv-x="503" d="M138 -2Q116 -2 107 4T97 20V670Q97 700 128 700H435Q454 700 454 670V654Q454 624 435 624H187V371H419Q439 371 439 341V325Q439 295 419 295H187V20Q187 10 178 4T146 -2H138Z" />
<glyph unicode="G" horiz-adv-x="672" d="M379 -6Q215 -6 136 80T57 350Q57 529 139 617T381 706Q407 706 431 703T477 695T517 684T548 670Q559 663 565 657T572 644Q572 638 569 630T561 613T550 599T538 593Q532 593 520 598T490 611T445 624T383 630Q263 630
206 564T148 349Q148 253 173 192T249 100T379 70Q407 70 433 74T481 85T513 102L501 49V305H364Q344 305 344 335V350Q344 380 364 380H558Q589 380 589 350V78Q589 62 585 55T569 42Q544 28 514 17T451 0T379 -6Z" />
<glyph unicode="H" horiz-adv-x="733" d="M138 -2Q116 -2 107 4T97 20V680Q97 691 106 696T138 702H146Q169 702 178 697T187 680V397H546V680Q546 691 555 696T587 702H595Q618 702 627 697T636 680V20Q636 10 627 4T595 -2H587Q565 -2 556 4T546 20V321H187V20Q187
10 178 4T146 -2H138Z" />
<glyph unicode="I" horiz-adv-x="283" d="M138 -2Q116 -2 107 4T97 20V680Q97 691 106 696T138 702H146Q169 702 178 697T187 680V20Q187 10 178 4T146 -2H138Z" />
<glyph unicode="J" horiz-adv-x="402" d="M116 -6Q97 -6 74 -3T33 8T15 29Q15 33 16 41T20 59T27 74T37 81Q45 81 54 79T77 74T117 72Q171 72 198 100T226 195V680Q226 691 235 696T267 702H275Q298 702 307 697T316 680V205Q316 98 266 46T116 -6Z" />
<glyph unicode="K" horiz-adv-x="576" d="M138 -2Q116 -2 107 4T97 20V680Q97 691 106 696T138 702H146Q169 702 178 697T187 680V384H191L430 682Q441 695 452 698T489 702H499Q516 702 524 699T532 687Q532 683 531 678T520 662L250 326V382L577 28Q582 22 584
19T586 12Q586 4 576 1T542 -2H530Q508 -2 496 2T476 14L191 323H187V20Q187 10 178 4T146 -2H138Z" />
<glyph unicode="L" horiz-adv-x="484" d="M128 0Q97 0 97 30V680Q97 691 106 696T138 702H146Q169 702 178 697T187 680V76H461Q481 76 481 46V30Q481 0 461 0H128Z" />
<glyph unicode="M" horiz-adv-x="843" d="M138 -2Q116 -2 107 4T97 20V680Q97 691 106 696T138 702H173Q196 702 208 698T225 684L397 349Q404 336 411 319T423 286Q428 303 437 321T454 352L622 684Q627 693 639 697T673 702H705Q728 702 737 697T746 680V20Q746
10 737 4T705 -2H697Q675 -2 666 4T656 20V501Q656 515 656 529T657 556L653 557Q647 545 642 534T630 512L479 216Q472 203 463 199T433 195H413Q394 195 385 199T367 216L213 518Q207 529 202 540T190 563L186 562Q187 549 187 535T187 507V20Q187 10 178 4T146
-2H138Z" />
<glyph unicode="N" horiz-adv-x="719" d="M138 -2Q116 -2 107 4T97 20V680Q97 691 106 696T138 702H163Q174 702 181 700T195 694T205 683L511 209Q521 194 529 180T544 149L548 150Q547 167 547 181T546 218V680Q546 691 555 696T587 702H595Q618 702 627 697T636
680V20Q636 10 627 4T595 -2H571Q562 -2 555 -1T544 4T536 12L222 498Q212 513 205 527T189 558L185 557Q187 540 187 526T187 489V20Q187 10 178 4T146 -2H138Z" />
<glyph unicode="O" horiz-adv-x="731" d="M365 -6Q215 -6 136 85T57 352Q57 528 136 617T365 706Q516 706 595 617T674 352Q674 177 595 86T365 -6ZM365 70Q471 70 527 142T583 352Q583 490 527 560T365 630Q259 630 204 560T148 352Q148 214 203 142T365 70Z" />
<glyph unicode="P" horiz-adv-x="570" d="M138 -2Q116 -2 107 4T97 20V670Q97 700 128 700H325Q438 700 495 650T552 499Q552 399 495 349T325 298H187V20Q187 10 178 4T146 -2H138ZM187 374H325Q397 374 429 403T461 499Q461 565 429 594T325 624H187V374Z" />
<glyph unicode="Q" horiz-adv-x="731" d="M652 -148Q647 -148 624 -140T567 -119T491 -89T410 -56T334 -25T274 0T244 13H462V1L666 -60Q676 -63 680 -67T684 -76Q684 -84 682 -96T675 -120T665 -140T652 -148ZM365 -6Q215 -6 136 85T57 352Q57 528 136 617T365
706Q516 706 595 617T674 352Q674 177 595 86T365 -6ZM365 70Q471 70 527 142T583 352Q583 490 527 560T365 630Q259 630 204 560T148 352Q148 214 203 142T365 70Z" />
<glyph unicode="R" horiz-adv-x="610" d="M138 -2Q116 -2 107 4T97 20V670Q97 700 128 700H325Q438 700 495 651T552 504Q552 460 537 425T492 368T423 339V335Q454 326 474 298T511 225L589 28Q591 24 591 20T592 14Q592 7 582 3T550 -2H540Q525 -2 514 2T500
14L417 228Q406 258 391 275T352 300T295 308H187V20Q187 10 178 4T146 -2H138ZM187 384H325Q397 384 429 411T461 499Q461 565 429 594T325 624H187V384Z" />
<glyph unicode="S" horiz-adv-x="500" d="M243 -6Q201 -6 165 2T101 21T58 44Q49 50 43 56T36 70Q36 75 38 83T43 101T51 116T62 122Q72 122 96 109T158 83T243 70Q287 70 316 83T359 122T374 188Q374 218 362 239T328 275T279 301T223 324Q191 336 160 350T104
386T64 439T49 521Q49 561 65 595T110 654T180 692T268 706Q293 706 320 701T371 688T412 669Q421 664 426 658T431 646Q431 640 429 631T424 613T415 598T405 592Q396 592 376 601T329 620T266 630Q227 630 199 617T156 579T140 520Q140 483 159 461T209 426T276
398Q309 385 342 370T404 331T448 274T465 188Q465 143 450 107T406 46T336 7T243 -6Z" />
<glyph unicode="T" horiz-adv-x="549" d="M269 -2Q249 -2 240 4T231 20V624H39Q20 624 20 654V670Q20 700 39 700H509Q529 700 529 670V654Q529 624 509 624H321V20Q321 10 312 4T283 -2H269Z" />
<glyph unicode="U" horiz-adv-x="712" d="M356 -6Q231 -6 159 55T87 224V680Q87 691 96 696T128 702H136Q159 702 168 697T177 680V224Q177 152 225 111T356 70Q440 70 488 111T536 224V680Q536 691 545 696T577 702H585Q608 702 617 697T626 680V224Q626 117
554 56T356 -6Z" />
<glyph unicode="V" horiz-adv-x="617" d="M294 -2Q277 -2 267 2T254 14L17 672Q16 676 15 679T14 685Q14 693 24 697T57 702H65Q80 702 91 699T105 686L309 90H313L515 686Q518 695 529 698T555 702H560Q583 702 593 698T603 685Q603 682 603 679T600 671L363
14Q360 7 350 3T323 -2H294Z" />
<glyph unicode="W" horiz-adv-x="910" d="M241 -2Q224 -2 214 3T201 19L17 671Q16 674 15 678T14 685Q14 693 24 697T55 702H65Q80 702 91 699T105 686L258 90H262L396 681Q398 692 408 697T436 702H469Q486 702 498 697T512 681L648 90H652L805 686Q807 695 818
698T845 702H855Q876 702 886 698T896 685Q896 682 895 678T893 671L709 19Q706 8 696 3T669 -2H632Q615 -2 604 3T589 19L456 591H452L321 19Q319 8 307 3T278 -2H241Z" />
<glyph unicode="X" horiz-adv-x="611" d="M66 -2Q41 -2 31 2T20 15Q20 19 22 23T28 33L252 367L52 667Q48 672 46 676T44 685Q44 693 54 697T90 702H104Q120 702 130 699T147 687L309 443L472 688Q477 696 489 699T515 702H521Q546 702 556 698T567 685Q567 681
565 677T559 667L360 369L584 33Q588 28 590 24T592 15Q592 7 582 3T546 -2H530Q514 -2 504 1T487 13L302 292L117 12Q112 4 100 1T74 -2H66Z" />
<glyph unicode="Y" horiz-adv-x="559" d="M275 -2Q253 -2 244 4T234 20V349L26 667Q22 672 20 676T18 685Q18 693 28 697T63 702H74Q90 702 100 699T117 687L300 402H263L448 688Q453 696 465 699T493 702H501Q523 702 532 698T541 685Q541 681 539 677T533 667L324
346V20Q324 10 315 4T283 -2H275Z" />
<glyph unicode="Z" horiz-adv-x="576" d="M70 0Q64 0 59 4T50 17T44 34T41 52Q41 57 42 61T47 72L441 657L463 624H70Q51 624 51 654V670Q51 700 70 700H506Q512 700 517 696T526 683T532 666T535 648Q535 643 535 639T529 628L135 43L115 76H513Q533 76 533 46V30Q533
0 513 0H70Z" />
<glyph unicode="[" horiz-adv-x="291" d="M120 -138Q90 -138 90 -108V738Q90 768 120 768H241Q261 768 261 739V734Q261 705 241 705H164V-75H241Q261 -75 261 -104V-109Q261 -138 241 -138H120Z" />
<glyph unicode="\" horiz-adv-x="422" d="M372 -76H368Q352 -76 346 -73T335 -61L39 651Q34 663 30 674T25 690Q25 698 31 700T50 703H54Q70 703 76 700T87 688L383 -24Q388 -36 392 -47T397 -63Q397 -70 392 -73T372 -76Z" />
<glyph unicode="]" horiz-adv-x="291" d="M171 768Q201 768 201 738V-108Q201 -138 171 -138H50Q30 -138 30 -109V-104Q30 -75 50 -75H127V705H50Q30 705 30 734V739Q30 768 50 768H171Z" />
<glyph unicode="^" horiz-adv-x="450" d="M80 320Q64 320 57 323T49 333Q49 335 50 338T52 345L181 664Q186 676 195 680T225 684Q245 684 255 680T269 664L398 345Q400 342 400 339T401 334Q401 327 394 324T370 320Q351 320 344 324T331 343L212 636H238L118
343Q111 328 105 324T80 320Z" />
<glyph unicode="_" horiz-adv-x="535" d="M-1 -138Q-20 -138 -20 -118V-110Q-20 -90 -1 -90H536Q555 -90 555 -110V-118Q555 -138 536 -138H-1Z" />
<glyph unicode="`" horiz-adv-x="161" d="M139 576Q126 576 117 577T99 584T81 600L27 660Q12 677 6 686T0 702Q0 711 13 714T48 718Q69 718 81 715T99 707T110 692L150 616Q155 607 158 601T161 589Q161 583 156 580T139 576Z" />
<glyph unicode="a" horiz-adv-x="545" d="M220 -6Q147 -6 98 30T49 144Q49 195 66 230T121 286T223 316T379 326V373Q379 396 369 415T336 445T271 457Q226 457 192 447T136 427T107 417Q102 417 98 422T89 435T83 453T80 469Q80 477 97 487T142 506T205 522T275
529Q320 529 355 519T415 488T452 438T465 372V150Q465 109 467 83T472 43T475 21Q475 16 469 12T454 6T435 2T417 0Q408 0 403 6T394 28T385 69Q367 48 343 31T288 4T220 -6ZM224 67Q260 67 287 77T337 102T379 136V254Q305 254 258 249T185 231T149 199T139 149Q139
109 160 88T224 67Z" />
<glyph unicode="b" horiz-adv-x="569" d="M324 -6Q283 -6 243 12T170 69Q169 57 167 45T161 20Q157 6 148 2T128 -2H123Q105 -2 98 4T90 20V730Q90 741 98 746T129 752H137Q159 752 167 747T176 730V478Q195 493 215 504T260 522T315 529Q403 529 458 461T514
262Q514 184 491 124T426 29T324 -6ZM307 67Q364 67 395 119T426 269Q426 359 394 408T296 457Q265 457 234 445T176 410V136Q206 102 240 85T307 67Z" />
<glyph unicode="c" horiz-adv-x="485" d="M293 -6Q177 -6 116 54T55 259Q55 389 116 459T292 529Q322 529 349 525T397 512T430 495T443 477Q443 469 439 458T429 438T416 429Q409 429 393 436T350 450T287 457Q216 457 180 408T143 261Q143 160 179 113T295 66Q329
66 356 75T401 93T425 102Q432 102 437 94T447 74T451 55Q451 46 437 35T399 15T348 0T293 -6Z" />
<glyph unicode="d" horiz-adv-x="565" d="M244 -6Q184 -6 142 24T77 114T55 258Q55 337 77 398T142 494T242 529Q282 529 321 516T389 482V730Q389 741 399 746T431 752H435Q456 752 465 747T475 730V150Q475 109 477 83T482 43T485 21Q485 16 479 12T464 6T445
2T427 0Q418 0 413 6T404 28T395 69Q375 46 350 29T297 3T244 -6ZM270 68Q302 68 334 86T389 137V401Q359 428 325 442T259 456Q204 456 174 405T143 258Q143 159 177 114T270 68Z" />
<glyph unicode="e" horiz-adv-x="539" d="M293 -6Q178 -6 117 54T55 259Q55 346 82 406T161 497T289 529Q357 529 402 500T470 412T493 270Q493 261 488 251T475 234T458 227H143Q145 144 182 105T295 66Q343 66 376 77T429 99T454 110Q461 110 466 102T476 82T480
63Q480 54 466 43T426 20T366 1T293 -6ZM143 299H407Q407 378 374 417T280 457Q236 457 206 438T160 383T143 299Z" />
<glyph unicode="f" horiz-adv-x="325" d="M147 -2Q125 -2 117 4T108 20V451H57Q38 451 38 481V493Q38 523 57 523H108V624Q108 668 121 697T161 741T228 756Q243 756 261 752T293 741T307 722Q307 719 307 711T305 694T300 679T291 672Q284 672 274 677T241 682Q215
682 205 670T194 624V523H279Q299 523 299 493V481Q299 451 279 451H194V20Q194 10 186 4T155 -2H147Z" />
<glyph unicode="g" horiz-adv-x="546" d="M253 -212Q194 -212 148 -200T76 -158T50 -81Q50 -52 61 -28T93 16T137 45L138 47Q121 61 111 81T100 129Q100 161 114 184T154 225Q111 246 90 283T68 366Q68 412 90 448T157 507T265 529Q281 529 296 528T324 523H506Q517
523 521 516T526 493V481Q526 451 506 451Q498 451 484 452T455 454T429 458L428 456Q442 442 449 428T458 399T461 366Q461 320 439 283T373 224T264 202Q236 202 216 196T185 177T174 141Q174 118 187 106T222 87T273 77T330 70Q375 65 411 52T469 12T491 -61Q491
-109 465 -142T385 -194T253 -212ZM264 -143Q339 -143 375 -125T411 -66Q411 -42 396 -29T355 -8T299 2T240 8T187 19Q163 8 146 -12T128 -65Q128 -93 141 -110T185 -135T264 -143ZM264 272Q296 272 322 280T365 309T381 365Q381 401 365 421T323 450T264 459Q232
459 206 451T164 422T148 365Q148 312 182 292T264 272Z" />
<glyph unicode="h" horiz-adv-x="565" d="M129 -2Q107 -2 99 4T90 20V730Q90 741 98 746T129 752H137Q159 752 167 747T176 730V460Q194 481 217 496T268 520T323 529Q374 529 410 510T466 454T486 367V20Q486 10 478 4T447 -2H439Q417 -2 409 4T400 20V359Q400
407 375 431T299 456Q275 456 252 448T210 424T176 386V20Q176 10 168 4T137 -2H129Z" />
<glyph unicode="i" horiz-adv-x="265" d="M129 -2Q107 -2 99 4T90 20V503Q90 514 98 519T129 525H137Q159 525 167 520T176 503V20Q176 10 168 4T137 -2H129ZM133 595Q109 595 99 601T89 617V677Q89 687 99 693T133 699Q157 699 167 694T177 677V617Q177 607 167
601T133 595Z" />
<glyph unicode="j" horiz-adv-x="276" d="M67 -212Q52 -212 34 -208T2 -196T-12 -178Q-12 -175 -12 -167T-10 -150T-5 -135T4 -128Q11 -128 21 -133T54 -138Q80 -138 90 -126T101 -80V503Q101 514 109 519T140 525H148Q170 525 178 520T187 503V-80Q187 -123 174
-152T134 -197T67 -212ZM143 595Q119 595 109 601T99 617V677Q99 687 109 693T143 699Q167 699 177 694T187 677V617Q187 607 177 601T143 595Z" />
<glyph unicode="k" horiz-adv-x="521" d="M129 -2Q107 -2 99 4T90 20V730Q90 741 98 746T129 752H137Q159 752 167 747T176 730V288H180L371 511Q376 517 381 520T394 524T414 525H428Q444 525 453 522T463 511Q463 507 460 502T452 491L240 246V293L473 28Q478
22 480 19T482 12Q482 4 472 1T438 -2H429Q407 -2 397 2T374 20L180 243H176V20Q176 10 168 4T137 -2H129Z" />
<glyph unicode="l" horiz-adv-x="297" d="M202 -6Q162 -6 136 9T96 53T82 126V730Q82 741 90 746T121 752H129Q151 752 159 747T168 730V126Q168 92 178 80T215 68Q238 68 248 73T265 78Q270 78 273 72T278 56T280 39T281 28Q281 18 268 10T236 -2T202 -6Z" />
<glyph unicode="m" horiz-adv-x="848" d="M129 -2Q107 -2 99 4T90 20V373Q90 414 88 440T83 481T80 502Q80 507 86 511T101 517T120 521T138 522Q147 522 152 516T161 495T170 454Q190 478 214 494T265 520T319 529Q353 529 380 520T429 492T463 446Q483 472 508
490T562 519T619 529Q668 529 703 510T758 454T777 367V20Q777 10 769 4T738 -2H730Q708 -2 700 4T691 20V359Q691 407 667 431T595 456Q578 456 561 451T528 436T497 412T470 379L469 413Q475 402 476 390T477 367V20Q477 10 469 4T438 -2H430Q408 -2 400 4T391
20V359Q391 407 367 431T295 456Q272 456 250 448T209 424T176 387V20Q176 10 168 4T137 -2H129Z" />
<glyph unicode="n" horiz-adv-x="557" d="M129 -2Q107 -2 99 4T90 20V373Q90 414 88 440T83 481T80 502Q80 507 86 511T101 517T120 521T138 522Q147 522 152 516T161 495T170 454Q190 478 215 494T267 520T323 529Q374 529 410 510T466 454T486 367V20Q486 10
478 4T447 -2H439Q417 -2 409 4T400 20V359Q400 407 375 431T299 456Q275 456 252 448T210 424T176 386V20Q176 10 168 4T137 -2H129Z" />
<glyph unicode="o" horiz-adv-x="569" d="M287 -6Q174 -6 115 62T55 259Q55 389 115 459T287 529Q397 529 455 460T514 259Q514 129 457 62T287 -6ZM284 66Q357 66 391 113T426 261Q426 361 392 409T284 457Q211 457 177 410T143 261Q143 161 177 114T284 66Z" />
<glyph unicode="p" horiz-adv-x="573" d="M129 -208Q107 -208 99 -202T90 -186V373Q90 414 88 440T83 481T80 502Q80 507 86 511T101 517T120 521T138 522Q147 522 151 517T160 498T168 463Q192 486 217 500T270 522T324 529Q387 529 430 499T495 410T518 265Q518
186 495 125T429 29T326 -6Q299 -6 272 2T220 23T176 55V-186Q176 -196 168 -202T137 -208H129ZM309 67Q367 67 398 119T430 265Q430 364 394 409T298 455Q266 455 235 440T176 395V136Q207 102 241 85T309 67Z" />
<glyph unicode="q" horiz-adv-x="566" d="M428 -208Q406 -208 398 -202T389 -186V63Q371 42 347 27T296 3T244 -6Q184 -6 142 24T77 114T55 258Q55 337 77 398T142 494T242 529Q285 529 324 515T398 472Q399 480 400 488T404 503Q408 517 417 521T437 525H442Q460
525 467 520T475 503V-186Q475 -196 467 -202T436 -208H428ZM270 68Q302 68 334 86T389 137V401Q359 428 325 442T259 456Q204 456 174 405T143 258Q143 165 175 117T270 68Z" />
<glyph unicode="r" horiz-adv-x="366" d="M130 -2Q109 -2 100 4T90 20V373Q90 414 88 440T83 481T80 502Q80 507 86 511T101 517T120 521T138 522Q147 522 152 516T162 494T171 454Q188 480 209 496T256 521T310 529Q327 529 335 521T344 497Q344 486 343 476T338
457T332 444T323 439Q316 439 306 443T272 447Q238 447 212 428T176 376V20Q176 10 166 4T134 -2H130Z" />
<glyph unicode="s" horiz-adv-x="413" d="M198 -9Q164 -9 135 -3T85 14T51 34T39 54Q39 60 45 72T59 94T74 104Q78 104 92 94T131 74T192 64Q240 64 265 83T290 138Q290 165 277 181T242 209T190 229Q164 238 139 249T94 277T63 320T51 385Q51 427 72 460T131
511T217 530Q243 530 266 527T308 517T338 503T349 487Q349 479 344 466T331 443T317 433Q313 433 290 446T226 459Q189 459 163 442T137 392Q137 373 144 360T168 337T215 316Q249 305 278 291T329 258T363 211T375 147Q375 102 352 67T288 12T198 -9Z" />
<glyph unicode="t" horiz-adv-x="342" d="M228 -6Q188 -6 162 9T122 53T108 126V451H58Q38 451 38 481V493Q38 523 58 523H108L120 628Q122 639 129 644T151 650H159Q179 650 186 645T194 628V523H279Q299 523 299 493V481Q299 451 279 451H194V126Q194 94 204
81T241 68Q264 68 274 73T291 78Q296 78 299 72T304 56T306 39T307 28Q307 18 294 10T262 -2T228 -6Z" />
<glyph unicode="u" horiz-adv-x="557" d="M230 -6Q156 -6 114 36T71 153V503Q71 514 79 519T110 525H118Q140 525 148 520T157 503V161Q157 115 181 91T254 67Q279 67 302 75T346 100T381 137V503Q381 514 389 519T420 525H428Q450 525 458 520T467 503V150Q467
109 469 83T474 43T477 21Q477 16 471 12T456 6T437 2T419 0Q410 0 405 6T396 28T387 69Q367 46 341 29T287 3T230 -6Z" />
<glyph unicode="v" horiz-adv-x="485" d="M225 -2Q210 -2 198 2T181 19L24 495Q23 497 22 501T21 508Q21 516 31 520T64 525H73Q88 525 99 522T113 509L244 65H248L379 509Q382 518 393 521T420 525H427Q447 525 455 521T464 508Q464 505 464 502T461 494L304
19Q300 6 288 2T260 -2H225Z" />
<glyph unicode="w" horiz-adv-x="747" d="M203 -2Q188 -2 177 2T161 19L34 494Q33 497 32 501T31 508Q31 516 41 520T74 525H79Q94 525 105 522T119 509L224 65H228L331 509Q333 518 344 521T372 525H382Q397 525 408 522T422 508L526 65H530L635 509Q637 518
648 521T676 525H679Q699 525 707 521T716 508Q716 505 716 502T713 494L586 19Q582 6 571 2T544 -2H507Q492 -2 480 2T465 19L377 393H373L284 19Q281 6 269 2T241 -2H203Z" />
<glyph unicode="x" horiz-adv-x="485" d="M63 -2Q40 -2 30 2T20 15Q20 19 22 23T28 33L190 268L40 490Q36 495 34 499T32 508Q32 516 42 520T78 525H87Q103 525 113 522T130 510L246 332L363 511Q368 519 380 522T408 525H412Q435 525 444 521T454 508Q454 504
452 500T446 490L295 270L457 33Q461 28 463 24T465 15Q465 7 455 3T419 -2H410Q394 -2 384 1T367 13L240 207L111 12Q105 4 93 1T66 -2H63Z" />
<glyph unicode="y" horiz-adv-x="481" d="M147 -208Q131 -208 123 -204T114 -192Q114 -190 114 -188T119 -175L217 60L209 -5L24 495Q23 497 22 501T21 508Q21 516 31 520T64 525H69Q84 525 95 522T109 509L242 119H246L383 509Q386 518 397 521T424 525H427Q447
525 455 521T464 508Q464 505 464 502T461 494L202 -187Q198 -198 186 -203T155 -208H147Z" />
<glyph unicode="z" horiz-adv-x="489" d="M64 0Q57 0 51 8T41 28T37 48Q37 53 38 57T46 71L361 484L383 451H71Q52 451 52 481V493Q52 523 71 523H424Q432 523 438 515T447 496T451 475Q451 470 450 466T442 452L127 39L106 72H433Q453 72 453 42V30Q453 0 433 0H64Z" />
<glyph unicode="{" horiz-adv-x="274" d="M194 -138Q166 -138 144 -129T109 -95T96 -22V145Q96 195 87 227T45 274Q33 279 27 287T20 308V322Q20 336 26 343T45 356Q78 371 87 403T96 485V652Q96 700 109 725T144 759T194 768H224Q235 768 239 762T244 739V735Q244
706 224 706H202Q181 706 175 695T168 652V459Q168 407 147 368T90 314Q125 301 146 262T168 171V-22Q168 -53 174 -64T202 -76H224Q244 -76 244 -105V-109Q244 -125 240 -131T224 -138H194Z" />
<glyph unicode="|" horiz-adv-x="250" d="M120 -140Q96 -140 96 -121V751Q96 770 120 770H130Q154 770 154 751V-121Q154 -140 130 -140H120Z" />
<glyph unicode="}" horiz-adv-x="274" d="M80 768Q108 768 130 759T165 726T178 652V485Q178 436 187 404T229 356Q241 351 247 344T254 322V308Q254 295 248 287T229 274Q196 259 187 227T178 145V-22Q178 -69 165 -94T130 -129T80 -138H50Q40 -138 35 -132T30
-109V-105Q30 -76 50 -76H72Q93 -76 99 -65T106 -22V171Q106 224 127 263T184 316Q149 330 128 368T106 459V652Q106 683 100 694T72 706H50Q30 706 30 735V739Q30 755 35 761T50 768H80Z" />
<glyph unicode="~" horiz-adv-x="560" d="M105 214Q100 214 94 216T84 222T80 230Q80 235 81 241T86 254Q92 267 103 280T132 303T178 312Q206 312 233 306T286 293T335 279T380 273Q401 273 413 279T432 294T443 308T453 315Q456 315 462 313T474 306T480 297Q480
294 479 291T475 282Q460 245 435 230T372 215Q349 215 323 221T272 235T222 250T178 256Q158 256 146 250T127 235T115 221T105 214Z" />
<glyph unicode="&#xa0;" horiz-adv-x="240" />
<glyph unicode="&#xa1;" horiz-adv-x="294" d="M153 321Q169 321 176 316T183 299V-157Q183 -167 174 -173T143 -179H123Q102 -179 93 -173T84 -155L111 299Q112 310 119 315T142 321H153ZM154 525Q177 525 186 520T196 503V437Q196 427 187 421T154 415H140Q118
415 108 421T98 437V503Q98 514 108 519T140 525H154Z" />
<glyph unicode="&#xa2;" horiz-adv-x="485" d="M292 -71Q266 -71 266 -53V571Q266 589 292 589H297Q323 589 323 571V-53Q323 -71 297 -71H292ZM293 -6Q177 -6 116 54T55 259Q55 389 116 459T292 529Q322 529 349 525T397 512T430 495T443 477Q443 469 439 458T429
438T416 429Q409 429 393 436T350 450T287 457Q216 457 180 408T143 261Q143 160 179 113T295 66Q329 66 356 75T401 93T425 102Q432 102 437 94T447 74T451 55Q451 46 437 35T399 15T348 0T293 -6Z" />
<glyph unicode="&#xa3;" horiz-adv-x="530" d="M75 0Q65 0 60 7T55 30V39Q55 51 63 57T82 70Q104 83 117 97T135 132T141 179V483Q141 557 165 606T237 681T356 706Q372 706 391 704T427 696T456 685T467 669Q467 662 464 651T455 630T441 620Q437 620 425 623T395
630T351 634Q286 634 256 596T225 483V249Q225 193 221 159T205 106T173 72H448Q459 72 463 65T468 42V30Q468 14 464 7T448 0H75ZM75 321Q65 321 60 328T55 351V363Q55 379 60 386T75 393H399Q410 393 414 386T419 363V351Q419 335 415 328T399 321H75Z" />
<glyph unicode="&#xa4;" horiz-adv-x="550" d="M276 145Q225 145 185 168T122 231T99 322Q99 374 122 414T185 477T276 500Q328 500 368 477T431 414T454 322Q454 271 431 231T368 168T276 145ZM125 142Q119 142 111 150L103 159Q95 169 95 175Q95 181 102 188L154
240L189 199L140 150Q132 142 125 142ZM153 407L103 456Q96 463 96 470Q96 477 104 485L113 493Q123 501 128 501Q135 501 142 494L192 444L153 407ZM276 202Q327 202 360 236T393 322Q393 375 360 409T276 443Q226 443 193 409T160 322Q160 270 193 236T276 202ZM425
142Q418 142 410 150L362 198L397 239L448 188Q455 181 455 175Q455 169 447 159L439 150Q431 142 425 142ZM400 409L361 447L408 494Q415 501 422 501Q427 501 437 493L446 485Q454 477 454 470Q454 463 447 456L400 409Z" />
<glyph unicode="&#xa5;" horiz-adv-x="559" d="M59 305Q40 305 40 332V344Q40 371 59 371H499Q519 371 519 344V332Q519 305 499 305H59ZM59 147Q40 147 40 174V186Q40 213 59 213H499Q519 213 519 186V174Q519 147 499 147H59ZM275 -2Q253 -2 244 4T234 20V349L26
667Q22 672 20 676T18 685Q18 693 28 697T63 702H74Q90 702 100 699T117 687L300 402H263L448 688Q453 696 465 699T493 702H501Q523 702 532 698T541 685Q541 681 539 677T533 667L324 346V20Q324 10 315 4T283 -2H275Z" />
<glyph unicode="&#xa6;" horiz-adv-x="250" d="M120 404Q96 404 96 423V751Q96 770 120 770H130Q154 770 154 751V423Q154 404 130 404H120ZM120 -140Q96 -140 96 -121V207Q96 226 120 226H130Q154 226 154 207V-121Q154 -140 130 -140H120Z" />
<glyph unicode="&#xa7;" horiz-adv-x="429" d="M205 -6Q180 -6 157 -2T115 8T87 23T76 39Q76 47 81 59T93 80T106 90Q110 90 121 84T150 72T196 66Q239 66 259 83T279 126Q279 146 270 158T244 178T208 192T166 206Q137 217 111 232T67 275T50 349Q50 388 70 424T124
483L194 448Q169 442 152 417T135 359Q135 329 150 312T188 285T239 266Q262 259 284 250T324 227T353 191T364 134Q364 84 341 53T281 8T205 -6ZM302 218L224 254Q255 258 274 283T294 343Q294 374 279 391T240 419T189 438Q167 445 145 453T105 475T76 512T65
570Q65 618 88 648T149 692T225 706Q251 706 274 702T316 692T345 678T356 664Q356 656 352 643T340 620T324 610Q319 610 308 616T279 628T233 634Q190 634 171 617T151 574Q151 550 166 537T205 515T256 497Q286 487 314 472T361 430T379 353Q379 313 359 277T302
218Z" />
<glyph unicode="&#xa8;" horiz-adv-x="238" d="M194 597Q171 597 161 602T150 619V675Q150 686 160 691T194 697Q217 697 227 692T238 675V619Q238 608 228 603T194 597ZM44 597Q21 597 11 602T0 619V675Q0 686 10 691T44 697Q67 697 77 692T88 675V619Q88 608
78 603T44 597Z" />
<glyph unicode="&#xa9;" horiz-adv-x="739" d="M369 -5Q291 -5 226 21T112 96T37 210T10 354Q10 431 36 496T111 609T225 683T369 710Q447 710 513 684T627 609T702 496T729 354Q729 276 703 211T628 97T513 22T369 -5ZM385 137Q288 137 241 188T193 349Q193 456
242 509T387 562Q417 562 443 556T485 542T501 525Q501 520 498 512T489 497T480 490Q477 490 466 497T436 510T388 517Q316 517 282 477T247 349Q247 263 281 223T385 182Q416 182 437 189T471 204T488 212Q492 212 497 206T505 192T509 180Q509 174 500 167T473
153T434 142T385 137ZM369 41Q460 41 530 81T640 192T681 354Q681 444 641 514T530 624T369 664Q279 664 209 624T99 514T58 354Q58 263 98 193T209 82T369 41Z" />
<glyph unicode="&#xaa;" horiz-adv-x="319" d="M127 441Q93 441 69 459T45 515Q45 557 69 576T130 600T206 605V627Q206 644 194 653T153 662Q119 662 101 653T78 644Q75 644 71 650T63 664T60 674Q60 681 73 688T108 700T155 706Q199 706 227 686T255 628V517Q255
486 258 471T261 453Q261 449 255 447T241 443T230 442Q219 442 215 453T209 475Q200 466 188 458T161 446T127 441ZM134 489Q155 489 173 498T206 519V561Q182 561 156 560T111 550T93 520Q93 505 103 497T134 489Z" />
<glyph unicode="&#xab;" horiz-adv-x="470" d="M210 61Q204 61 199 64T188 74L58 230Q51 238 48 244T45 258Q45 265 48 271T58 286L188 442Q193 448 198 451T210 454Q216 454 224 450T239 438T245 422Q245 418 243 413T237 402L102 232V285L237 113Q241 108 243
104T245 94Q245 88 240 81T226 67T210 61ZM380 61Q374 61 369 64T358 74L228 230Q221 238 218 244T215 258Q215 265 218 271T228 286L358 442Q363 448 368 451T380 454Q386 454 394 450T409 438T415 422Q415 418 413 413T407 402L272 232V285L407 113Q411 108 413
104T415 94Q415 88 410 81T396 67T380 61Z" />
<glyph unicode="&#xac;" horiz-adv-x="560" d="M429 77Q411 77 404 82T396 97V274H70Q50 274 50 304V311Q50 341 70 341H450Q461 341 465 334T470 311V97Q470 87 463 82T437 77H429Z" />
<glyph unicode="&#xad;" horiz-adv-x="320" d="M65 230Q45 230 45 260V270Q45 300 65 300H255Q275 300 275 270V260Q275 230 255 230H65Z" />
<glyph unicode="&#xae;" horiz-adv-x="739" d="M369 -5Q291 -5 226 21T112 96T37 210T10 354Q10 431 36 496T111 609T225 683T369 710Q447 710 513 684T627 609T702 496T729 354Q729 276 703 211T628 97T513 22T369 -5ZM369 41Q460 41 530 81T640 192T681 354Q681
444 641 514T530 624T369 664Q279 664 209 624T99 514T58 354Q58 263 98 193T209 82T369 41ZM273 145Q249 145 249 158V541Q249 559 267 559H375Q441 559 474 533T508 455Q508 415 491 390T440 353V351Q459 344 470 326T493 279L539 163Q541 160 541 158T541 154Q541
150 535 148T516 145H510Q501 145 495 147T487 154L442 270Q429 305 409 316T354 328H301V158Q301 145 277 145H273ZM301 373H379Q414 373 434 392T454 445Q454 482 436 498T375 514H301V373Z" />
<glyph unicode="&#xaf;" horiz-adv-x="260" d="M20 612Q0 612 0 642V652Q0 682 20 682H240Q260 682 260 652V642Q260 612 240 612H20Z" />
<glyph unicode="&#xb0;" horiz-adv-x="345" d="M172 441Q114 441 76 478T37 573Q37 631 75 668T172 706Q231 706 269 669T308 573Q308 515 270 478T172 441ZM172 486Q210 486 234 511T259 573Q259 611 235 636T172 661Q135 661 111 636T86 573Q86 536 110 511T172 486Z" />
<glyph unicode="&#xb1;" horiz-adv-x="560" d="M277 138Q247 138 247 158V327H70Q50 327 50 357V364Q50 394 70 394H247V573Q247 593 277 593H284Q314 593 314 573V394H490Q510 394 510 364V357Q510 327 490 327H314V158Q314 138 284 138H277ZM70 0Q50 0 50 30V37Q50
67 70 67H490Q510 67 510 37V30Q510 0 490 0H70Z" />
<glyph unicode="&#xb2;" horiz-adv-x="310" d="M35 350Q30 350 26 359T22 376Q22 379 22 382T25 388L164 579Q185 608 194 627T203 665Q203 693 184 706T133 720Q108 720 92 715T66 703T51 697Q48 697 44 702T36 716T33 729Q33 739 50 747T90 762T135 768Q188
768 221 741T255 665Q255 638 245 613T210 554L79 374L65 398H247Q261 398 261 376V370Q261 350 247 350H35Z" />
<glyph unicode="&#xb3;" horiz-adv-x="310" d="M135 344Q110 344 90 347T54 356T31 367T23 379Q23 385 26 391T33 402T40 407Q46 407 57 402T87 392T130 386Q160 386 179 395T209 423T219 468Q219 513 195 529T130 545H104Q92 545 92 563V569Q92 579 95 583T104
587H127Q152 587 169 596T195 622T205 664Q205 675 200 688T179 710T135 720Q95 720 77 711T51 701Q48 701 44 705T37 716T34 726Q34 733 51 741T92 756T137 763Q189 763 221 738T254 663Q254 629 236 607T195 575V572Q213 568 230 555T258 519T269 467Q269 409
233 377T135 344Z" />
<glyph unicode="&#xb4;" horiz-adv-x="161" d="M22 576Q11 576 6 579T0 589Q0 594 3 600T11 616L51 692Q56 701 62 706T80 715T113 718Q136 718 148 715T161 702Q161 695 155 686T134 660L80 600Q71 590 63 585T45 578T22 576Z" />
<glyph unicode="&#xb5;" horiz-adv-x="557" d="M110 -208Q88 -208 80 -202T71 -186V249L135 47Q141 16 145 -10T152 -63T156 -118T157 -186Q157 -196 149 -202T118 -208H110ZM230 -6Q156 -6 114 36T71 153V503Q71 514 79 519T110 525H118Q140 525 148 520T157
503V161Q157 115 181 91T254 67Q279 67 302 75T346 100T381 137V503Q381 514 389 519T420 525H428Q450 525 458 520T467 503V150Q467 109 469 83T474 43T477 21Q477 16 471 12T456 6T437 2T419 0Q410 0 405 6T396 28T387 69Q367 46 341 29T287 3T230 -6Z" />
<glyph unicode="&#xb6;" horiz-adv-x="515" d="M243 -173Q228 -173 222 -169T215 -157V227Q153 227 108 257T39 342T15 464Q15 533 40 586T116 669T237 700H467Q485 700 485 676V662Q485 638 467 638H421V-157Q421 -165 415 -169T393 -173H383Q368 -173 362 -169T355
-157V638H281V-157Q281 -165 275 -169T253 -173H243Z" />
<glyph unicode="&#xb7;" horiz-adv-x="267" d="M133 309Q111 309 97 323T82 360Q82 382 96 397T133 412Q155 412 170 397T185 360Q185 338 170 324T133 309Z" />
<glyph unicode="&#xb8;" horiz-adv-x="230" d="M115 -210Q93 -210 66 -206T20 -193T0 -173Q0 -168 2 -161T8 -147T18 -141Q26 -141 39 -146T70 -156T112 -161Q121 -161 133 -159T156 -149T166 -126Q166 -109 155 -103T129 -94T103 -89T91 -75Q91 -71 93 -62T101
-37T114 6H157L138 -59L129 -54Q179 -54 204 -72T230 -125Q230 -162 212 -180T167 -204T115 -210Z" />
<glyph unicode="&#xb9;" horiz-adv-x="310" d="M157 348Q146 348 140 351T134 362V745L170 717L62 694Q58 694 55 699T51 711T50 724Q50 729 52 731T60 735L166 763Q174 763 180 760T186 751V362Q186 355 180 352T162 348H157Z" />
<glyph unicode="&#xba;" horiz-adv-x="337" d="M160 441Q103 441 74 474T45 572Q45 639 74 672T160 706Q216 706 244 673T272 572Q272 507 244 474T160 441ZM158 485Q193 485 208 506T224 573Q224 620 209 641T158 662Q124 662 109 641T93 573Q93 527 108 506T158 485Z" />
<glyph unicode="&#xbb;" horiz-adv-x="470" d="M260 454Q266 454 271 451T282 441L412 285Q419 277 422 271T425 257Q425 250 422 244T412 229L282 73Q277 67 272 64T260 61Q254 61 246 65T232 77T225 93Q225 98 227 103T233 113L368 283V230L233 402Q229 407
227 412T225 421Q225 427 230 435T244 448T260 454ZM90 454Q96 454 101 451T112 441L242 285Q249 277 252 271T255 257Q255 250 252 244T242 229L112 73Q107 67 102 64T90 61Q84 61 76 65T62 77T55 93Q55 98 57 103T63 113L198 283V230L63 402Q59 407 57 412T55
421Q55 427 60 435T74 448T90 454Z" />
<glyph unicode="&#xbc;" horiz-adv-x="788" d="M157 288Q146 288 140 291T134 302V685L170 657L62 634Q58 634 55 639T51 651T50 664Q50 669 52 671T60 675L166 703Q174 703 180 700T186 691V302Q186 295 180 292T162 288H157ZM198 -3Q185 -3 185 4Q185 6 186
8T188 14L553 691Q557 699 561 701T574 703H590Q603 703 603 696Q603 694 603 692T600 686L235 9Q231 2 227 0T214 -3H198ZM697 -4Q675 -4 675 10V97H497Q494 97 491 102T485 114T483 127Q483 129 483 131T486 137L675 404Q678 408 684 410T697 412H707Q717 412
721 409T725 399V140H764Q775 140 775 122V115Q775 97 764 97H725V10Q725 -4 702 -4H697ZM531 123L520 140H675V282Q675 289 675 297T676 313T678 327L658 337L688 345L531 123Z" />
<glyph unicode="&#xbd;" horiz-adv-x="788" d="M157 288Q146 288 140 291T134 302V685L170 657L62 634Q58 634 55 639T51 651T50 664Q50 669 52 671T60 675L166 703Q174 703 180 700T186 691V302Q186 295 180 292T162 288H157ZM198 -3Q185 -3 185 4Q185 6 186
8T188 14L553 691Q557 699 561 701T574 703H590Q603 703 603 696Q603 694 603 692T600 686L235 9Q231 2 227 0T214 -3H198ZM513 0Q508 0 504 9T500 26Q500 29 500 32T503 38L642 229Q663 258 672 277T681 315Q681 343 662 356T611 370Q586 370 570 365T544 353T529
347Q526 347 522 352T514 366T511 379Q511 389 528 397T568 412T613 418Q666 418 699 391T733 315Q733 288 723 263T688 204L557 24L543 48H725Q739 48 739 26V20Q739 0 725 0H513Z" />
<glyph unicode="&#xbe;" horiz-adv-x="788" d="M135 284Q110 284 90 287T54 296T31 307T23 319Q23 325 26 331T33 342T40 347Q46 347 57 342T87 332T130 326Q160 326 179 335T209 363T219 408Q219 453 195 469T130 485H104Q92 485 92 503V509Q92 519 95 523T104
527H127Q152 527 169 536T195 562T205 604Q205 615 200 628T179 650T135 660Q95 660 77 651T51 641Q48 641 44 645T37 656T34 666Q34 673 51 681T92 696T137 703Q189 703 221 678T254 603Q254 569 236 547T195 515V512Q213 508 230 495T258 459T269 407Q269 349
233 317T135 284ZM198 -3Q185 -3 185 4Q185 6 186 8T188 14L553 691Q557 699 561 701T574 703H590Q603 703 603 696Q603 694 603 692T600 686L235 9Q231 2 227 0T214 -3H198ZM697 -4Q675 -4 675 10V97H497Q494 97 491 102T485 114T483 127Q483 129 483 131T486
137L675 404Q678 408 684 410T697 412H707Q717 412 721 409T725 399V140H764Q775 140 775 122V115Q775 97 764 97H725V10Q725 -4 702 -4H697ZM531 123L520 140H675V282Q675 289 675 297T676 313T678 327L658 337L688 345L531 123Z" />
<glyph unicode="&#xbf;" horiz-adv-x="445" d="M282 321Q298 321 305 315T312 298Q312 276 302 250T273 195T226 139Q201 114 179 90T144 40T130 -15Q130 -61 162 -85T257 -109Q289 -109 316 -101T362 -85T388 -77Q392 -77 396 -83T403 -97T409 -114T411 -128Q411
-138 395 -148T354 -166T298 -178T241 -183Q178 -183 132 -164T61 -110T36 -25Q36 15 49 46T85 103T131 153Q155 176 176 199T214 247T234 301Q236 311 242 316T267 321H282ZM283 525Q306 525 315 520T325 503V437Q325 427 316 421T283 415H269Q247 415 237 421T227
437V503Q227 514 237 519T269 525H283Z" />
<glyph unicode="&#xc0;" horiz-adv-x="613" d="M55 -2Q33 -2 23 2T12 15Q12 18 13 21T15 29L252 686Q255 694 265 698T292 702H321Q338 702 348 698T361 686L598 28Q600 24 600 21T601 15Q601 8 591 3T558 -2H550Q535 -2 524 1T510 14L321 552Q317 566 313 581T306
610H304Q301 596 298 581T290 552L100 14Q97 5 86 2T60 -2H55ZM125 180V254H484V180H125ZM367 752Q342 752 328 756T293 773L239 806Q213 823 206 830T199 846Q199 855 214 859T252 864Q284 864 299 860T328 841L382 784Q388 778 390 774T393 765Q393 759 386 756T367
752Z" />
<glyph unicode="&#xc1;" horiz-adv-x="613" d="M55 -2Q33 -2 23 2T12 15Q12 18 13 21T15 29L252 686Q255 694 265 698T292 702H321Q338 702 348 698T361 686L598 28Q600 24 600 21T601 15Q601 8 591 3T558 -2H550Q535 -2 524 1T510 14L321 552Q317 566 313 581T306
610H304Q301 596 298 581T290 552L100 14Q97 5 86 2T60 -2H55ZM125 180V254H484V180H125ZM247 752Q235 752 228 755T221 765Q221 769 223 773T232 784L286 841Q299 855 315 859T362 864Q385 864 400 860T415 846Q415 838 408 831T375 806L321 773Q300 760 286 756T247
752Z" />
<glyph unicode="&#xc2;" horiz-adv-x="613" d="M55 -2Q33 -2 23 2T12 15Q12 18 13 21T15 29L252 686Q255 694 265 698T292 702H321Q338 702 348 698T361 686L598 28Q600 24 600 21T601 15Q601 8 591 3T558 -2H550Q535 -2 524 1T510 14L321 552Q317 566 313 581T306
610H304Q301 596 298 581T290 552L100 14Q97 5 86 2T60 -2H55ZM125 180V254H484V180H125ZM200 742Q187 742 182 745T177 754Q177 759 181 765T194 780L253 839Q259 845 265 848T282 852T307 854Q322 854 331 853T348 848T361 839L420 780Q429 771 433 765T437 754Q437
749 432 746T414 742Q404 742 397 744T378 753L307 796L237 753Q227 747 219 745T200 742Z" />
<glyph unicode="&#xc3;" horiz-adv-x="613" d="M55 -2Q33 -2 23 2T12 15Q12 18 13 21T15 29L252 686Q255 694 265 698T292 702H321Q338 702 348 698T361 686L598 28Q600 24 600 21T601 15Q601 8 591 3T558 -2H550Q535 -2 524 1T510 14L321 552Q317 566 313 581T306
610H304Q301 596 298 581T290 552L100 14Q97 5 86 2T60 -2H55ZM125 180V254H484V180H125ZM168 753Q164 753 157 755T143 762T137 771Q137 775 138 778T140 786Q157 823 181 837T228 851Q257 851 286 842T341 824T388 814Q408 814 418 824T433 845T444 855Q452 855
464 849T477 837Q477 834 475 827T466 805Q453 782 437 769T386 756Q355 756 325 765T269 784T223 793Q206 793 197 783T181 763T168 753Z" />
<glyph unicode="&#xc4;" horiz-adv-x="613" d="M55 -2Q33 -2 23 2T12 15Q12 18 13 21T15 29L252 686Q255 694 265 698T292 702H321Q338 702 348 698T361 686L598 28Q600 24 600 21T601 15Q601 8 591 3T558 -2H550Q535 -2 524 1T510 14L321 552Q317 566 313 581T306
610H304Q301 596 298 581T290 552L100 14Q97 5 86 2T60 -2H55ZM125 180V254H484V180H125ZM388 758Q365 758 355 763T344 780V836Q344 847 354 852T388 858Q411 858 421 853T432 836V780Q432 769 422 764T388 758ZM226 758Q203 758 193 763T182 780V836Q182 847
192 852T226 858Q249 858 259 853T270 836V780Q270 769 260 764T226 758Z" />
<glyph unicode="&#xc5;" horiz-adv-x="613" d="M55 -2Q33 -2 23 2T12 15Q12 18 13 21T15 29L252 686Q255 694 265 698T292 702H321Q338 702 348 698T361 686L598 28Q600 24 600 21T601 15Q601 8 591 3T558 -2H550Q535 -2 524 1T510 14L321 552Q317 566 313 581T306
610H304Q301 596 298 581T290 552L100 14Q97 5 86 2T60 -2H55ZM125 180V254H484V180H125ZM307 747Q267 747 243 770T218 831Q218 870 242 893T307 916Q348 916 372 893T396 831Q396 793 372 770T307 747ZM307 795Q324 795 334 804T344 831Q344 848 334 858T307
868Q291 868 281 858T270 831Q270 814 280 805T307 795Z" />
<glyph unicode="&#xc6;" horiz-adv-x="865" d="M55 -2Q33 -2 22 2T11 15Q11 18 12 21T15 29L326 684Q329 689 334 692T347 698T366 700H795Q815 700 815 670V654Q815 624 795 624H474L506 396H765Q785 396 785 366V350Q785 320 765 320H516L550 76H796Q816 76
816 46V30Q816 0 796 0H497Q481 0 475 7T466 30L386 608H382L100 14Q96 5 86 2T60 -2H55ZM151 180V254H484V180H151Z" />
<glyph unicode="&#xc7;" horiz-adv-x="619" d="M379 -6Q215 -6 136 80T57 350Q57 529 139 617T381 706Q415 706 447 701T505 688T548 670Q559 663 565 657T572 644Q572 638 570 630T563 613T553 599T541 593Q533 593 514 602T462 621T383 630Q303 630 251 601T174
510T148 349Q148 253 173 192T249 100T379 70Q418 70 448 77T501 92T538 108T557 115Q563 115 568 109T578 95T584 79T586 67Q586 58 578 50T554 33Q536 23 510 14T450 0T379 -6ZM354 -210Q332 -210 305 -206T259 -193T239 -173Q239 -168 241 -161T247 -147T257
-141Q265 -141 278 -146T309 -156T351 -161Q360 -161 372 -159T395 -149T405 -126Q405 -109 394 -103T368 -94T342 -89T330 -75Q330 -71 332 -62T340 -37T353 6H396L377 -59L368 -54Q418 -54 443 -72T469 -125Q469 -162 451 -180T406 -204T354 -210Z" />
<glyph unicode="&#xc8;" horiz-adv-x="546" d="M128 0Q97 0 97 30V670Q97 700 128 700H476Q496 700 496 670V654Q496 624 476 624H187V396H446Q466 396 466 366V350Q466 320 446 320H187V76H477Q497 76 497 46V30Q497 0 477 0H128ZM362 752Q337 752 323 756T288
773L234 806Q208 823 201 830T194 846Q194 855 209 859T247 864Q279 864 294 860T323 841L377 784Q383 778 385 774T388 765Q388 759 381 756T362 752Z" />
<glyph unicode="&#xc9;" horiz-adv-x="546" d="M128 0Q97 0 97 30V670Q97 700 128 700H476Q496 700 496 670V654Q496 624 476 624H187V396H446Q466 396 466 366V350Q466 320 446 320H187V76H477Q497 76 497 46V30Q497 0 477 0H128ZM242 752Q230 752 223 755T216
765Q216 769 218 773T227 784L281 841Q294 855 310 859T357 864Q380 864 395 860T410 846Q410 838 403 831T370 806L316 773Q295 760 281 756T242 752Z" />
<glyph unicode="&#xca;" horiz-adv-x="546" d="M128 0Q97 0 97 30V670Q97 700 128 700H476Q496 700 496 670V654Q496 624 476 624H187V396H446Q466 396 466 366V350Q466 320 446 320H187V76H477Q497 76 497 46V30Q497 0 477 0H128ZM195 742Q182 742 177 745T172
754Q172 759 176 765T189 780L248 839Q254 845 260 848T277 852T302 854Q317 854 326 853T343 848T356 839L415 780Q424 771 428 765T432 754Q432 749 427 746T409 742Q399 742 392 744T373 753L302 796L232 753Q222 747 214 745T195 742Z" />
<glyph unicode="&#xcb;" horiz-adv-x="546" d="M128 0Q97 0 97 30V670Q97 700 128 700H476Q496 700 496 670V654Q496 624 476 624H187V396H446Q466 396 466 366V350Q466 320 446 320H187V76H477Q497 76 497 46V30Q497 0 477 0H128ZM383 758Q360 758 350 763T339
780V836Q339 847 349 852T383 858Q406 858 416 853T427 836V780Q427 769 417 764T383 758ZM221 758Q198 758 188 763T177 780V836Q177 847 187 852T221 858Q244 858 254 853T265 836V780Q265 769 255 764T221 758Z" />
<glyph unicode="&#xcc;" horiz-adv-x="283" d="M138 -2Q116 -2 107 4T97 20V680Q97 691 106 696T138 702H146Q169 702 178 697T187 680V20Q187 10 178 4T146 -2H138ZM202 752Q177 752 163 756T128 773L74 806Q48 823 41 830T34 846Q34 855 49 859T87 864Q119 864
134 860T163 841L217 784Q223 778 225 774T228 765Q228 759 221 756T202 752Z" />
<glyph unicode="&#xcd;" horiz-adv-x="283" d="M138 -2Q116 -2 107 4T97 20V680Q97 691 106 696T138 702H146Q169 702 178 697T187 680V20Q187 10 178 4T146 -2H138ZM82 752Q70 752 63 755T56 765Q56 769 58 773T67 784L121 841Q134 855 150 859T197 864Q220 864
235 860T250 846Q250 838 243 831T210 806L156 773Q135 760 121 756T82 752Z" />
<glyph unicode="&#xce;" horiz-adv-x="283" d="M138 -2Q116 -2 107 4T97 20V680Q97 691 106 696T138 702H146Q169 702 178 697T187 680V20Q187 10 178 4T146 -2H138ZM35 742Q22 742 17 745T12 754Q12 759 16 765T29 780L88 839Q94 845 100 848T117 852T142 854Q157
854 166 853T183 848T196 839L255 780Q264 771 268 765T272 754Q272 749 267 746T249 742Q239 742 232 744T213 753L142 796L72 753Q62 747 54 745T35 742Z" />
<glyph unicode="&#xcf;" horiz-adv-x="283" d="M138 -2Q116 -2 107 4T97 20V680Q97 691 106 696T138 702H146Q169 702 178 697T187 680V20Q187 10 178 4T146 -2H138ZM223 758Q200 758 190 763T179 780V836Q179 847 189 852T223 858Q246 858 256 853T267 836V780Q267
769 257 764T223 758ZM61 758Q38 758 28 763T17 780V836Q17 847 27 852T61 858Q84 858 94 853T105 836V780Q105 769 95 764T61 758Z" />
<glyph unicode="&#xd0;" horiz-adv-x="695" d="M29 320Q19 320 15 327T10 350V366Q10 382 14 389T29 396H360Q370 396 374 389T379 366V350Q379 334 375 327T360 320H29ZM128 0Q97 0 97 30V670Q97 700 128 700H329Q480 700 559 613T638 352Q638 180 559 90T329
0H128ZM187 76H329Q435 76 491 146T547 352Q547 487 491 555T329 624H187V76Z" />
<glyph unicode="&#xd1;" horiz-adv-x="719" d="M138 -2Q116 -2 107 4T97 20V680Q97 691 106 696T138 702H163Q174 702 181 700T195 694T205 683L511 209Q521 194 529 180T544 149L548 150Q547 167 547 181T546 218V680Q546 691 555 696T587 702H595Q618 702 627
697T636 680V20Q636 10 627 4T595 -2H571Q562 -2 555 -1T544 4T536 12L222 498Q212 513 205 527T189 558L185 557Q187 540 187 526T187 489V20Q187 10 178 4T146 -2H138ZM228 753Q224 753 217 755T203 762T197 771Q197 775 198 778T200 786Q217 823 241 837T288
851Q317 851 346 842T401 824T448 814Q468 814 478 824T493 845T504 855Q512 855 524 849T537 837Q537 834 535 827T526 805Q513 782 497 769T446 756Q415 756 385 765T329 784T283 793Q266 793 257 783T241 763T228 753Z" />
<glyph unicode="&#xd2;" horiz-adv-x="731" d="M365 -6Q215 -6 136 85T57 352Q57 528 136 617T365 706Q516 706 595 617T674 352Q674 177 595 86T365 -6ZM365 70Q471 70 527 142T583 352Q583 490 527 560T365 630Q259 630 204 560T148 352Q148 214 203 142T365
70ZM426 752Q401 752 387 756T352 773L298 806Q272 823 265 830T258 846Q258 855 273 859T311 864Q343 864 358 860T387 841L441 784Q447 778 449 774T452 765Q452 759 445 756T426 752Z" />
<glyph unicode="&#xd3;" horiz-adv-x="731" d="M365 -6Q215 -6 136 85T57 352Q57 528 136 617T365 706Q516 706 595 617T674 352Q674 177 595 86T365 -6ZM365 70Q471 70 527 142T583 352Q583 490 527 560T365 630Q259 630 204 560T148 352Q148 214 203 142T365
70ZM306 752Q294 752 287 755T280 765Q280 769 282 773T291 784L345 841Q358 855 374 859T421 864Q444 864 459 860T474 846Q474 838 467 831T434 806L380 773Q359 760 345 756T306 752Z" />
<glyph unicode="&#xd4;" horiz-adv-x="731" d="M365 -6Q215 -6 136 85T57 352Q57 528 136 617T365 706Q516 706 595 617T674 352Q674 177 595 86T365 -6ZM365 70Q471 70 527 142T583 352Q583 490 527 560T365 630Q259 630 204 560T148 352Q148 214 203 142T365
70ZM259 742Q246 742 241 745T236 754Q236 759 240 765T253 780L312 839Q318 845 324 848T341 852T366 854Q381 854 390 853T407 848T420 839L479 780Q488 771 492 765T496 754Q496 749 491 746T473 742Q463 742 456 744T437 753L366 796L296 753Q286 747 278 745T259
742Z" />
<glyph unicode="&#xd5;" horiz-adv-x="731" d="M365 -6Q215 -6 136 85T57 352Q57 528 136 617T365 706Q516 706 595 617T674 352Q674 177 595 86T365 -6ZM365 70Q471 70 527 142T583 352Q583 490 527 560T365 630Q259 630 204 560T148 352Q148 214 203 142T365
70ZM227 753Q223 753 216 755T202 762T196 771Q196 775 197 778T199 786Q216 823 240 837T287 851Q316 851 345 842T400 824T447 814Q467 814 477 824T492 845T503 855Q511 855 523 849T536 837Q536 834 534 827T525 805Q512 782 496 769T445 756Q414 756 384 765T328
784T282 793Q265 793 256 783T240 763T227 753Z" />
<glyph unicode="&#xd6;" horiz-adv-x="731" d="M365 -6Q215 -6 136 85T57 352Q57 528 136 617T365 706Q516 706 595 617T674 352Q674 177 595 86T365 -6ZM365 70Q471 70 527 142T583 352Q583 490 527 560T365 630Q259 630 204 560T148 352Q148 214 203 142T365
70ZM447 758Q424 758 414 763T403 780V836Q403 847 413 852T447 858Q470 858 480 853T491 836V780Q491 769 481 764T447 758ZM285 758Q262 758 252 763T241 780V836Q241 847 251 852T285 858Q308 858 318 853T329 836V780Q329 769 319 764T285 758Z" />
<glyph unicode="&#xd7;" horiz-adv-x="560" d="M108 27Q101 27 92 34T75 51T67 68Q67 75 73 81L232 240L73 399Q67 405 67 412Q67 418 74 427T91 445T107 453Q114 453 120 447L280 287L440 447Q446 453 453 453Q460 453 469 445T485 428T493 412Q493 405 487 399L328
240L487 81Q493 75 493 68Q493 61 486 52T469 35T452 27Q446 27 440 33L280 193L120 33Q114 27 108 27Z" />
<glyph unicode="&#xd8;" horiz-adv-x="731" d="M95 -18Q90 -18 81 -13T65 -1T57 16Q57 20 59 23T65 31L609 697Q619 709 624 712T636 715Q642 715 651 710T667 697T674 680Q674 676 672 672T667 666L123 0Q113 -12 108 -15T95 -18ZM365 -6Q215 -6 136 85T57 352Q57
528 136 617T365 706Q516 706 595 617T674 352Q674 177 595 86T365 -6ZM365 70Q471 70 527 142T583 352Q583 490 527 560T365 630Q259 630 204 560T148 352Q148 214 203 142T365 70Z" />
<glyph unicode="&#xd9;" horiz-adv-x="712" d="M356 -6Q231 -6 159 55T87 224V680Q87 691 96 696T128 702H136Q159 702 168 697T177 680V224Q177 152 225 111T356 70Q440 70 488 111T536 224V680Q536 691 545 696T577 702H585Q608 702 617 697T626 680V224Q626
117 554 56T356 -6ZM416 752Q391 752 377 756T342 773L288 806Q262 823 255 830T248 846Q248 855 263 859T301 864Q333 864 348 860T377 841L431 784Q437 778 439 774T442 765Q442 759 435 756T416 752Z" />
<glyph unicode="&#xda;" horiz-adv-x="712" d="M356 -6Q231 -6 159 55T87 224V680Q87 691 96 696T128 702H136Q159 702 168 697T177 680V224Q177 152 225 111T356 70Q440 70 488 111T536 224V680Q536 691 545 696T577 702H585Q608 702 617 697T626 680V224Q626
117 554 56T356 -6ZM296 752Q284 752 277 755T270 765Q270 769 272 773T281 784L335 841Q348 855 364 859T411 864Q434 864 449 860T464 846Q464 838 457 831T424 806L370 773Q349 760 335 756T296 752Z" />
<glyph unicode="&#xdb;" horiz-adv-x="712" d="M356 -6Q231 -6 159 55T87 224V680Q87 691 96 696T128 702H136Q159 702 168 697T177 680V224Q177 152 225 111T356 70Q440 70 488 111T536 224V680Q536 691 545 696T577 702H585Q608 702 617 697T626 680V224Q626
117 554 56T356 -6ZM249 742Q236 742 231 745T226 754Q226 759 230 765T243 780L302 839Q308 845 314 848T331 852T356 854Q371 854 380 853T397 848T410 839L469 780Q478 771 482 765T486 754Q486 749 481 746T463 742Q453 742 446 744T427 753L356 796L286 753Q276
747 268 745T249 742Z" />
<glyph unicode="&#xdc;" horiz-adv-x="712" d="M356 -6Q231 -6 159 55T87 224V680Q87 691 96 696T128 702H136Q159 702 168 697T177 680V224Q177 152 225 111T356 70Q440 70 488 111T536 224V680Q536 691 545 696T577 702H585Q608 702 617 697T626 680V224Q626
117 554 56T356 -6ZM437 758Q414 758 404 763T393 780V836Q393 847 403 852T437 858Q460 858 470 853T481 836V780Q481 769 471 764T437 758ZM275 758Q252 758 242 763T231 780V836Q231 847 241 852T275 858Q298 858 308 853T319 836V780Q319 769 309 764T275 758Z"
/>
<glyph unicode="&#xdd;" horiz-adv-x="559" d="M275 -2Q253 -2 244 4T234 20V349L26 667Q22 672 20 676T18 685Q18 693 28 697T63 702H74Q90 702 100 699T117 687L300 402H263L448 688Q453 696 465 699T493 702H501Q523 702 532 698T541 685Q541 681 539 677T533
667L324 346V20Q324 10 315 4T283 -2H275ZM220 752Q208 752 201 755T194 765Q194 769 196 773T205 784L259 841Q272 855 288 859T335 864Q358 864 373 860T388 846Q388 838 381 831T348 806L294 773Q273 760 259 756T220 752Z" />
<glyph unicode="&#xde;" horiz-adv-x="560" d="M142 148V224H315Q387 224 419 253T451 349Q451 415 419 444T315 474H142V550H315Q428 550 485 500T542 349Q542 249 485 199T315 148H142ZM138 -2Q116 -2 107 4T97 20V680Q97 691 106 696T138 702H146Q169 702 178
697T187 680V20Q187 10 178 4T146 -2H138Z" />
<glyph unicode="&#xdf;" horiz-adv-x="554" d="M129 -2Q107 -2 99 4T90 20V501Q90 565 114 610T183 681T292 706Q351 706 394 686T461 627T485 536Q485 483 456 441T383 387V384Q426 374 455 349T499 286T514 206Q514 139 485 93T408 24T299 0H266Q247 0 247 30V42Q247
72 266 72H300Q353 72 389 107T426 206Q426 269 390 304T300 340H266Q247 340 247 370V382Q247 412 266 412H277Q330 412 364 446T398 534Q398 581 369 607T290 634Q235 634 206 599T176 501V20Q176 10 168 4T137 -2H129Z" />
<glyph unicode="&#xe0;" horiz-adv-x="545" d="M220 -6Q147 -6 98 30T49 144Q49 195 66 230T121 286T223 316T379 326V373Q379 396 369 415T336 445T271 457Q226 457 192 447T136 427T107 417Q102 417 98 422T89 435T83 453T80 469Q80 477 97 487T142 506T205
522T275 529Q320 529 355 519T415 488T452 438T465 372V150Q465 109 467 83T472 43T475 21Q475 16 469 12T454 6T435 2T417 0Q408 0 403 6T394 28T385 69Q367 48 343 31T288 4T220 -6ZM224 67Q260 67 287 77T337 102T379 136V254Q305 254 258 249T185 231T149 199T139
149Q139 109 160 88T224 67ZM321 576Q308 576 299 577T281 584T263 600L209 660Q194 677 188 686T182 702Q182 711 195 714T230 718Q251 718 263 715T281 707T292 692L332 616Q337 607 340 601T343 589Q343 583 338 580T321 576Z" />
<glyph unicode="&#xe1;" horiz-adv-x="545" d="M220 -6Q147 -6 98 30T49 144Q49 195 66 230T121 286T223 316T379 326V373Q379 396 369 415T336 445T271 457Q226 457 192 447T136 427T107 417Q102 417 98 422T89 435T83 453T80 469Q80 477 97 487T142 506T205
522T275 529Q320 529 355 519T415 488T452 438T465 372V150Q465 109 467 83T472 43T475 21Q475 16 469 12T454 6T435 2T417 0Q408 0 403 6T394 28T385 69Q367 48 343 31T288 4T220 -6ZM224 67Q260 67 287 77T337 102T379 136V254Q305 254 258 249T185 231T149 199T139
149Q139 109 160 88T224 67ZM231 576Q220 576 215 579T209 589Q209 594 212 600T220 616L260 692Q265 701 271 706T289 715T322 718Q345 718 357 715T370 702Q370 695 364 686T343 660L289 600Q280 590 272 585T254 578T231 576Z" />
<glyph unicode="&#xe2;" horiz-adv-x="545" d="M220 -6Q147 -6 98 30T49 144Q49 195 66 230T121 286T223 316T379 326V373Q379 396 369 415T336 445T271 457Q226 457 192 447T136 427T107 417Q102 417 98 422T89 435T83 453T80 469Q80 477 97 487T142 506T205
522T275 529Q320 529 355 519T415 488T452 438T465 372V150Q465 109 467 83T472 43T475 21Q475 16 469 12T454 6T435 2T417 0Q408 0 403 6T394 28T385 69Q367 48 343 31T288 4T220 -6ZM224 67Q260 67 287 77T337 102T379 136V254Q305 254 258 249T185 231T149 199T139
149Q139 109 160 88T224 67ZM177 576Q166 576 161 579T155 589Q155 594 158 600T166 616L206 692Q211 701 217 706T237 715T276 718Q301 718 314 715T335 707T346 692L386 616Q391 607 394 601T397 589Q397 583 392 580T375 576Q359 576 350 580T327 600L277 661L227
600Q214 585 204 581T177 576Z" />
<glyph unicode="&#xe3;" horiz-adv-x="545" d="M220 -6Q147 -6 98 30T49 144Q49 195 66 230T121 286T223 316T379 326V373Q379 396 369 415T336 445T271 457Q226 457 192 447T136 427T107 417Q102 417 98 422T89 435T83 453T80 469Q80 477 97 487T142 506T205
522T275 529Q320 529 355 519T415 488T452 438T465 372V150Q465 109 467 83T472 43T475 21Q475 16 469 12T454 6T435 2T417 0Q408 0 403 6T394 28T385 69Q367 48 343 31T288 4T220 -6ZM224 67Q260 67 287 77T337 102T379 136V254Q305 254 258 249T185 231T149 199T139
149Q139 109 160 88T224 67ZM141 589Q137 589 130 591T116 597T110 607Q110 610 111 613T113 620Q130 662 152 678T206 695Q230 695 254 684T302 662T350 651Q370 651 380 662T396 685T411 697Q417 697 430 691T443 678Q443 675 442 672T439 664Q420 625 399 608T347
590Q322 590 296 601T245 623T200 634Q182 634 172 623T156 600T141 589Z" />
<glyph unicode="&#xe4;" horiz-adv-x="545" d="M220 -6Q147 -6 98 30T49 144Q49 195 66 230T121 286T223 316T379 326V373Q379 396 369 415T336 445T271 457Q226 457 192 447T136 427T107 417Q102 417 98 422T89 435T83 453T80 469Q80 477 97 487T142 506T205
522T275 529Q320 529 355 519T415 488T452 438T465 372V150Q465 109 467 83T472 43T475 21Q475 16 469 12T454 6T435 2T417 0Q408 0 403 6T394 28T385 69Q367 48 343 31T288 4T220 -6ZM224 67Q260 67 287 77T337 102T379 136V254Q305 254 258 249T185 231T149 199T139
149Q139 109 160 88T224 67ZM351 597Q328 597 318 602T307 619V675Q307 686 317 691T351 697Q374 697 384 692T395 675V619Q395 608 385 603T351 597ZM201 597Q178 597 168 602T157 619V675Q157 686 167 691T201 697Q224 697 234 692T245 675V619Q245 608 235 603T201
597Z" />
<glyph unicode="&#xe5;" horiz-adv-x="545" d="M220 -6Q147 -6 98 30T49 144Q49 195 66 230T121 286T223 316T379 326V373Q379 396 369 415T336 445T271 457Q226 457 192 447T136 427T107 417Q102 417 98 422T89 435T83 453T80 469Q80 477 97 487T142 506T205
522T275 529Q320 529 355 519T415 488T452 438T465 372V150Q465 109 467 83T472 43T475 21Q475 16 469 12T454 6T435 2T417 0Q408 0 403 6T394 28T385 69Q367 48 343 31T288 4T220 -6ZM224 67Q260 67 287 77T337 102T379 136V254Q305 254 258 249T185 231T149 199T139
149Q139 109 160 88T224 67ZM276 570Q236 570 213 593T189 654Q189 693 212 716T276 739Q316 739 339 716T363 654Q363 616 340 593T276 570ZM276 617Q293 617 303 627T313 655Q313 673 303 683T276 694Q239 694 239 655Q239 617 276 617Z" />
<glyph unicode="&#xe6;" horiz-adv-x="820" d="M220 -6Q147 -6 98 28T49 134Q49 179 65 210T117 261T212 290T358 299Q360 330 366 357T382 407Q376 422 362 433T326 450T271 457Q226 457 192 447T136 427T107 417Q101 417 95 426T84 447T80 469Q80 477 97 487T142
506T205 522T275 529Q327 529 365 515T428 475Q456 501 494 515T580 529Q645 529 688 500T752 412T774 270Q774 261 769 251T756 234T739 227H443Q445 144 480 105T586 66Q631 66 662 77T711 99T735 110Q742 110 747 102T757 82T761 63Q761 54 748 43T710 20T653
1T584 -6Q521 -6 475 12T400 73Q380 51 353 33T293 5T220 -6ZM224 67Q275 67 310 86T373 130Q366 151 363 175T357 227Q286 227 243 222T178 207T147 180T139 139Q139 104 160 86T224 67ZM443 299H689Q689 378 659 417T571 457Q530 457 502 438T459 383T443 299Z"
/>
<glyph unicode="&#xe7;" horiz-adv-x="485" d="M293 -6Q177 -6 116 54T55 259Q55 389 116 459T292 529Q322 529 349 525T397 512T430 495T443 477Q443 469 439 458T429 438T416 429Q409 429 393 436T350 450T287 457Q216 457 180 408T143 261Q143 160 179 113T295
66Q329 66 356 75T401 93T425 102Q432 102 437 94T447 74T451 55Q451 46 437 35T399 15T348 0T293 -6ZM274 -210Q252 -210 225 -206T179 -193T159 -173Q159 -168 161 -161T167 -147T177 -141Q185 -141 198 -146T229 -156T271 -161Q280 -161 292 -159T315 -149T325
-126Q325 -109 314 -103T288 -94T262 -89T250 -75Q250 -71 252 -62T260 -37T273 6H316L297 -59L288 -54Q338 -54 363 -72T389 -125Q389 -162 371 -180T326 -204T274 -210Z" />
<glyph unicode="&#xe8;" horiz-adv-x="539" d="M293 -6Q178 -6 117 54T55 259Q55 346 82 406T161 497T289 529Q357 529 402 500T470 412T493 270Q493 261 488 251T475 234T458 227H143Q145 144 182 105T295 66Q343 66 376 77T429 99T454 110Q461 110 466 102T476
82T480 63Q480 54 466 43T426 20T366 1T293 -6ZM143 299H407Q407 378 374 417T280 457Q236 457 206 438T160 383T143 299ZM329 576Q316 576 307 577T289 584T271 600L217 660Q202 677 196 686T190 702Q190 711 203 714T238 718Q259 718 271 715T289 707T300 692L340
616Q345 607 348 601T351 589Q351 583 346 580T329 576Z" />
<glyph unicode="&#xe9;" horiz-adv-x="539" d="M293 -6Q178 -6 117 54T55 259Q55 346 82 406T161 497T289 529Q357 529 402 500T470 412T493 270Q493 261 488 251T475 234T458 227H143Q145 144 182 105T295 66Q343 66 376 77T429 99T454 110Q461 110 466 102T476
82T480 63Q480 54 466 43T426 20T366 1T293 -6ZM143 299H407Q407 378 374 417T280 457Q236 457 206 438T160 383T143 299ZM239 576Q228 576 223 579T217 589Q217 594 220 600T228 616L268 692Q273 701 279 706T297 715T330 718Q353 718 365 715T378 702Q378 695
372 686T351 660L297 600Q288 590 280 585T262 578T239 576Z" />
<glyph unicode="&#xea;" horiz-adv-x="539" d="M293 -6Q178 -6 117 54T55 259Q55 346 82 406T161 497T289 529Q357 529 402 500T470 412T493 270Q493 261 488 251T475 234T458 227H143Q145 144 182 105T295 66Q343 66 376 77T429 99T454 110Q461 110 466 102T476
82T480 63Q480 54 466 43T426 20T366 1T293 -6ZM143 299H407Q407 378 374 417T280 457Q236 457 206 438T160 383T143 299ZM185 576Q174 576 169 579T163 589Q163 594 166 600T174 616L214 692Q219 701 225 706T245 715T284 718Q309 718 322 715T343 707T354 692L394
616Q399 607 402 601T405 589Q405 583 400 580T383 576Q367 576 358 580T335 600L285 661L235 600Q222 585 212 581T185 576Z" />
<glyph unicode="&#xeb;" horiz-adv-x="539" d="M293 -6Q178 -6 117 54T55 259Q55 346 82 406T161 497T289 529Q357 529 402 500T470 412T493 270Q493 261 488 251T475 234T458 227H143Q145 144 182 105T295 66Q343 66 376 77T429 99T454 110Q461 110 466 102T476
82T480 63Q480 54 466 43T426 20T366 1T293 -6ZM143 299H407Q407 378 374 417T280 457Q236 457 206 438T160 383T143 299ZM359 597Q336 597 326 602T315 619V675Q315 686 325 691T359 697Q382 697 392 692T403 675V619Q403 608 393 603T359 597ZM209 597Q186 597
176 602T165 619V675Q165 686 175 691T209 697Q232 697 242 692T253 675V619Q253 608 243 603T209 597Z" />
<glyph unicode="&#xec;" horiz-adv-x="265" d="M129 -2Q107 -2 99 4T90 20V503Q90 514 98 519T129 525H137Q159 525 167 520T176 503V20Q176 10 168 4T137 -2H129ZM178 576Q165 576 156 577T138 584T120 600L66 660Q51 677 45 686T39 702Q39 711 52 714T87 718Q108
718 120 715T138 707T149 692L189 616Q194 607 197 601T200 589Q200 583 195 580T178 576Z" />
<glyph unicode="&#xed;" horiz-adv-x="265" d="M129 -2Q107 -2 99 4T90 20V503Q90 514 98 519T129 525H137Q159 525 167 520T176 503V20Q176 10 168 4T137 -2H129ZM88 576Q77 576 72 579T66 589Q66 594 69 600T77 616L117 692Q122 701 128 706T146 715T179 718Q202
718 214 715T227 702Q227 695 221 686T200 660L146 600Q137 590 129 585T111 578T88 576Z" />
<glyph unicode="&#xee;" horiz-adv-x="265" d="M129 -2Q107 -2 99 4T90 20V503Q90 514 98 519T129 525H137Q159 525 167 520T176 503V20Q176 10 168 4T137 -2H129ZM34 576Q23 576 18 579T12 589Q12 594 15 600T23 616L63 692Q68 701 74 706T94 715T133 718Q158
718 171 715T192 707T203 692L243 616Q248 607 251 601T254 589Q254 583 249 580T232 576Q216 576 207 580T184 600L134 661L84 600Q71 585 61 581T34 576Z" />
<glyph unicode="&#xef;" horiz-adv-x="265" d="M129 -2Q107 -2 99 4T90 20V503Q90 514 98 519T129 525H137Q159 525 167 520T176 503V20Q176 10 168 4T137 -2H129ZM208 597Q185 597 175 602T164 619V675Q164 686 174 691T208 697Q231 697 241 692T252 675V619Q252
608 242 603T208 597ZM58 597Q35 597 25 602T14 619V675Q14 686 24 691T58 697Q81 697 91 692T102 675V619Q102 608 92 603T58 597Z" />
<glyph unicode="&#xf0;" horiz-adv-x="569" d="M287 -6Q174 -6 115 62T55 259Q55 389 115 459T287 529Q311 529 333 525T377 511T417 489L397 474Q388 511 366 543T314 603T250 650T183 684Q174 687 170 692T165 705Q165 713 168 722T178 739T193 747Q195 747
197 747T201 746Q274 722 332 680T430 576T492 437T514 261Q514 131 457 63T287 -6ZM284 66Q358 66 392 113T426 261Q426 361 392 409T284 457Q211 457 177 410T143 261Q143 161 177 114T284 66ZM180 555Q172 555 166 566T159 587Q159 592 163 595T175 601L446
710Q451 712 452 712T455 712Q462 712 466 705T472 690T475 679Q475 674 471 672T460 666L188 557Q187 556 185 556T180 555Z" />
<glyph unicode="&#xf1;" horiz-adv-x="557" d="M129 -2Q107 -2 99 4T90 20V373Q90 414 88 440T83 481T80 502Q80 507 86 511T101 517T120 521T138 522Q147 522 152 516T161 495T170 454Q190 478 215 494T267 520T323 529Q374 529 410 510T466 454T486 367V20Q486
10 478 4T447 -2H439Q417 -2 409 4T400 20V359Q400 407 375 431T299 456Q275 456 252 448T210 424T176 386V20Q176 10 168 4T137 -2H129ZM149 589Q145 589 138 591T124 597T118 607Q118 610 119 613T121 620Q138 662 160 678T214 695Q238 695 262 684T310 662T358
651Q378 651 388 662T404 685T419 697Q425 697 438 691T451 678Q451 675 450 672T447 664Q428 625 407 608T355 590Q330 590 304 601T253 623T208 634Q190 634 180 623T164 600T149 589Z" />
<glyph unicode="&#xf2;" horiz-adv-x="569" d="M287 -6Q174 -6 115 62T55 259Q55 389 115 459T287 529Q397 529 455 460T514 259Q514 129 457 62T287 -6ZM284 66Q357 66 391 113T426 261Q426 361 392 409T284 457Q211 457 177 410T143 261Q143 161 177 114T284
66ZM330 576Q317 576 308 577T290 584T272 600L218 660Q203 677 197 686T191 702Q191 711 204 714T239 718Q260 718 272 715T290 707T301 692L341 616Q346 607 349 601T352 589Q352 583 347 580T330 576Z" />
<glyph unicode="&#xf3;" horiz-adv-x="569" d="M287 -6Q174 -6 115 62T55 259Q55 389 115 459T287 529Q397 529 455 460T514 259Q514 129 457 62T287 -6ZM284 66Q357 66 391 113T426 261Q426 361 392 409T284 457Q211 457 177 410T143 261Q143 161 177 114T284
66ZM240 576Q229 576 224 579T218 589Q218 594 221 600T229 616L269 692Q274 701 280 706T298 715T331 718Q354 718 366 715T379 702Q379 695 373 686T352 660L298 600Q289 590 281 585T263 578T240 576Z" />
<glyph unicode="&#xf4;" horiz-adv-x="569" d="M287 -6Q174 -6 115 62T55 259Q55 389 115 459T287 529Q397 529 455 460T514 259Q514 129 457 62T287 -6ZM284 66Q357 66 391 113T426 261Q426 361 392 409T284 457Q211 457 177 410T143 261Q143 161 177 114T284
66ZM186 576Q175 576 170 579T164 589Q164 594 167 600T175 616L215 692Q220 701 226 706T246 715T285 718Q310 718 323 715T344 707T355 692L395 616Q400 607 403 601T406 589Q406 583 401 580T384 576Q368 576 359 580T336 600L286 661L236 600Q223 585 213 581T186
576Z" />
<glyph unicode="&#xf5;" horiz-adv-x="569" d="M287 -6Q174 -6 115 62T55 259Q55 389 115 459T287 529Q397 529 455 460T514 259Q514 129 457 62T287 -6ZM284 66Q357 66 391 113T426 261Q426 361 392 409T284 457Q211 457 177 410T143 261Q143 161 177 114T284
66ZM150 589Q146 589 139 591T125 597T119 607Q119 610 120 613T122 620Q139 662 161 678T215 695Q239 695 263 684T311 662T359 651Q379 651 389 662T405 685T420 697Q426 697 439 691T452 678Q452 675 451 672T448 664Q429 625 408 608T356 590Q331 590 305 601T254
623T209 634Q191 634 181 623T165 600T150 589Z" />
<glyph unicode="&#xf6;" horiz-adv-x="569" d="M287 -6Q174 -6 115 62T55 259Q55 389 115 459T287 529Q397 529 455 460T514 259Q514 129 457 62T287 -6ZM284 66Q357 66 391 113T426 261Q426 361 392 409T284 457Q211 457 177 410T143 261Q143 161 177 114T284
66ZM360 597Q337 597 327 602T316 619V675Q316 686 326 691T360 697Q383 697 393 692T404 675V619Q404 608 394 603T360 597ZM210 597Q187 597 177 602T166 619V675Q166 686 176 691T210 697Q233 697 243 692T254 675V619Q254 608 244 603T210 597Z" />
<glyph unicode="&#xf7;" horiz-adv-x="560" d="M280 368Q237 368 237 390V441Q237 463 280 463Q323 463 323 441V390Q323 368 280 368ZM280 -2Q237 -2 237 20V71Q237 93 280 93Q323 93 323 71V20Q323 -2 280 -2ZM70 197Q50 197 50 227V234Q50 264 70 264H490Q510
264 510 234V227Q510 197 490 197H70Z" />
<glyph unicode="&#xf8;" horiz-adv-x="569" d="M80 -21Q73 -21 64 -16T49 -2T42 13Q42 18 45 22T53 33L466 526Q471 532 476 537T489 543Q497 543 505 538T520 525T527 509Q527 505 524 500T516 489L103 -4Q99 -10 93 -15T80 -21ZM287 -6Q174 -6 115 62T55 259Q55
389 115 459T287 529Q397 529 455 460T514 259Q514 129 457 62T287 -6ZM284 66Q357 66 391 113T426 261Q426 361 392 409T284 457Q211 457 177 410T143 261Q143 161 177 114T284 66Z" />
<glyph unicode="&#xf9;" horiz-adv-x="557" d="M230 -6Q156 -6 114 36T71 153V503Q71 514 79 519T110 525H118Q140 525 148 520T157 503V161Q157 115 181 91T254 67Q279 67 302 75T346 100T381 137V503Q381 514 389 519T420 525H428Q450 525 458 520T467 503V150Q467
109 469 83T474 43T477 21Q477 16 471 12T456 6T437 2T419 0Q410 0 405 6T396 28T387 69Q367 46 341 29T287 3T230 -6ZM312 576Q299 576 290 577T272 584T254 600L200 660Q185 677 179 686T173 702Q173 711 186 714T221 718Q242 718 254 715T272 707T283 692L323
616Q328 607 331 601T334 589Q334 583 329 580T312 576Z" />
<glyph unicode="&#xfa;" horiz-adv-x="557" d="M230 -6Q156 -6 114 36T71 153V503Q71 514 79 519T110 525H118Q140 525 148 520T157 503V161Q157 115 181 91T254 67Q279 67 302 75T346 100T381 137V503Q381 514 389 519T420 525H428Q450 525 458 520T467 503V150Q467
109 469 83T474 43T477 21Q477 16 471 12T456 6T437 2T419 0Q410 0 405 6T396 28T387 69Q367 46 341 29T287 3T230 -6ZM222 576Q211 576 206 579T200 589Q200 594 203 600T211 616L251 692Q256 701 262 706T280 715T313 718Q336 718 348 715T361 702Q361 695 355
686T334 660L280 600Q271 590 263 585T245 578T222 576Z" />
<glyph unicode="&#xfb;" horiz-adv-x="557" d="M230 -6Q156 -6 114 36T71 153V503Q71 514 79 519T110 525H118Q140 525 148 520T157 503V161Q157 115 181 91T254 67Q279 67 302 75T346 100T381 137V503Q381 514 389 519T420 525H428Q450 525 458 520T467 503V150Q467
109 469 83T474 43T477 21Q477 16 471 12T456 6T437 2T419 0Q410 0 405 6T396 28T387 69Q367 46 341 29T287 3T230 -6ZM168 576Q157 576 152 579T146 589Q146 594 149 600T157 616L197 692Q202 701 208 706T228 715T267 718Q292 718 305 715T326 707T337 692L377
616Q382 607 385 601T388 589Q388 583 383 580T366 576Q350 576 341 580T318 600L268 661L218 600Q205 585 195 581T168 576Z" />
<glyph unicode="&#xfc;" horiz-adv-x="557" d="M230 -6Q156 -6 114 36T71 153V503Q71 514 79 519T110 525H118Q140 525 148 520T157 503V161Q157 115 181 91T254 67Q279 67 302 75T346 100T381 137V503Q381 514 389 519T420 525H428Q450 525 458 520T467 503V150Q467
109 469 83T474 43T477 21Q477 16 471 12T456 6T437 2T419 0Q410 0 405 6T396 28T387 69Q367 46 341 29T287 3T230 -6ZM342 597Q319 597 309 602T298 619V675Q298 686 308 691T342 697Q365 697 375 692T386 675V619Q386 608 376 603T342 597ZM192 597Q169 597 159
602T148 619V675Q148 686 158 691T192 697Q215 697 225 692T236 675V619Q236 608 226 603T192 597Z" />
<glyph unicode="&#xfd;" horiz-adv-x="481" d="M147 -208Q131 -208 123 -204T114 -192Q114 -190 114 -188T119 -175L217 60L209 -5L24 495Q23 497 22 501T21 508Q21 516 31 520T64 525H69Q84 525 95 522T109 509L242 119H246L383 509Q386 518 397 521T424 525H427Q447
525 455 521T464 508Q464 505 464 502T461 494L202 -187Q198 -198 186 -203T155 -208H147ZM196 576Q185 576 180 579T174 589Q174 594 177 600T185 616L225 692Q230 701 236 706T254 715T287 718Q310 718 322 715T335 702Q335 695 329 686T308 660L254 600Q245
590 237 585T219 578T196 576Z" />
<glyph unicode="&#xfe;" horiz-adv-x="573" d="M129 -208Q107 -208 99 -202T90 -186V730Q90 741 98 746T129 752H137Q159 752 167 747T176 730V444H149Q169 466 190 482T233 508T278 524T324 529Q387 529 430 499T495 410T518 265Q518 186 495 125T429 29T326
-6Q299 -6 272 2T220 23T176 55V-186Q176 -196 168 -202T137 -208H129ZM309 67Q367 67 398 119T430 265Q430 364 394 409T298 455Q266 455 235 440T176 395V136Q207 102 241 85T309 67Z" />
<glyph unicode="&#xff;" horiz-adv-x="481" d="M147 -208Q131 -208 123 -204T114 -192Q114 -190 114 -188T119 -175L217 60L209 -5L24 495Q23 497 22 501T21 508Q21 516 31 520T64 525H69Q84 525 95 522T109 509L242 119H246L383 509Q386 518 397 521T424 525H427Q447
525 455 521T464 508Q464 505 464 502T461 494L202 -187Q198 -198 186 -203T155 -208H147ZM316 597Q293 597 283 602T272 619V675Q272 686 282 691T316 697Q339 697 349 692T360 675V619Q360 608 350 603T316 597ZM166 597Q143 597 133 602T122 619V675Q122 686
132 691T166 697Q189 697 199 692T210 675V619Q210 608 200 603T166 597Z" />
<glyph unicode="&#x2013;" horiz-adv-x="500" d="M65 230Q45 230 45 260V270Q45 300 65 300H435Q455 300 455 270V260Q455 230 435 230H65Z" />
<glyph unicode="&#x2014;" horiz-adv-x="1000" d="M65 230Q45 230 45 260V270Q45 300 65 300H935Q955 300 955 270V260Q955 230 935 230H65Z" />
<glyph unicode="&#x2018;" horiz-adv-x="212" d="M87 515Q68 515 58 522T47 543Q47 588 58 624T86 686T120 725T150 739Q156 739 162 738T174 733T179 724Q179 720 176 713T170 700Q159 678 152 655T140 605T136 547Q136 533 126 524T96 515H87Z" />
<glyph unicode="&#x2019;" horiz-adv-x="212" d="M125 739Q144 739 154 732T165 711Q165 666 154 630T126 568T92 529T62 515Q57 515 50 516T38 521T33 530Q33 535 36 541T42 554Q53 576 60 599T72 649T76 707Q76 721 86 730T116 739H125Z" />
<glyph unicode="&#x201a;" horiz-adv-x="212" d="M125 94Q144 94 154 87T165 66Q165 21 154 -15T126 -77T92 -116T62 -130Q57 -130 50 -129T38 -124T33 -115Q33 -110 36 -104T42 -91Q53 -69 60 -46T72 4T76 62Q76 76 86 85T116 94H125Z" />
<glyph unicode="&#x201c;" horiz-adv-x="390" d="M265 515Q246 515 236 522T225 543Q225 588 236 624T264 686T298 725T328 739Q334 739 340 738T352 733T357 724Q357 720 354 713T348 700Q337 678 330 655T318 605T314 547Q314 533 304 524T274 515H265ZM87 515Q68
515 58 522T47 543Q47 588 58 624T86 686T120 725T150 739Q156 739 162 738T174 733T179 724Q179 720 176 713T170 700Q159 678 152 655T140 605T136 547Q136 533 126 524T96 515H87Z" />
<glyph unicode="&#x201d;" horiz-adv-x="390" d="M303 739Q322 739 332 732T343 711Q343 666 332 630T304 568T270 529T240 515Q235 515 228 516T216 521T211 530Q211 535 214 541T220 554Q231 576 238 599T250 649T254 707Q254 721 264 730T294 739H303ZM125
739Q144 739 154 732T165 711Q165 666 154 630T126 568T92 529T62 515Q57 515 50 516T38 521T33 530Q33 535 36 541T42 554Q53 576 60 599T72 649T76 707Q76 721 86 730T116 739H125Z" />
<glyph unicode="&#x201e;" horiz-adv-x="390" d="M303 93Q322 93 332 86T343 65Q343 20 332 -16T304 -78T270 -117T240 -131Q235 -131 228 -130T216 -125T211 -116Q211 -111 214 -105T220 -92Q231 -70 238 -47T250 3T254 61Q254 75 264 84T294 93H303ZM125 93Q144
93 154 86T165 65Q165 20 154 -16T126 -78T92 -117T62 -131Q57 -131 50 -130T38 -125T33 -116Q33 -111 36 -105T42 -92Q53 -70 60 -47T72 3T76 61Q76 75 86 84T116 93H125Z" />
<glyph unicode="&#x2022;" horiz-adv-x="336" d="M167 287Q136 287 115 308T94 360Q94 392 115 413T167 435Q199 435 220 414T242 360Q242 329 221 308T167 287Z" />
<glyph unicode="&#x2039;" horiz-adv-x="300" d="M210 61Q204 61 199 64T188 74L58 230Q51 238 48 244T45 258Q45 265 48 271T58 286L188 442Q193 448 198 451T210 454Q216 454 224 450T239 438T245 422Q245 418 243 413T237 402L102 232V285L237 113Q241 108
243 104T245 94Q245 88 240 81T226 67T210 61Z" />
<glyph unicode="&#x203a;" horiz-adv-x="300" d="M90 454Q96 454 101 451T112 441L242 285Q249 277 252 271T255 257Q255 250 252 244T242 229L112 73Q107 67 102 64T90 61Q84 61 76 65T62 77T55 93Q55 98 57 103T63 113L198 283V230L63 402Q59 407 57 412T55
421Q55 427 60 435T74 448T90 454Z" />
</font>
</defs>
</svg>
