<?xml version="1.0" standalone="no"?>
<!DOCTYPE svg PUBLIC "-//W3C//DTD SVG 1.1//EN" "http://www.w3.org/Graphics/SVG/1.1/DTD/svg11.dtd">
<svg xmlns="http://www.w3.org/2000/svg">
<defs >
<font id="Asap" horiz-adv-x="537" ><font-face
    font-family="Asap Light"
    units-per-em="1000"
    panose-1="0 0 0 0 0 0 0 0 0 0"
    ascent="934"
    descent="-212"
    alphabetic="0" />
<glyph unicode=" " horiz-adv-x="240" />
<glyph unicode="!" horiz-adv-x="294" d="M142 202Q130 202 124 206T118 220V684Q118 693 125 697T149 702H164Q180 702 187 698T194 683L176 220Q175 211 170 207T152 202H142ZM142 -2Q125 -2 118 2T110 16V90Q110 99 117 103T142 108H152Q169 108 176 104T184
90V16Q184 7 177 3T152 -2H142Z" />
<glyph unicode="&quot;" horiz-adv-x="370" d="M95 472Q87 472 82 474T77 483L61 681Q61 693 68 697T92 702H100Q116 702 124 698T131 681L114 483Q114 477 109 475T96 472H95ZM273 472Q265 472 260 474T255 483L239 681Q239 693 246 697T270 702H278Q294 702
302 698T309 681L292 483Q292 477 287 475T274 472H273Z" />
<glyph unicode="#" horiz-adv-x="534" d="M108 -2Q96 -2 91 2T87 16L120 205H32Q14 205 14 229V240Q14 264 32 264H132L161 429H68Q50 429 50 453V464Q50 488 68 488H171L204 667Q206 677 211 681T237 686H241Q252 686 258 682T262 669L228 488H364L397 667Q399
677 404 681T429 686H434Q445 686 451 682T455 669L423 488H503Q521 488 521 464V453Q521 429 503 429H411L383 264H471Q489 264 489 240V229Q489 205 471 205H370L337 17Q336 8 330 3T305 -2H301Q289 -2 284 2T280 16L313 205H178L144 17Q142 8 137 3T112 -2H108ZM190
264H325L354 429H219L190 264Z" />
<glyph unicode="$" horiz-adv-x="500" d="M257 -71Q235 -71 235 -56V744Q235 759 257 759H262Q283 759 283 744V-56Q283 -71 262 -71H257ZM245 -6Q206 -6 172 1T110 19T63 44Q56 49 51 54T46 65Q46 70 47 76T52 89T59 100T68 105Q76 105 98 92T157 66T246 53Q291
53 323 68T372 111T390 181Q390 215 377 238T342 277T291 306T233 331Q201 345 169 360T110 397T69 450T53 529Q53 568 68 601T112 658T180 695T265 708Q291 708 317 704T367 692T407 674Q415 669 418 665T422 655Q422 651 421 645T417 631T410 620T402 615Q394
615 376 624T329 641T262 649Q222 649 191 635T141 595T122 529Q122 488 143 463T199 422T274 387Q307 373 340 357T400 319T443 263T459 181Q459 138 444 103T401 44T333 7T245 -6Z" />
<glyph unicode="%" horiz-adv-x="698" d="M154 284Q91 284 56 341T21 497Q21 596 56 652T154 709Q218 709 253 653T289 497Q289 398 254 341T154 284ZM154 327Q195 327 218 372T242 497Q242 576 219 621T154 666Q114 666 91 621T68 497Q68 418 91 373T154 327ZM155
-3Q142 -3 142 4Q142 6 143 8T146 14L510 691Q514 699 518 701T530 703H543Q556 703 556 696Q556 694 555 692T552 686L188 9Q184 2 180 0T167 -3H155ZM542 -6Q479 -6 444 51T409 207Q409 306 444 362T542 419Q606 419 641 363T677 207Q677 108 642 51T542 -6ZM542
37Q583 37 606 82T630 207Q630 286 607 331T542 376Q502 376 479 331T456 207Q456 128 479 83T542 37Z" />
<glyph unicode="&amp;" horiz-adv-x="624" d="M275 -6Q233 -6 194 6T125 42T76 105T58 195Q58 243 75 280T122 342T187 377V381Q143 398 112 440T81 539Q81 594 105 631T172 687T272 706Q293 706 314 703T349 693T364 675Q364 672 363 663T357 645T346 637Q339
637 321 642T273 648Q225 648 198 632T158 590T146 535Q146 502 162 472T210 423T288 403H413L422 512Q423 521 428 525T446 530H452Q466 530 472 526T478 512V403H578Q594 403 594 380V369Q594 346 578 346H478V118Q478 80 491 66T534 51Q561 51 573 56T593 62Q597
62 599 57T603 46T605 33T606 24Q606 15 593 9T561 -2T527 -6Q512 -6 494 -3T460 9T432 37Q419 29 396 19T342 2T275 -6ZM279 52Q307 52 335 59T387 76T428 98L423 67Q418 76 416 88T413 115V346H286Q211 346 169 306T126 195Q126 144 148 113T205 67T279 52Z"
/>
<glyph unicode="&apos;" horiz-adv-x="192" d="M95 472Q87 472 82 474T77 483L61 681Q61 693 68 697T92 702H100Q116 702 124 698T131 681L114 483Q114 477 109 475T96 472H95Z" />
<glyph unicode="(" horiz-adv-x="301" d="M263 -212Q259 -212 254 -209T245 -203Q190 -150 150 -75T87 92T64 286Q64 389 86 480T150 646T245 774Q249 778 253 780T263 783Q267 783 272 780T282 772T286 763Q286 759 285 755T278 746Q232 692 198 620T146 463T127
286Q127 194 145 110T198 -47T278 -175Q282 -179 284 -182T286 -190Q286 -194 282 -199T273 -208T263 -212Z" />
<glyph unicode=")" horiz-adv-x="301" d="M38 784Q42 784 47 781T56 775Q111 723 151 648T214 481T237 286Q237 184 215 93T151 -74T56 -202Q52 -206 48 -208T38 -211Q34 -211 29 -208T19 -200T15 -191Q15 -187 16 -183T23 -174Q69 -119 103 -47T155 109T174 286Q174
378 156 462T104 619T23 747Q20 751 18 754T15 762Q15 766 19 771T28 780T38 784Z" />
<glyph unicode="*" horiz-adv-x="373" d="M99 414Q92 414 85 420T77 434Q77 437 78 440T82 447L153 546L55 578Q48 580 45 584T41 593Q41 604 46 610T59 617Q61 617 63 617T68 616L167 584V689Q167 709 187 709Q207 709 207 689V584L306 616Q308 617 310 617T315
617Q321 617 327 611T333 594Q333 588 330 584T319 578L220 546L292 447Q297 441 297 434Q297 427 290 421T275 414Q266 414 260 423L187 524L114 423Q111 419 107 417T99 414Z" />
<glyph unicode="+" horiz-adv-x="560" d="M277 -2Q253 -2 253 15V204H67Q50 204 50 227V235Q50 258 67 258H253V446Q253 463 277 463H284Q308 463 308 446V258H493Q510 258 510 235V227Q510 204 493 204H308V15Q308 -2 284 -2H277Z" />
<glyph unicode="," horiz-adv-x="198" d="M42 -116Q36 -116 30 -113T23 -103Q23 -98 29 -89T44 -60Q50 -46 55 -28T63 18T67 87Q67 99 74 103T96 108H107Q122 108 129 104T136 87Q136 42 126 5T101 -60T71 -101T42 -116Z" />
<glyph unicode="-" horiz-adv-x="320" d="M62 237Q45 237 45 260V270Q45 293 62 293H258Q275 293 275 270V260Q275 237 258 237H62Z" />
<glyph unicode="." horiz-adv-x="198" d="M94 -2Q77 -2 70 2T62 16V90Q62 99 69 103T94 108H104Q121 108 128 104T136 90V16Q136 7 129 3T104 -2H94Z" />
<glyph unicode="/" horiz-adv-x="422" d="M47 -76Q35 -76 30 -74T25 -66Q25 -62 28 -55T35 -38L345 690Q348 697 353 700T371 703H375Q388 703 392 701T397 693Q397 689 394 682T387 665L77 -63Q74 -70 69 -73T51 -76H47Z" />
<glyph unicode="0" horiz-adv-x="535" d="M267 -6Q204 -6 154 34T73 153T43 350Q43 468 73 547T153 666T267 706Q331 706 381 666T462 547T492 350Q492 233 462 154T382 34T267 -6ZM267 50Q312 50 348 83T405 182T427 350Q427 452 406 518T348 617T267 650Q223
650 187 617T130 518T108 350Q108 248 129 182T187 83T267 50Z" />
<glyph unicode="1" horiz-adv-x="535" d="M76 0Q60 0 60 23V33Q60 56 76 56H250V667L284 638L72 600Q65 599 61 603T54 615T52 629Q52 641 55 646T68 654L290 702Q299 702 307 697T315 684V56H480Q496 56 496 33V23Q496 0 480 0H76Z" />
<glyph unicode="2" horiz-adv-x="535" d="M68 0Q62 0 59 4T55 16T53 31Q53 36 53 41T57 48L326 391Q350 420 363 443T382 486T389 528Q389 585 351 617T249 650Q200 650 169 639T120 617T93 606Q88 606 83 612T74 626T70 640Q70 648 85 659T127 680T187 698T254
706Q345 706 399 659T453 532Q453 502 445 473T420 414T373 346L142 56H444Q461 56 461 33V23Q461 0 444 0H68Z" />
<glyph unicode="3" horiz-adv-x="535" d="M232 -6Q192 -6 159 -1T100 14T61 33T47 51Q47 58 51 66T60 81T70 87Q78 87 96 78T146 60T226 50Q279 50 315 67T371 118T391 198Q391 275 346 309T221 343H169Q153 343 153 366V376Q153 389 157 394T169 399H219Q255
399 282 408T329 436T359 480T369 538Q369 567 355 592T312 634T233 650Q188 650 159 642T114 626T89 617Q84 617 79 622T71 635T67 649Q67 657 82 667T123 686T177 700T234 706Q324 706 378 663T432 536Q432 495 417 464T376 413T322 381V377Q354 369 384 347T435
288T456 200Q456 136 429 90T352 19T232 -6Z" />
<glyph unicode="4" horiz-adv-x="535" d="M378 -2Q366 -2 360 2T354 16V175H45Q41 175 37 182T30 199T28 215Q28 219 30 224T35 232L353 688Q358 695 365 698T383 702H393Q408 702 413 697T419 681V231H496Q513 231 513 208V198Q513 186 509 181T496 175H419V16Q419
7 413 3T395 -2H378ZM88 209L74 231H354V508Q354 531 355 554T359 591L335 602L368 612L88 209Z" />
<glyph unicode="5" horiz-adv-x="535" d="M231 -6Q176 -6 134 4T69 29T45 54Q45 60 48 66T55 78T64 88T72 92Q80 92 99 82T150 61T230 50Q311 50 355 92T399 213Q399 284 352 321T212 358H126Q113 358 108 364T103 383L120 674Q121 688 126 694T147 700H412Q429
700 429 677V667Q429 644 412 644H157L183 667L166 387L144 414H227Q275 414 318 403T394 369T445 307T464 213Q464 162 448 122T402 53T329 9T231 -6Z" />
<glyph unicode="6" horiz-adv-x="535" d="M269 -5Q218 -5 180 12T115 61T76 140T63 245Q63 321 82 384T133 497T202 586T275 650T341 689T384 702Q391 702 395 697T403 686T407 673T409 663Q409 661 408 658T401 652Q329 622 277 577T192 478T143 363T127 240Q127
183 140 146T174 89T221 60T273 51Q305 51 337 66T392 115T414 200Q414 252 394 283T341 329T273 343Q222 343 182 326T118 293L132 353Q160 373 200 386T290 399Q330 399 364 386T424 347T464 285T479 203Q479 155 463 117T419 52T352 10T269 -5Z" />
<glyph unicode="7" horiz-adv-x="535" d="M155 -2Q139 -2 132 1T125 11Q125 14 127 19T130 29L408 669L423 644H75Q59 644 59 667V677Q59 700 75 700H454Q461 700 465 694T472 680T474 665Q474 662 474 659T472 654L197 14Q195 9 191 6T180 0T164 -2H155Z" />
<glyph unicode="8" horiz-adv-x="535" d="M267 -6Q205 -6 158 15T83 79T56 186Q56 237 73 274T124 339T201 385L253 360Q214 345 185 321T138 265T121 191Q121 145 139 113T191 65T267 49Q310 49 343 65T395 113T414 191Q414 234 396 261T349 307T285 339T214
367T149 403T102 456T84 539Q84 593 108 630T174 686T269 706Q324 706 366 687T432 630T457 539Q457 494 439 462T391 409T326 373L269 395Q304 412 332 431T376 477T393 539Q393 595 358 623T269 651Q215 651 181 623T147 539Q147 501 165 477T212 436T278 407T349
378T413 339T461 280T479 188Q479 140 463 104T419 44T352 7T267 -6Z" />
<glyph unicode="9" horiz-adv-x="535" d="M266 702Q317 702 355 685T420 636T459 557T472 452Q472 377 453 314T402 200T333 111T260 47T195 8T151 -5Q144 -5 140 0T132 11T128 24T126 34Q126 36 127 39T134 45Q207 76 258 120T343 219T392 334T408 457Q408 515
395 551T361 608T314 637T262 646Q231 646 198 631T143 582T121 497Q121 445 141 414T194 368T262 354Q313 354 353 371T417 404L403 344Q375 324 335 311T245 298Q205 298 171 311T111 350T71 412T56 494Q56 542 72 580T116 645T183 687T266 702Z" />
<glyph unicode=":" horiz-adv-x="198" d="M94 -2Q77 -2 70 2T62 16V90Q62 99 69 103T94 108H104Q121 108 128 104T136 90V16Q136 7 129 3T104 -2H94ZM94 415Q77 415 70 419T62 433V507Q62 516 69 520T94 525H104Q121 525 128 521T136 507V433Q136 424 129 420T104
415H94Z" />
<glyph unicode=";" horiz-adv-x="198" d="M42 -116Q36 -116 30 -113T23 -103Q23 -98 29 -89T44 -60Q50 -46 55 -28T63 18T67 87Q67 99 74 103T96 108H107Q122 108 129 104T136 87Q136 42 126 5T101 -60T71 -101T42 -116ZM94 415Q77 415 70 419T62 433V507Q62 516
69 520T94 525H104Q121 525 128 521T136 507V433Q136 424 129 420T104 415H94Z" />
<glyph unicode="&lt;" horiz-adv-x="560" d="M507 9Q504 9 498 11T487 15L61 193Q50 198 47 203T44 220V233Q44 245 47 250T63 260L487 438Q491 440 497 442T507 444Q515 444 516 438T518 421V410Q518 399 516 393T500 382L90 216V238L501 71Q509 68 513 64T517
56T518 43V32Q518 22 517 16T507 9Z" />
<glyph unicode="=" horiz-adv-x="560" d="M67 387Q50 387 50 410V418Q50 441 67 441H493Q510 441 510 418V410Q510 387 493 387H67ZM67 277Q50 277 50 300V308Q50 331 67 331H493Q510 331 510 308V300Q510 277 493 277H67Z" />
<glyph unicode="&gt;" horiz-adv-x="560" d="M53 9Q45 9 44 15T42 32V43Q42 51 43 55T47 64T59 71L470 238V216L60 382Q48 387 45 393T42 410V421Q42 432 43 438T53 444Q56 444 62 442T73 438L497 260Q509 255 512 250T516 233V220Q516 209 513 204T499 193L73
15Q69 14 63 12T53 9Z" />
<glyph unicode="?" horiz-adv-x="445" d="M170 202Q157 202 152 207T147 221Q147 245 157 271T188 328T242 391Q265 414 285 437T318 487T331 544Q331 593 296 620T196 648Q158 648 129 640T82 622T56 613Q52 613 49 617T43 629T39 642T37 652Q37 660 51 669T90
687T144 701T205 706Q266 706 310 687T377 633T401 550Q401 511 388 480T354 423T307 372Q281 346 261 323T227 277T207 228Q204 214 200 208T181 202H170ZM168 -2Q152 -2 145 2T137 16V90Q137 99 144 103T168 108H179Q196 108 203 104T211 90V16Q211 7 204 3T179
-2H168Z" />
<glyph unicode="@" horiz-adv-x="974" d="M426 -126Q352 -126 292 -101T189 -27T123 87T99 237Q99 337 132 422T225 571T364 669T537 705Q612 705 674 681T781 614T850 510T875 376Q875 282 851 209T781 95T675 54Q647 54 626 65T593 98T581 152V191L596 188Q578
140 552 111T496 68T434 54Q414 54 391 62T346 90T312 144T298 233Q298 313 323 374T394 470T501 505Q543 505 572 489T616 458Q623 483 627 492T646 502H650Q661 502 665 497T668 481Q667 469 664 445T658 388T650 321T643 254T637 195T635 153Q635 130 642 119T662
103T685 98Q716 98 741 119T786 179T817 267T828 376Q828 462 791 527T689 628T537 665Q454 665 383 633T259 543T177 407T147 237Q147 139 181 66T278 -46T426 -86Q475 -86 506 -78T555 -63T580 -55Q587 -55 590 -62T594 -77Q594 -86 577 -94T532 -110T477 -121T426
-126ZM446 103Q467 103 492 116T542 163T586 256Q589 283 593 315T600 375T607 415Q592 427 567 441T504 455Q452 455 419 426T372 347T357 235Q357 160 383 132T446 103Z" />
<glyph unicode="A" horiz-adv-x="613" d="M41 -2Q26 -2 19 2T11 12Q11 15 11 18T13 24L260 686Q263 694 272 698T295 702H317Q332 702 340 698T352 686L600 23Q601 20 601 18T602 12Q602 6 595 2T572 -2H565Q552 -2 544 1T532 12L334 552Q326 573 319 594T307
636H305Q298 615 292 595T277 552L79 12Q76 4 68 1T46 -2H41ZM117 189V245H493V189H117Z" />
<glyph unicode="B" horiz-adv-x="593" d="M132 0Q108 0 108 23V677Q108 700 132 700H310Q384 700 433 679T507 618T532 523Q532 486 518 454T478 398T420 366V362Q465 352 495 329T542 271T559 192Q559 127 531 85T446 21T306 0H132ZM176 59H325Q405 59 447 93T489
192Q489 258 446 293T319 329H176V59ZM176 387H312Q381 387 421 423T462 518Q462 581 424 611T305 641H176V387Z" />
<glyph unicode="C" horiz-adv-x="619" d="M371 -6Q219 -6 144 82T68 351Q68 528 146 617T375 706Q412 706 445 700T504 685T548 665Q559 658 565 652T572 641Q572 636 570 630T565 617T557 606T548 602Q540 602 519 613T463 635T376 646Q297 646 244 615T165 517T138
350Q138 250 163 185T241 87T371 54Q414 54 446 62T502 81T539 100T558 109Q563 109 567 105T575 94T580 81T582 72Q582 64 571 54T541 34Q523 23 496 14T438 0T371 -6Z" />
<glyph unicode="D" horiz-adv-x="695" d="M132 0Q108 0 108 23V677Q108 700 132 700H329Q475 700 551 613T627 352Q627 180 551 90T329 0H132ZM176 59H329Q441 59 499 133T557 352Q557 495 499 568T329 641H176V59Z" />
<glyph unicode="E" horiz-adv-x="546" d="M132 0Q108 0 108 23V677Q108 700 132 700H480Q497 700 497 677V664Q497 641 480 641H176V387H450Q467 387 467 364V352Q467 329 450 329H176V59H481Q497 59 497 36V23Q497 0 481 0H132Z" />
<glyph unicode="F" horiz-adv-x="503" d="M138 -2Q122 -2 115 2T108 16V677Q108 700 132 700H449Q465 700 465 677V664Q465 641 449 641H176V362H431Q447 362 447 339V327Q447 304 431 304H176V16Q176 7 170 3T146 -2H138Z" />
<glyph unicode="G" horiz-adv-x="672" d="M375 -6Q221 -6 145 82T68 351Q68 528 146 617T376 706Q403 706 426 703T469 695T506 684T535 670Q553 660 562 652T572 637Q572 632 570 626T563 613T554 603T544 599Q538 599 526 606T494 622T445 639T377 646Q257 646
198 574T138 350Q138 250 164 185T243 87T375 54Q412 54 443 59T498 72T534 89L517 45V316H355Q338 316 338 339V351Q338 374 355 374H560Q584 374 584 351V68Q584 53 580 47T563 36Q534 22 503 13T440 -1T375 -6Z" />
<glyph unicode="H" horiz-adv-x="733" d="M138 -2Q122 -2 115 2T108 16V684Q108 693 115 697T138 702H146Q163 702 169 698T176 684V388H557V684Q557 693 564 697T587 702H595Q612 702 618 698T625 684V16Q625 7 619 3T595 -2H587Q571 -2 564 2T557 16V330H176V16Q176
7 170 3T146 -2H138Z" />
<glyph unicode="I" horiz-adv-x="283" d="M138 -2Q122 -2 115 2T108 16V684Q108 693 115 697T138 702H146Q163 702 169 698T176 684V16Q176 7 170 3T146 -2H138Z" />
<glyph unicode="J" horiz-adv-x="402" d="M127 -6Q108 -6 83 -2T40 10T21 29Q21 32 22 38T26 52T32 64T40 69Q47 69 57 65T85 58T130 54Q181 54 209 82T237 173V684Q237 693 244 697T267 702H275Q292 702 298 698T305 684V183Q305 91 262 43T127 -6Z" />
<glyph unicode="K" horiz-adv-x="576" d="M138 -2Q122 -2 115 2T108 16V684Q108 693 115 697T138 702H146Q163 702 169 698T176 684V377H180L454 686Q463 696 471 699T497 702H506Q519 702 526 699T533 690Q533 686 531 681T522 668L222 330V378L556 28Q561 22
564 18T567 10Q567 4 559 1T535 -2H524Q508 -2 499 1T483 11L180 329H176V16Q176 7 170 3T146 -2H138Z" />
<glyph unicode="L" horiz-adv-x="484" d="M132 0Q108 0 108 23V684Q108 693 115 697T138 702H146Q163 702 169 698T176 684V59H464Q481 59 481 36V23Q481 0 464 0H132Z" />
<glyph unicode="M" horiz-adv-x="843" d="M138 -2Q122 -2 115 2T108 16V684Q108 693 115 697T138 702H161Q178 702 186 699T199 687L397 337Q405 324 412 309T423 281Q427 295 436 311T452 339L646 687Q650 695 658 698T683 702H705Q722 702 728 698T735 684V16Q735
7 729 3T705 -2H697Q681 -2 674 2T667 16V523Q667 539 667 554T668 585L664 587Q659 575 653 563T639 540L468 234Q462 222 455 218T431 214H415Q400 214 393 218T378 234L203 544Q197 556 192 567T179 590L175 589Q176 574 176 559T176 527V16Q176 7 170 3T146
-2H138Z" />
<glyph unicode="N" horiz-adv-x="719" d="M138 -2Q122 -2 115 2T108 16V684Q108 693 115 697T138 702H156Q164 702 170 701T181 696T189 686L516 175Q524 162 532 148T549 115L553 116Q552 133 552 147T551 183V684Q551 693 558 697T581 702H589Q605 702 612 698T619
684V16Q619 7 612 3T589 -2H572Q564 -2 559 -1T549 4T542 11L211 529Q202 542 195 557T178 589L174 588Q176 571 176 557T176 520V16Q176 7 170 3T146 -2H138Z" />
<glyph unicode="O" horiz-adv-x="731" d="M365 -6Q220 -6 144 85T68 352Q68 528 144 617T365 706Q511 706 587 617T663 352Q663 177 587 86T365 -6ZM365 54Q477 54 535 130T593 352Q593 498 535 572T365 646Q254 646 196 572T138 352Q138 206 196 130T365 54Z" />
<glyph unicode="P" horiz-adv-x="570" d="M138 -2Q122 -2 115 2T108 16V677Q108 700 132 700H338Q444 700 498 650T553 503Q553 408 499 358T338 307H176V16Q176 7 170 3T146 -2H138ZM176 365H338Q413 365 448 400T484 503Q484 572 449 606T338 641H176V365Z" />
<glyph unicode="Q" horiz-adv-x="731" d="M648 -141Q644 -141 623 -134T569 -114T498 -86T422 -55T349 -26T292 -4T260 9H442V-2L659 -72Q667 -75 670 -78T674 -86Q674 -92 672 -101T667 -119T659 -134T648 -141ZM365 -6Q220 -6 144 85T68 352Q68 528 144 617T365
706Q511 706 587 617T663 352Q663 177 587 86T365 -6ZM365 54Q477 54 535 130T593 352Q593 498 535 572T365 646Q254 646 196 572T138 352Q138 206 196 130T365 54Z" />
<glyph unicode="R" horiz-adv-x="610" d="M138 -2Q122 -2 115 2T108 16V677Q108 700 132 700H338Q444 700 498 650T553 506Q553 461 538 426T493 369T426 341V337Q457 328 478 299T515 225L586 28Q588 23 589 18T590 11Q590 5 583 2T560 -2H551Q539 -2 531 2T520
14L446 222Q435 258 418 278T378 308T321 317H176V16Q176 7 170 3T146 -2H138ZM176 375H338Q413 375 448 407T484 503Q484 572 449 606T338 641H176V375Z" />
<glyph unicode="S" horiz-adv-x="500" d="M245 -6Q206 -6 172 1T110 19T63 44Q56 49 51 54T46 65Q46 70 47 76T52 89T59 100T68 105Q76 105 98 92T157 66T246 53Q291 53 323 68T372 111T390 181Q390 215 377 238T342 277T291 306T233 331Q201 345 169 360T110
397T69 450T53 529Q53 568 68 601T112 658T180 695T265 708Q291 708 317 704T367 692T407 674Q415 669 418 665T422 655Q422 651 421 645T417 631T410 620T402 615Q394 615 376 624T329 641T262 649Q222 649 191 635T141 595T122 529Q122 488 143 463T199 422T274
387Q307 373 340 357T400 319T443 263T459 181Q459 138 444 103T401 44T333 7T245 -6Z" />
<glyph unicode="T" horiz-adv-x="549" d="M270 -2Q255 -2 249 2T242 16V641H36Q20 641 20 664V677Q20 700 36 700H512Q529 700 529 677V664Q529 641 512 641H310V16Q310 7 304 3T282 -2H270Z" />
<glyph unicode="U" horiz-adv-x="712" d="M356 -6Q233 -6 166 54T98 224V684Q98 693 105 697T128 702H136Q153 702 159 698T166 684V223Q166 142 216 98T356 54Q447 54 497 98T547 223V684Q547 693 554 697T577 702H585Q602 702 608 698T615 684V224Q615 114 548
54T356 -6Z" />
<glyph unicode="V" horiz-adv-x="617" d="M298 -2Q283 -2 274 2T262 14L15 677Q14 680 14 682T13 688Q13 695 20 698T43 702H50Q63 702 71 699T83 688L309 64H313L537 688Q540 696 548 699T569 702H574Q590 702 597 699T604 688Q604 685 604 683T602 676L356 14Q353
7 344 3T320 -2H298Z" />
<glyph unicode="W" horiz-adv-x="910" d="M233 -2Q217 -2 208 3T195 18L16 674Q15 678 14 682T13 688Q13 695 20 698T42 702H52Q64 702 72 699T83 688L243 64H247L406 683Q408 693 417 697T444 702H464Q481 702 491 698T503 683L664 64H668L827 688Q829 695 837
698T859 702H868Q883 702 890 699T897 688Q897 686 896 682T894 674L716 18Q713 8 704 3T679 -2H653Q637 -2 628 3T615 18L456 625H452L296 18Q293 8 283 3T257 -2H233Z" />
<glyph unicode="X" horiz-adv-x="611" d="M67 -2Q47 -2 40 1T32 12Q32 16 35 22T42 33L265 366L63 670Q60 675 58 680T55 688Q55 696 63 699T89 702H101Q112 702 120 700T131 690L308 423L485 688Q491 696 500 699T521 702H526Q544 702 551 699T559 688Q559 684
556 678T549 667L347 369L570 30Q574 24 576 20T579 11Q579 4 571 1T545 -2H532Q520 -2 513 1T500 11L303 311L106 12Q102 4 93 1T73 -2H67Z" />
<glyph unicode="Y" horiz-adv-x="559" d="M275 -2Q259 -2 252 2T245 16V335L29 673Q25 678 24 681T22 688Q22 694 29 698T56 702H64Q76 702 84 699T98 687L297 371H265L465 688Q471 696 479 699T500 702H506Q523 702 530 698T537 688Q537 685 536 682T530 673L313
332V16Q313 7 307 3T283 -2H275Z" />
<glyph unicode="Z" horiz-adv-x="576" d="M68 0Q63 0 59 3T52 13T47 25T45 39Q45 43 46 47T51 56L460 668L478 641H71Q55 641 55 664V677Q55 700 71 700H508Q513 700 517 697T524 687T529 675T531 661Q531 657 530 653T525 644L117 33L102 59H510Q526 59 526 36V23Q526
0 510 0H68Z" />
<glyph unicode="[" horiz-adv-x="291" d="M122 -138Q98 -138 98 -116V746Q98 768 122 768H244Q261 768 261 745V739Q261 717 244 717H157V-87H244Q261 -87 261 -109V-115Q261 -138 244 -138H122Z" />
<glyph unicode="\" horiz-adv-x="422" d="M375 -76H371Q358 -76 353 -73T345 -63L35 665Q31 674 28 681T25 693Q25 698 30 700T47 703H51Q64 703 69 700T77 690L387 -38Q391 -47 394 -54T397 -66Q397 -71 393 -73T375 -76Z" />
<glyph unicode="]" horiz-adv-x="291" d="M169 768Q193 768 193 746V-116Q193 -138 169 -138H47Q30 -138 30 -115V-109Q30 -87 47 -87H134V717H47Q30 717 30 739V745Q30 768 47 768H169Z" />
<glyph unicode="^" horiz-adv-x="450" d="M80 320Q67 320 61 322T54 330Q54 333 55 336T58 345L188 666Q193 677 200 680T225 684Q242 684 250 681T262 666L392 345Q394 341 395 337T396 331Q396 326 390 323T370 320Q355 320 350 323T339 339L215 645H235L110
339Q105 326 100 323T80 320Z" />
<glyph unicode="_" horiz-adv-x="535" d="M-4 -133Q-20 -133 -20 -115V-107Q-20 -90 -4 -90H539Q555 -90 555 -107V-115Q555 -133 539 -133H-4Z" />
<glyph unicode="`" horiz-adv-x="140" d="M123 576Q114 576 107 577T94 584T79 598L28 660Q14 677 7 687T0 705Q0 712 9 715T35 718Q53 718 62 716T76 708T87 692L128 615Q134 604 137 598T140 586Q140 581 136 579T123 576Z" />
<glyph unicode="a" horiz-adv-x="545" d="M221 -6Q146 -6 101 31T56 142Q56 191 73 225T129 280T231 310T385 320V373Q385 400 375 423T338 459T263 473Q219 473 186 465T134 447T107 438Q104 438 101 441T94 451T89 464T87 476Q87 483 103 492T146 509T204 523T266
529Q311 529 346 519T403 488T438 438T450 372V150Q450 108 452 81T457 38T460 17Q460 13 457 10T447 4T434 1T420 0Q412 0 407 5T399 25T390 66Q373 48 347 32T289 5T221 -6ZM226 50Q258 50 286 59T340 84T385 119V265Q306 265 255 259T175 238T135 201T124 145Q124
99 149 75T226 50Z" />
<glyph unicode="b" horiz-adv-x="569" d="M311 -6Q270 -6 232 11T162 61Q161 50 159 39T154 16Q151 5 145 2T129 -2H125Q111 -2 106 2T100 16V734Q100 743 106 747T130 752H136Q153 752 159 748T166 734V474Q186 490 208 502T257 522T313 529Q402 529 454 461T506
262Q506 180 483 120T417 27T311 -6ZM300 49Q367 49 403 105T439 266Q439 367 404 420T300 474Q264 474 230 460T166 420V117Q195 83 230 66T300 49Z" />
<glyph unicode="c" horiz-adv-x="485" d="M293 -6Q181 -6 122 57T63 259Q63 390 122 459T293 529Q322 529 348 525T395 513T428 497T440 480Q440 475 438 466T431 451T420 445Q414 445 399 452T357 466T290 473Q209 473 170 420T130 261Q130 154 169 102T295 50Q334
50 362 59T407 77T429 87Q435 87 439 81T446 66T449 52Q449 43 436 33T400 15T350 0T293 -6Z" />
<glyph unicode="d" horiz-adv-x="565" d="M249 -6Q190 -6 148 24T85 114T63 260Q63 342 86 402T152 496T256 529Q295 529 333 516T399 478V734Q399 743 406 747T430 752H435Q450 752 457 748T465 734V150Q465 108 467 81T472 38T475 17Q475 13 471 10T461 4T448
1T435 0Q426 0 422 5T414 25T404 66Q382 43 356 27T302 2T249 -6ZM266 50Q303 50 337 68T399 117V414Q370 444 336 459T266 474Q201 474 166 419T130 260Q130 154 166 102T266 50Z" />
<glyph unicode="e" horiz-adv-x="539" d="M294 -6Q182 -6 123 57T63 259Q63 347 88 407T164 498T287 529Q352 529 396 500T462 413T485 270Q485 263 481 255T470 242T455 236H130Q131 144 171 97T295 50Q345 50 377 61T428 83T451 95Q457 95 461 89T468 74T471
60Q471 51 457 40T419 19T363 1T294 -6ZM130 291H420Q420 382 384 428T280 474Q232 474 199 453T148 391T130 291Z" />
<glyph unicode="f" horiz-adv-x="325" d="M147 -2Q131 -2 125 2T118 16V467H54Q38 467 38 490V500Q38 523 54 523H118V626Q118 671 130 699T168 742T231 756Q247 756 265 752T296 742T309 726Q309 723 309 717T307 705T302 693T296 688Q289 688 277 693T239 699Q209
699 196 684T183 626V523H282Q299 523 299 500V490Q299 467 282 467H183V16Q183 7 177 3T154 -2H147Z" />
<glyph unicode="g" horiz-adv-x="546" d="M254 -212Q194 -212 150 -199T82 -158T58 -86Q58 -55 70 -29T104 17T149 48L150 50Q131 63 119 83T106 129Q106 160 122 183T168 221Q124 239 101 276T77 362Q77 412 98 449T162 507T265 529Q279 529 292 528T318 523H494Q503
523 507 518T511 500V490Q511 467 494 467Q482 467 467 467T435 469T406 474L405 472Q419 461 429 446T445 410T451 362Q451 316 429 280T365 224T259 204Q229 204 208 197T175 175T164 139Q164 116 176 103T209 83T258 73T316 65Q369 59 405 45T460 5T479 -64Q479
-111 454 -144T379 -194T254 -212ZM264 -159Q342 -159 379 -137T417 -67Q417 -40 404 -25T367 -2T314 9T254 16T195 28Q163 13 141 -12T118 -75Q118 -104 133 -122T181 -150T264 -159ZM264 257Q302 257 330 268T373 302T389 362Q389 402 374 427T330 463T264 475Q226
475 198 464T154 427T138 362Q138 306 172 282T264 257Z" />
<glyph unicode="h" horiz-adv-x="565" d="M129 -2Q113 -2 107 2T100 16V734Q100 743 106 747T129 752H137Q153 752 159 748T166 734V461Q184 480 209 495T263 520T323 529Q372 529 406 511T458 460T476 379V16Q476 7 470 3T447 -2H440Q424 -2 418 2T411 16V375Q411
423 385 448T307 473Q281 473 255 465T206 441T166 403V16Q166 7 160 3T137 -2H129Z" />
<glyph unicode="i" horiz-adv-x="265" d="M129 -2Q113 -2 107 2T100 16V507Q100 516 106 520T129 525H137Q153 525 159 521T166 507V16Q166 7 160 3T137 -2H129ZM133 595Q114 595 107 599T99 613V681Q99 689 106 694T133 699Q151 699 158 695T166 681V613Q166
605 159 600T133 595Z" />
<glyph unicode="j" horiz-adv-x="276" d="M63 -212Q47 -212 29 -208T-2 -198T-15 -182Q-15 -179 -15 -173T-13 -161T-8 -149T-2 -144Q6 -144 18 -149T55 -155Q86 -155 98 -140T111 -82V507Q111 516 117 520T140 525H148Q164 525 170 521T177 507V-82Q177 -126
164 -155T126 -198T63 -212ZM143 595Q124 595 117 599T109 613V681Q109 689 116 694T143 699Q161 699 168 695T176 681V613Q176 605 169 600T143 595Z" />
<glyph unicode="k" horiz-adv-x="521" d="M129 -2Q113 -2 107 2T100 16V734Q100 743 106 747T129 752H137Q153 752 159 748T166 734V286H170L379 513Q383 517 387 520T398 524T413 525H425Q437 525 444 523T451 514Q451 510 447 504T438 493L217 254V286L453 28Q458
22 461 17T465 9Q465 3 458 1T434 -2H424Q409 -2 401 2T384 15L170 249H166V16Q166 7 160 3T137 -2H129Z" />
<glyph unicode="l" horiz-adv-x="297" d="M210 -6Q172 -6 147 7T109 48T96 115V734Q96 743 102 747T125 752H132Q148 752 154 748T161 734V118Q161 79 174 65T218 51Q243 51 255 56T274 62Q278 62 280 57T284 46T286 33T287 24Q287 15 274 9T243 -2T210 -6Z" />
<glyph unicode="m" horiz-adv-x="848" d="M129 -2Q113 -2 107 2T100 16V373Q100 420 98 446T93 486T90 506Q90 510 94 513T105 518T119 521T132 522Q140 522 144 517T152 498T161 457Q179 477 204 493T259 519T319 529Q349 529 375 521T422 496T455 449Q473 472
500 490T558 518T619 529Q666 529 699 511T749 460T767 379V16Q767 7 761 3T738 -2H731Q715 -2 709 2T702 16V375Q702 423 677 448T603 473Q579 473 557 466T515 447T482 422T460 396L459 426Q464 417 465 405T467 379V16Q467 7 461 3T438 -2H430Q414 -2 408 2T401
16V375Q401 423 376 448T302 473Q278 473 253 465T205 441T166 404V16Q166 7 160 3T137 -2H129Z" />
<glyph unicode="n" horiz-adv-x="557" d="M129 -2Q113 -2 107 2T100 16V373Q100 420 98 446T93 486T90 506Q90 510 94 513T105 518T119 521T132 522Q140 522 144 517T152 498T161 457Q179 477 205 493T262 519T323 529Q372 529 406 511T458 460T476 379V16Q476
7 470 3T447 -2H440Q424 -2 418 2T411 16V375Q411 423 385 448T307 473Q281 473 255 465T206 441T166 403V16Q166 7 160 3T137 -2H129Z" />
<glyph unicode="o" horiz-adv-x="569" d="M286 -6Q177 -6 120 62T63 259Q63 390 120 459T286 529Q393 529 449 460T506 259Q506 129 450 62T286 -6ZM284 50Q364 50 401 102T439 261Q439 368 402 420T284 473Q205 473 168 421T130 261Q130 154 167 102T284 50Z" />
<glyph unicode="p" horiz-adv-x="573" d="M129 -208Q113 -208 107 -204T100 -190V373Q100 420 98 446T93 486T90 506Q90 510 94 513T105 518T119 521T132 522Q140 522 144 518T151 500T160 462Q184 486 211 500T266 522T319 529Q381 529 423 499T488 409T510 263Q510
181 487 121T419 27T313 -6Q286 -6 260 1T209 22T166 53V-190Q166 -199 160 -203T137 -208H129ZM302 49Q370 49 406 104T443 263Q443 370 406 421T302 473Q266 473 231 457T166 411V117Q196 83 231 66T302 49Z" />
<glyph unicode="q" horiz-adv-x="566" d="M429 -208Q413 -208 407 -204T400 -190V62Q379 39 353 24T300 2T249 -6Q189 -6 148 24T85 114T63 260Q63 342 86 402T152 496T256 529Q298 529 335 515T405 472Q407 480 408 490T411 507Q414 519 420 522T436 525H440Q454
525 459 521T465 507V-190Q465 -199 459 -203T436 -208H429ZM266 50Q303 50 338 68T400 117V414Q369 444 335 459T266 474Q201 474 166 419T130 260Q130 157 165 104T266 50Z" />
<glyph unicode="r" horiz-adv-x="366" d="M130 -2Q115 -2 108 2T100 16V373Q100 420 98 446T93 486T90 506Q90 510 94 513T105 518T119 521T132 522Q140 522 144 517T153 497T161 455Q177 479 197 495T241 520T291 529Q312 529 326 522T341 502Q341 494 340 487T336
473T330 464T323 460Q318 460 304 464T268 469Q232 469 205 448T166 396V16Q166 7 159 3T135 -2H130Z" />
<glyph unicode="s" horiz-adv-x="413" d="M196 -9Q164 -9 137 -3T90 11T59 29T47 45Q47 50 51 59T62 75T73 83Q78 83 93 74T134 56T194 47Q246 47 273 69T301 132Q301 166 287 186T248 219T193 243Q168 252 145 263T102 290T72 331T61 390Q61 432 81 463T138 512T223
530Q246 530 266 527T303 519T330 508T340 495Q340 489 336 479T327 462T316 454Q312 454 288 464T226 475Q181 475 154 455T126 396Q126 371 136 355T167 328T217 305Q249 293 275 279T322 246T354 201T365 139Q365 95 344 62T284 10T196 -9Z" />
<glyph unicode="t" horiz-adv-x="342" d="M231 -6Q194 -6 169 7T131 48T118 115V467H55Q38 467 38 490V500Q38 523 55 523H118L126 632Q128 642 133 646T151 650H156Q171 650 177 646T183 632V523H282Q299 523 299 500V490Q299 467 282 467H183V118Q183 80 196
66T239 51Q266 51 278 56T298 62Q302 62 304 57T308 46T310 33T311 24Q311 15 298 9T266 -2T231 -6Z" />
<glyph unicode="u" horiz-adv-x="557" d="M232 -6Q160 -6 121 33T81 142V507Q81 516 87 520T110 525H117Q133 525 139 521T146 507V147Q146 99 172 75T248 50Q274 50 300 58T351 83T391 120V507Q391 516 397 520T421 525H427Q444 525 450 521T457 507V150Q457
108 459 81T464 38T467 17Q467 13 463 10T453 4T440 1T427 0Q418 0 414 5T406 25T396 66Q378 47 351 31T294 4T232 -6Z" />
<glyph unicode="v" horiz-adv-x="485" d="M231 -2Q218 -2 209 2T195 17L37 496Q36 498 35 502T34 510Q34 518 41 521T64 525H73Q84 525 92 522T103 511L243 49H247L387 511Q389 519 397 522T417 525H424Q438 525 444 522T451 510Q451 507 451 503T448 495L290
17Q287 6 278 2T254 -2H231Z" />
<glyph unicode="w" horiz-adv-x="747" d="M209 -2Q196 -2 187 2T174 17L42 495Q41 498 40 502T39 510Q39 518 46 521T69 525H75Q86 525 94 522T105 511L222 49H226L341 511Q343 519 351 522T372 525H380Q391 525 399 522T410 510L526 49H530L647 511Q649 519 657
522T677 525H682Q696 525 702 522T709 511Q709 508 708 504T706 495L573 17Q570 6 561 2T539 -2H514Q501 -2 492 2T479 17L377 423H373L269 17Q266 5 257 2T234 -2H209Z" />
<glyph unicode="x" horiz-adv-x="485" d="M60 -2Q42 -2 35 1T27 12Q27 15 30 20T37 30L200 270L50 493Q46 498 44 503T42 511Q42 519 49 522T75 525H83Q94 525 102 523T114 513L242 319L369 511Q375 519 384 522T404 525H408Q426 525 433 521T440 511Q440 507
437 502T430 492L279 271L442 30Q446 23 448 19T451 11Q451 4 443 1T418 -2H409Q397 -2 390 0T377 11L237 222L97 10Q92 3 84 1T63 -2H60Z" />
<glyph unicode="y" horiz-adv-x="481" d="M162 -208Q150 -208 143 -205T136 -195Q136 -192 137 -188T141 -177L228 46L224 -12L38 496Q37 498 36 502T35 510Q35 518 42 521T65 525H71Q83 525 90 522T101 511L245 92H249L390 511Q393 519 401 522T421 525H426Q440
525 446 522T452 510Q452 507 452 503T449 495L203 -191Q200 -200 192 -204T169 -208H162Z" />
<glyph unicode="z" horiz-adv-x="489" d="M72 0Q66 0 61 6T53 21T50 37Q50 41 51 45T57 56L372 497L385 467H81Q65 467 65 490V500Q65 523 81 523H415Q422 523 427 517T435 502T438 486Q438 482 437 478T430 467L115 26L103 56H423Q440 56 440 33V23Q440 0 423 0H72Z" />
<glyph unicode="{" horiz-adv-x="274" d="M203 -138Q170 -138 148 -129T115 -96T103 -31V145Q103 196 94 231T50 281Q39 286 34 292T29 309V321Q29 332 34 338T50 349Q85 365 94 399T103 485V661Q103 703 114 726T148 758T203 768H227Q236 768 240 763T244 745V740Q244
717 227 717H207Q179 717 170 705T161 661V470Q161 409 142 369T87 314Q122 300 141 261T161 160V-31Q161 -62 170 -74T207 -87H227Q244 -87 244 -110V-115Q244 -128 240 -133T227 -138H203Z" />
<glyph unicode="|" horiz-adv-x="250" d="M120 -140Q100 -140 100 -124V754Q100 770 120 770H130Q150 770 150 754V-124Q150 -140 130 -140H120Z" />
<glyph unicode="}" horiz-adv-x="274" d="M71 768Q104 768 126 759T159 726T171 661V485Q171 434 180 400T224 349Q235 344 240 338T245 321V309Q245 299 240 293T224 281Q189 266 180 232T171 145V-31Q171 -72 160 -95T126 -128T71 -138H47Q38 -138 34 -133T30
-115V-110Q30 -87 47 -87H67Q95 -87 104 -75T113 -31V160Q113 221 132 261T187 316Q152 330 133 369T113 470V661Q113 692 104 704T67 717H47Q30 717 30 740V745Q30 758 34 763T47 768H71Z" />
<glyph unicode="~" horiz-adv-x="560" d="M104 219Q99 219 94 221T84 226T80 233Q80 238 81 243T86 256Q92 268 102 280T130 301T174 309Q198 309 226 303T284 289T339 275T385 268Q406 268 418 274T436 289T445 303T454 310Q457 310 463 308T474 303T480 294Q480
290 479 286T475 275Q463 247 441 233T380 218Q357 218 329 224T272 239T218 254T174 261Q154 261 143 255T124 240T113 226T104 219Z" />
<glyph unicode="&#xa0;" horiz-adv-x="240" />
<glyph unicode="&#xa1;" horiz-adv-x="294" d="M152 321Q165 321 170 317T176 303V-161Q176 -170 169 -174T145 -179H130Q114 -179 107 -175T100 -160L118 303Q119 312 124 316T142 321H152ZM152 525Q169 525 176 521T184 507V433Q184 424 177 420T152 415H142Q125
415 118 419T110 433V507Q110 516 117 520T142 525H152Z" />
<glyph unicode="&#xa2;" horiz-adv-x="485" d="M291 -71Q269 -71 269 -56V574Q269 589 291 589H297Q318 589 318 574V-56Q318 -71 297 -71H291ZM293 -6Q181 -6 122 57T63 259Q63 390 122 459T293 529Q322 529 348 525T395 513T428 497T440 480Q440 475 438 466T431
451T420 445Q414 445 399 452T357 466T290 473Q209 473 170 420T130 261Q130 154 169 102T295 50Q334 50 362 59T407 77T429 87Q435 87 439 81T446 66T449 52Q449 43 436 33T400 15T350 0T293 -6Z" />
<glyph unicode="&#xa3;" horiz-adv-x="530" d="M72 0Q63 0 59 5T55 23V32Q55 41 61 45T76 55Q98 67 114 81T141 118T151 179V489Q151 559 172 607T239 681T356 706Q372 706 391 704T427 696T456 685T467 671Q467 665 465 656T459 640T447 632Q443 632 431 636T399
644T352 649Q282 649 249 611T215 492V232Q215 179 210 145T191 91T154 56H451Q460 56 464 51T468 33V23Q468 11 464 6T451 0H72ZM72 329Q63 329 59 334T55 352V362Q55 375 59 380T72 385H398Q407 385 411 380T415 362V352Q415 340 411 335T398 329H72Z" />
<glyph unicode="&#xa4;" horiz-adv-x="550" d="M276 145Q226 145 187 168T126 231T104 322Q104 374 126 414T187 477T276 500Q326 500 365 477T426 414T449 322Q449 271 427 231T365 168T276 145ZM121 142Q116 142 109 149L102 157Q95 165 95 170Q95 175 101 181L156
236L186 201L133 149Q127 142 121 142ZM154 412L102 463Q96 469 96 474Q96 480 103 487L111 494Q119 501 124 501Q129 501 135 495L186 444L154 412ZM276 192Q329 192 363 229T398 322Q398 379 364 416T276 453Q224 453 190 416T155 322Q155 266 189 229T276 192ZM429
142Q423 142 417 149L366 200L397 233L449 181Q455 175 455 170Q455 165 448 157L441 149Q434 142 429 142ZM399 414L366 447L415 495Q421 501 426 501Q431 501 439 494L447 487Q454 480 454 474Q454 469 448 463L399 414Z" />
<glyph unicode="&#xa5;" horiz-adv-x="559" d="M62 305Q46 305 46 327V337Q46 358 62 358H496Q513 358 513 337V327Q513 305 496 305H62ZM62 160Q46 160 46 182V192Q46 213 62 213H496Q513 213 513 192V182Q513 160 496 160H62ZM275 -2Q259 -2 252 2T245 16V335L29
673Q25 678 24 681T22 688Q22 694 29 698T56 702H64Q76 702 84 699T98 687L297 371H265L465 688Q471 696 479 699T500 702H506Q523 702 530 698T537 688Q537 685 536 682T530 673L313 332V16Q313 7 307 3T283 -2H275Z" />
<glyph unicode="&#xa6;" horiz-adv-x="250" d="M120 404Q100 404 100 420V754Q100 770 120 770H130Q150 770 150 754V420Q150 404 130 404H120ZM120 -140Q100 -140 100 -124V210Q100 226 120 226H130Q150 226 150 210V-124Q150 -140 130 -140H120Z" />
<glyph unicode="&#xa7;" horiz-adv-x="429" d="M209 -6Q183 -6 160 -2T118 9T90 23T79 38Q79 44 83 53T92 69T103 77Q107 77 119 70T152 57T205 50Q252 50 275 71T298 121Q298 146 287 160T258 184T219 200T177 214Q142 227 116 243T76 284T62 349Q62 388 83 424T138
482L189 454Q163 444 145 417T127 358Q127 326 143 308T183 279T236 259Q259 252 281 243T322 219T352 183T363 128Q363 80 340 51T282 8T209 -6ZM296 219L237 245Q268 255 287 283T306 343Q306 375 291 393T251 421T199 441Q176 448 153 457T111 479T82 515T70
572Q70 619 92 648T151 692T225 706Q250 706 272 702T313 692T341 678T352 666Q352 659 349 650T340 633T328 625Q324 625 312 631T280 644T230 650Q181 650 158 629T135 577Q135 546 152 530T197 504T256 484Q284 475 310 460T354 419T371 349Q371 311 351 276T296
219Z" />
<glyph unicode="&#xa8;" horiz-adv-x="225" d="M191 597Q174 597 166 601T158 615V679Q158 688 166 692T191 697Q209 697 217 693T225 679V615Q225 606 217 602T191 597ZM34 597Q16 597 8 601T0 615V679Q0 688 8 692T34 697Q51 697 59 693T67 679V615Q67 606 59
602T34 597Z" />
<glyph unicode="&#xa9;" horiz-adv-x="739" d="M369 -4Q291 -4 226 22T113 97T39 211T12 355Q12 432 38 497T113 610T226 684T369 710Q447 710 512 684T626 610T700 497T727 355Q727 277 701 212T626 98T512 23T369 -4ZM385 137Q288 137 241 188T193 348Q193 455
242 508T387 562Q419 562 444 556T485 541T501 525Q501 521 498 515T491 503T483 497Q480 497 469 504T438 517T389 524Q312 524 275 483T238 348Q238 258 274 217T385 175Q417 175 439 182T474 197T491 205Q495 205 499 200T506 188T509 179Q509 175 500 168T475
154T435 142T385 137ZM369 37Q461 37 532 78T643 191T684 355Q684 447 644 518T532 629T369 670Q278 670 207 629T96 517T55 355Q55 263 95 191T207 78T369 37Z" />
<glyph unicode="&#xaa;" horiz-adv-x="319" d="M127 441Q95 441 72 459T48 515Q48 551 69 569T127 594T210 601V624Q210 647 197 658T154 669Q120 669 100 660T76 650Q73 650 70 655T63 667T60 676Q60 681 73 688T108 700T155 706Q200 706 226 686T252 625V517Q252
486 255 471T258 452Q258 449 253 447T242 443T232 442Q223 442 219 454T213 476Q203 466 191 458T162 446T127 441ZM135 481Q157 481 176 491T210 514V565Q175 565 148 562T105 550T90 519Q90 501 101 491T135 481Z" />
<glyph unicode="&#xab;" horiz-adv-x="470" d="M211 61Q205 61 201 64T191 74L61 234Q57 240 54 246T50 258Q50 264 53 270T61 282L191 442Q196 448 200 451T211 454Q216 454 222 451T233 442T238 429Q238 426 237 422T231 412L95 237V280L231 103Q235 98 236
94T238 87Q238 82 234 76T223 66T211 61ZM381 61Q375 61 371 64T361 74L231 234Q227 240 224 246T220 258Q220 264 223 270T231 282L361 442Q366 448 370 451T381 454Q386 454 392 451T403 442T408 429Q408 426 407 422T401 412L265 237V280L401 103Q405 98 406
94T408 87Q408 82 404 76T393 66T381 61Z" />
<glyph unicode="&#xac;" horiz-adv-x="560" d="M426 77Q412 77 406 81T400 94V277H67Q50 277 50 300V308Q50 331 67 331H443Q452 331 456 326T460 308V94Q460 85 454 81T434 77H426Z" />
<glyph unicode="&#xad;" horiz-adv-x="320" d="M62 237Q45 237 45 260V270Q45 293 62 293H258Q275 293 275 270V260Q275 237 258 237H62Z" />
<glyph unicode="&#xae;" horiz-adv-x="739" d="M369 -4Q291 -4 226 22T113 97T39 211T12 355Q12 432 38 497T113 610T226 684T369 710Q447 710 512 684T626 610T700 497T727 355Q727 277 701 212T626 98T512 23T369 -4ZM369 37Q461 37 532 78T643 191T684 355Q684
447 644 518T532 629T369 670Q278 670 207 629T96 517T55 355Q55 263 95 191T207 78T369 37ZM270 145Q251 145 251 156V543Q251 559 267 559H382Q443 559 474 532T506 452Q506 412 488 387T437 351V349Q454 343 465 325T487 279L533 163Q535 160 535 158T536 153Q536
149 531 147T516 145H509Q501 145 497 147T490 155L445 270Q431 308 414 320T364 332H295V156Q295 145 274 145H270ZM295 370H383Q417 370 438 390T460 446Q460 486 442 503T382 521H295V370Z" />
<glyph unicode="&#xaf;" horiz-adv-x="256" d="M17 619Q0 619 0 642V652Q0 675 17 675H239Q256 675 256 652V642Q256 619 239 619H17Z" />
<glyph unicode="&#xb0;" horiz-adv-x="345" d="M172 441Q114 441 76 478T38 573Q38 631 76 668T172 706Q231 706 269 669T307 573Q307 515 269 478T172 441ZM172 481Q212 481 237 507T262 573Q262 613 237 639T172 666Q134 666 109 640T83 573Q83 533 108 507T172 481Z" />
<glyph unicode="&#xb1;" horiz-adv-x="560" d="M277 134Q253 134 253 150V334H67Q50 334 50 357V365Q50 388 67 388H253V576Q253 593 277 593H284Q308 593 308 576V388H493Q510 388 510 365V357Q510 334 493 334H308V150Q308 134 284 134H277ZM67 0Q50 0 50 23V31Q50
54 67 54H493Q510 54 510 31V23Q510 0 493 0H67Z" />
<glyph unicode="&#xb2;" horiz-adv-x="310" d="M35 350Q30 350 27 356T24 369Q24 372 24 374T27 381L163 573Q186 606 195 627T205 670Q205 698 186 712T134 727Q109 727 93 722T69 711T55 705Q52 705 48 709T41 721T38 732Q38 741 54 749T92 762T136 768Q188
768 219 742T250 669Q250 642 240 616T202 551L73 368L65 392H250Q262 392 262 373V367Q262 350 250 350H35Z" />
<glyph unicode="&#xb3;" horiz-adv-x="310" d="M135 344Q112 344 92 347T58 356T35 367T26 378Q26 382 29 388T35 399T41 404Q46 404 56 399T85 388T131 382Q162 382 183 392T215 420T226 465Q226 508 200 527T129 547H98Q88 547 88 563V569Q88 578 90 581T98
585H127Q155 585 173 594T202 621T212 664Q212 679 205 693T181 715T135 724Q95 724 78 715T53 705Q50 705 47 709T40 719T37 729Q37 736 53 743T92 757T136 763Q190 763 222 737T255 663Q255 626 235 604T188 572V569Q207 565 225 552T256 517T269 465Q269 408
233 376T135 344Z" />
<glyph unicode="&#xb4;" horiz-adv-x="140" d="M16 576Q8 576 4 578T0 586Q0 591 3 597T12 615L53 692Q58 702 63 707T78 715T104 718Q122 718 131 715T140 705Q140 698 133 688T112 660L61 598Q53 589 47 584T33 578T16 576Z" />
<glyph unicode="&#xb5;" horiz-adv-x="557" d="M110 -208Q94 -208 88 -204T81 -190V227L128 64Q132 40 136 13T142 -45T145 -111T146 -190Q146 -199 140 -203T117 -208H110ZM232 -6Q160 -6 121 33T81 142V507Q81 516 87 520T110 525H117Q133 525 139 521T146 507V147Q146
99 172 75T248 50Q274 50 300 58T351 83T391 120V507Q391 516 397 520T421 525H427Q444 525 450 521T457 507V150Q457 108 459 81T464 38T467 17Q467 13 463 10T453 4T440 1T427 0Q418 0 414 5T406 25T396 66Q378 47 351 31T294 4T232 -6Z" />
<glyph unicode="&#xb6;" horiz-adv-x="515" d="M243 -173Q231 -173 226 -170T221 -159V227Q156 227 110 257T40 342T15 464Q15 533 40 586T115 669T233 700H465Q481 700 481 680V669Q481 649 465 649H415V-159Q415 -166 410 -169T393 -173H383Q371 -173 366 -170T361
-159V649H275V-159Q275 -166 270 -169T253 -173H243Z" />
<glyph unicode="&#xb7;" horiz-adv-x="267" d="M133 315Q114 315 101 328T88 360Q88 380 101 393T133 406Q152 406 165 393T179 360Q179 341 166 328T133 315Z" />
<glyph unicode="&#xb8;" horiz-adv-x="212" d="M105 -210Q81 -210 57 -204T17 -190T0 -172Q0 -168 1 -162T6 -152T15 -147Q23 -147 34 -152T63 -163T106 -169Q119 -169 131 -166T152 -154T160 -132Q160 -113 149 -106T121 -95T93 -89T81 -77Q81 -73 83 -64T91
-38T104 3H141L121 -63L114 -57Q163 -60 187 -78T212 -130Q212 -161 197 -178T157 -203T105 -210Z" />
<glyph unicode="&#xb9;" horiz-adv-x="310" d="M159 348Q149 348 144 351T139 361V738L163 720L64 698Q60 698 57 702T53 713T52 724Q52 729 54 731T62 735L168 763Q174 763 179 760T184 751V361Q184 354 179 351T164 348H159Z" />
<glyph unicode="&#xba;" horiz-adv-x="337" d="M164 441Q109 441 80 474T51 572Q51 638 80 672T164 706Q219 706 246 672T274 572Q274 507 247 474T164 441ZM162 478Q199 478 216 501T233 573Q233 623 216 646T162 669Q127 669 110 646T93 573Q93 524 110 501T162 478Z" />
<glyph unicode="&#xbb;" horiz-adv-x="470" d="M259 454Q265 454 269 451T279 441L409 281Q413 275 416 270T420 257Q420 252 417 246T409 234L279 73Q274 67 270 64T259 61Q255 61 249 64T237 74T232 86Q232 90 233 94T239 103L375 279V236L239 412Q235 417 234
421T232 429Q232 434 236 440T247 450T259 454ZM89 454Q95 454 99 451T109 441L239 281Q243 275 246 270T250 257Q250 252 247 246T239 234L109 73Q104 67 100 64T89 61Q85 61 79 64T67 74T62 86Q62 90 63 94T69 103L205 279V236L69 412Q65 417 64 421T62 429Q62
434 66 440T77 450T89 454Z" />
<glyph unicode="&#xbc;" horiz-adv-x="788" d="M159 288Q149 288 144 291T139 301V678L163 660L64 638Q60 638 57 642T53 653T52 664Q52 669 54 671T62 675L168 703Q174 703 179 700T184 691V301Q184 294 179 291T164 288H159ZM200 -3Q187 -3 187 4Q187 6 188
8T191 14L555 691Q559 699 563 701T575 703H588Q601 703 601 696Q601 694 600 692T597 686L233 9Q229 2 225 0T212 -3H200ZM700 -4Q681 -4 681 9V99H501Q498 99 494 103T488 114T486 125Q486 128 488 131T492 138L677 407Q680 411 685 413T700 415H707Q717 415
721 412T725 402V137H767Q776 137 776 122V115Q776 99 767 99H725V9Q725 -4 705 -4H700ZM530 122L517 137H681V293Q681 302 681 311T682 329T684 342L671 349L691 355L530 122Z" />
<glyph unicode="&#xbd;" horiz-adv-x="788" d="M159 288Q149 288 144 291T139 301V678L163 660L64 638Q60 638 57 642T53 653T52 664Q52 669 54 671T62 675L168 703Q174 703 179 700T184 691V301Q184 294 179 291T164 288H159ZM200 -3Q187 -3 187 4Q187 6 188
8T191 14L555 691Q559 699 563 701T575 703H588Q601 703 601 696Q601 694 600 692T597 686L233 9Q229 2 225 0T212 -3H200ZM513 0Q508 0 505 6T502 19Q502 22 502 24T505 31L641 223Q664 256 673 277T683 320Q683 348 664 362T612 377Q587 377 571 372T547 361T533
355Q530 355 526 359T519 371T516 382Q516 391 532 399T570 412T614 418Q666 418 697 392T728 319Q728 292 718 266T680 201L551 18L543 42H728Q740 42 740 23V17Q740 0 728 0H513Z" />
<glyph unicode="&#xbe;" horiz-adv-x="788" d="M135 284Q112 284 92 287T58 296T35 307T26 318Q26 322 29 328T35 339T41 344Q46 344 56 339T85 328T131 322Q162 322 183 332T215 360T226 405Q226 448 200 467T129 487H98Q88 487 88 503V509Q88 518 90 521T98
525H127Q155 525 173 534T202 561T212 604Q212 619 205 633T181 655T135 664Q95 664 78 655T53 645Q50 645 47 649T40 659T37 669Q37 676 53 683T92 697T136 703Q190 703 222 677T255 603Q255 566 235 544T188 512V509Q207 505 225 492T256 457T269 405Q269 348
233 316T135 284ZM200 -3Q187 -3 187 4Q187 6 188 8T191 14L555 691Q559 699 563 701T575 703H588Q601 703 601 696Q601 694 600 692T597 686L233 9Q229 2 225 0T212 -3H200ZM700 -4Q681 -4 681 9V99H501Q498 99 494 103T488 114T486 125Q486 128 488 131T492 138L677
407Q680 411 685 413T700 415H707Q717 415 721 412T725 402V137H767Q776 137 776 122V115Q776 99 767 99H725V9Q725 -4 705 -4H700ZM530 122L517 137H681V293Q681 302 681 311T682 329T684 342L671 349L691 355L530 122Z" />
<glyph unicode="&#xbf;" horiz-adv-x="445" d="M275 321Q288 321 293 317T298 302Q298 279 288 252T257 196T203 132Q181 110 161 86T127 36T114 -21Q114 -70 149 -97T249 -125Q288 -125 317 -117T364 -99T389 -90Q393 -90 396 -94T402 -106T406 -119T408 -129Q408
-137 394 -146T355 -164T301 -178T240 -183Q179 -183 136 -164T68 -110T44 -27Q44 12 57 43T92 100T138 151Q165 177 185 200T219 246T238 295Q241 309 245 315T264 321H275ZM277 525Q293 525 300 521T308 507V433Q308 424 301 420T277 415H266Q250 415 242 419T234
433V507Q234 516 242 520T266 525H277Z" />
<glyph unicode="&#xc0;" horiz-adv-x="613" d="M41 -2Q26 -2 19 2T11 12Q11 15 11 18T13 24L260 686Q263 694 272 698T295 702H317Q332 702 340 698T352 686L600 23Q601 20 601 18T602 12Q602 6 595 2T572 -2H565Q552 -2 544 1T532 12L334 552Q326 573 319 594T307
636H305Q298 615 292 595T277 552L79 12Q76 4 68 1T46 -2H41ZM117 189V245H493V189H117ZM363 752Q345 752 333 756T303 773L251 809Q228 826 220 834T212 849Q212 856 223 860T251 864Q276 864 288 860T313 841L369 784Q375 778 379 773T383 763Q383 758 378 755T363
752Z" />
<glyph unicode="&#xc1;" horiz-adv-x="613" d="M41 -2Q26 -2 19 2T11 12Q11 15 11 18T13 24L260 686Q263 694 272 698T295 702H317Q332 702 340 698T352 686L600 23Q601 20 601 18T602 12Q602 6 595 2T572 -2H565Q552 -2 544 1T532 12L334 552Q326 573 319 594T307
636H305Q298 615 292 595T277 552L79 12Q76 4 68 1T46 -2H41ZM117 189V245H493V189H117ZM253 752Q244 752 239 755T233 763Q233 767 237 772T247 784L302 841Q316 855 328 859T364 864Q382 864 393 860T404 849Q404 843 396 835T365 809L312 773Q294 760 283 756T253
752Z" />
<glyph unicode="&#xc2;" horiz-adv-x="613" d="M41 -2Q26 -2 19 2T11 12Q11 15 11 18T13 24L260 686Q263 694 272 698T295 702H317Q332 702 340 698T352 686L600 23Q601 20 601 18T602 12Q602 6 595 2T572 -2H565Q552 -2 544 1T532 12L334 552Q326 573 319 594T307
636H305Q298 615 292 595T277 552L79 12Q76 4 68 1T46 -2H41ZM117 189V245H493V189H117ZM209 742Q199 742 195 744T190 752Q190 757 194 762T205 776L264 839Q270 845 275 848T288 852T307 854Q318 854 325 853T338 849T349 840L408 775Q416 768 420 762T424 752Q424
747 419 745T405 742Q398 742 391 745T374 755L307 803L241 755Q232 748 225 745T209 742Z" />
<glyph unicode="&#xc3;" horiz-adv-x="613" d="M41 -2Q26 -2 19 2T11 12Q11 15 11 18T13 24L260 686Q263 694 272 698T295 702H317Q332 702 340 698T352 686L600 23Q601 20 601 18T602 12Q602 6 595 2T572 -2H565Q552 -2 544 1T532 12L334 552Q326 573 319 594T307
636H305Q298 615 292 595T277 552L79 12Q76 4 68 1T46 -2H41ZM117 189V245H493V189H117ZM175 753Q171 753 165 755T154 760T149 767Q149 771 150 774T152 782Q168 817 189 829T231 842Q257 842 286 833T341 815T387 805Q404 805 413 815T428 836T438 846Q445 846
455 841T465 831Q465 828 463 821T454 800Q443 779 428 768T385 756Q356 756 327 765T273 784T229 793Q212 793 203 783T187 763T175 753Z" />
<glyph unicode="&#xc4;" horiz-adv-x="613" d="M41 -2Q26 -2 19 2T11 12Q11 15 11 18T13 24L260 686Q263 694 272 698T295 702H317Q332 702 340 698T352 686L600 23Q601 20 601 18T602 12Q602 6 595 2T572 -2H565Q552 -2 544 1T532 12L334 552Q326 573 319 594T307
636H305Q298 615 292 595T277 552L79 12Q76 4 68 1T46 -2H41ZM117 189V245H493V189H117ZM392 758Q375 758 367 762T359 776V842Q359 850 367 855T392 860Q410 860 418 855T426 842V776Q426 767 418 763T392 758ZM223 758Q205 758 197 762T189 776V842Q189 850 197
855T223 860Q240 860 248 855T256 842V776Q256 767 248 763T223 758Z" />
<glyph unicode="&#xc5;" horiz-adv-x="613" d="M41 -2Q26 -2 19 2T11 12Q11 15 11 18T13 24L260 686Q263 694 272 698T295 702H317Q332 702 340 698T352 686L600 23Q601 20 601 18T602 12Q602 6 595 2T572 -2H565Q552 -2 544 1T532 12L334 552Q326 573 319 594T307
636H305Q298 615 292 595T277 552L79 12Q76 4 68 1T46 -2H41ZM117 189V245H493V189H117ZM307 747Q268 747 244 770T219 831Q219 870 243 893T307 916Q348 916 371 893T395 831Q395 793 372 770T307 747ZM307 789Q328 789 339 800T351 831Q351 852 340 863T307 875Q287
875 276 864T264 832Q264 811 275 800T307 789Z" />
<glyph unicode="&#xc6;" horiz-adv-x="865" d="M41 -2Q26 -2 18 2T10 12Q10 15 11 17T13 24L341 684Q344 689 348 692T360 698T376 700H799Q816 700 816 677V664Q816 641 799 641H459L495 387H769Q786 387 786 364V352Q786 329 769 329H503L540 59H800Q816 59
816 36V23Q816 0 800 0H501Q489 0 484 5T477 23L392 634H388L79 12Q75 4 67 1T46 -2H41ZM145 189V245H487V189H145Z" />
<glyph unicode="&#xc7;" horiz-adv-x="619" d="M371 -6Q219 -6 144 82T68 351Q68 528 146 617T375 706Q412 706 445 700T504 685T548 665Q559 658 565 652T572 641Q572 636 570 630T565 617T557 606T548 602Q540 602 519 613T463 635T376 646Q297 646 244 615T165
517T138 350Q138 250 163 185T241 87T371 54Q414 54 446 62T502 81T539 100T558 109Q563 109 567 105T575 94T580 81T582 72Q582 64 571 54T541 34Q523 23 496 14T438 0T371 -6ZM357 -210Q333 -210 309 -204T269 -190T252 -172Q252 -168 253 -162T258 -152T267
-147Q275 -147 286 -152T315 -163T358 -169Q371 -169 383 -166T404 -154T412 -132Q412 -113 401 -106T373 -95T345 -89T333 -77Q333 -73 335 -64T343 -38T356 3H393L373 -63L366 -57Q415 -60 439 -78T464 -130Q464 -161 449 -178T409 -203T357 -210Z" />
<glyph unicode="&#xc8;" horiz-adv-x="546" d="M132 0Q108 0 108 23V677Q108 700 132 700H480Q497 700 497 677V664Q497 641 480 641H176V387H450Q467 387 467 364V352Q467 329 450 329H176V59H481Q497 59 497 36V23Q497 0 481 0H132ZM364 752Q346 752 334 756T304
773L252 809Q229 826 221 834T213 849Q213 856 224 860T252 864Q277 864 289 860T314 841L370 784Q376 778 380 773T384 763Q384 758 379 755T364 752Z" />
<glyph unicode="&#xc9;" horiz-adv-x="546" d="M132 0Q108 0 108 23V677Q108 700 132 700H480Q497 700 497 677V664Q497 641 480 641H176V387H450Q467 387 467 364V352Q467 329 450 329H176V59H481Q497 59 497 36V23Q497 0 481 0H132ZM254 752Q245 752 240 755T234
763Q234 767 238 772T248 784L303 841Q317 855 329 859T365 864Q383 864 394 860T405 849Q405 843 397 835T366 809L313 773Q295 760 284 756T254 752Z" />
<glyph unicode="&#xca;" horiz-adv-x="546" d="M132 0Q108 0 108 23V677Q108 700 132 700H480Q497 700 497 677V664Q497 641 480 641H176V387H450Q467 387 467 364V352Q467 329 450 329H176V59H481Q497 59 497 36V23Q497 0 481 0H132ZM210 742Q200 742 196 744T191
752Q191 757 195 762T206 776L265 839Q271 845 276 848T289 852T308 854Q319 854 326 853T339 849T350 840L409 775Q417 768 421 762T425 752Q425 747 420 745T406 742Q399 742 392 745T375 755L308 803L242 755Q233 748 226 745T210 742Z" />
<glyph unicode="&#xcb;" horiz-adv-x="546" d="M132 0Q108 0 108 23V677Q108 700 132 700H480Q497 700 497 677V664Q497 641 480 641H176V387H450Q467 387 467 364V352Q467 329 450 329H176V59H481Q497 59 497 36V23Q497 0 481 0H132ZM393 758Q376 758 368 762T360
776V842Q360 850 368 855T393 860Q411 860 419 855T427 842V776Q427 767 419 763T393 758ZM224 758Q206 758 198 762T190 776V842Q190 850 198 855T224 860Q241 860 249 855T257 842V776Q257 767 249 763T224 758Z" />
<glyph unicode="&#xcc;" horiz-adv-x="283" d="M138 -2Q122 -2 115 2T108 16V684Q108 693 115 697T138 702H146Q163 702 169 698T176 684V16Q176 7 170 3T146 -2H138ZM197 752Q179 752 167 756T137 773L85 809Q62 826 54 834T46 849Q46 856 57 860T85 864Q110
864 122 860T147 841L203 784Q209 778 213 773T217 763Q217 758 212 755T197 752Z" />
<glyph unicode="&#xcd;" horiz-adv-x="283" d="M138 -2Q122 -2 115 2T108 16V684Q108 693 115 697T138 702H146Q163 702 169 698T176 684V16Q176 7 170 3T146 -2H138ZM87 752Q78 752 73 755T67 763Q67 767 71 772T81 784L136 841Q150 855 162 859T198 864Q216
864 227 860T238 849Q238 843 230 835T199 809L146 773Q128 760 117 756T87 752Z" />
<glyph unicode="&#xce;" horiz-adv-x="283" d="M138 -2Q122 -2 115 2T108 16V684Q108 693 115 697T138 702H146Q163 702 169 698T176 684V16Q176 7 170 3T146 -2H138ZM44 742Q34 742 30 744T25 752Q25 757 29 762T40 776L99 839Q105 845 110 848T123 852T142 854Q153
854 160 853T173 849T184 840L243 775Q251 768 255 762T259 752Q259 747 254 745T240 742Q233 742 226 745T209 755L142 803L76 755Q67 748 60 745T44 742Z" />
<glyph unicode="&#xcf;" horiz-adv-x="283" d="M138 -2Q122 -2 115 2T108 16V684Q108 693 115 697T138 702H146Q163 702 169 698T176 684V16Q176 7 170 3T146 -2H138ZM226 758Q209 758 201 762T193 776V842Q193 850 201 855T226 860Q244 860 252 855T260 842V776Q260
767 252 763T226 758ZM57 758Q39 758 31 762T23 776V842Q23 850 31 855T57 860Q74 860 82 855T90 842V776Q90 767 82 763T57 758Z" />
<glyph unicode="&#xd0;" horiz-adv-x="695" d="M26 329Q18 329 14 334T10 352V365Q10 377 14 382T26 388H361Q370 388 373 383T377 365V352Q377 340 374 335T361 329H26ZM132 0Q108 0 108 23V677Q108 700 132 700H329Q475 700 551 613T627 352Q627 180 551 90T329
0H132ZM176 59H329Q441 59 499 133T557 352Q557 495 499 568T329 641H176V59Z" />
<glyph unicode="&#xd1;" horiz-adv-x="719" d="M138 -2Q122 -2 115 2T108 16V684Q108 693 115 697T138 702H156Q164 702 170 701T181 696T189 686L516 175Q524 162 532 148T549 115L553 116Q552 133 552 147T551 183V684Q551 693 558 697T581 702H589Q605 702
612 698T619 684V16Q619 7 612 3T589 -2H572Q564 -2 559 -1T549 4T542 11L211 529Q202 542 195 557T178 589L174 588Q176 571 176 557T176 520V16Q176 7 170 3T146 -2H138ZM232 753Q228 753 222 755T211 760T206 767Q206 771 207 774T209 782Q225 817 246 829T288
842Q314 842 343 833T398 815T444 805Q461 805 470 815T485 836T495 846Q502 846 512 841T522 831Q522 828 520 821T511 800Q500 779 485 768T442 756Q413 756 384 765T330 784T286 793Q269 793 260 783T244 763T232 753Z" />
<glyph unicode="&#xd2;" horiz-adv-x="731" d="M365 -6Q220 -6 144 85T68 352Q68 528 144 617T365 706Q511 706 587 617T663 352Q663 177 587 86T365 -6ZM365 54Q477 54 535 130T593 352Q593 498 535 572T365 646Q254 646 196 572T138 352Q138 206 196 130T365
54ZM421 752Q403 752 391 756T361 773L309 809Q286 826 278 834T270 849Q270 856 281 860T309 864Q334 864 346 860T371 841L427 784Q433 778 437 773T441 763Q441 758 436 755T421 752Z" />
<glyph unicode="&#xd3;" horiz-adv-x="731" d="M365 -6Q220 -6 144 85T68 352Q68 528 144 617T365 706Q511 706 587 617T663 352Q663 177 587 86T365 -6ZM365 54Q477 54 535 130T593 352Q593 498 535 572T365 646Q254 646 196 572T138 352Q138 206 196 130T365
54ZM311 752Q302 752 297 755T291 763Q291 767 295 772T305 784L360 841Q374 855 386 859T422 864Q440 864 451 860T462 849Q462 843 454 835T423 809L370 773Q352 760 341 756T311 752Z" />
<glyph unicode="&#xd4;" horiz-adv-x="731" d="M365 -6Q220 -6 144 85T68 352Q68 528 144 617T365 706Q511 706 587 617T663 352Q663 177 587 86T365 -6ZM365 54Q477 54 535 130T593 352Q593 498 535 572T365 646Q254 646 196 572T138 352Q138 206 196 130T365
54ZM268 742Q258 742 254 744T249 752Q249 757 253 762T264 776L323 839Q329 845 334 848T347 852T366 854Q377 854 384 853T397 849T408 840L467 775Q475 768 479 762T483 752Q483 747 478 745T464 742Q457 742 450 745T433 755L366 803L300 755Q291 748 284 745T268
742Z" />
<glyph unicode="&#xd5;" horiz-adv-x="731" d="M365 -6Q220 -6 144 85T68 352Q68 528 144 617T365 706Q511 706 587 617T663 352Q663 177 587 86T365 -6ZM365 54Q477 54 535 130T593 352Q593 498 535 572T365 646Q254 646 196 572T138 352Q138 206 196 130T365
54ZM234 753Q230 753 224 755T213 760T208 767Q208 771 209 774T211 782Q227 817 248 829T290 842Q316 842 345 833T400 815T446 805Q463 805 472 815T487 836T497 846Q504 846 514 841T524 831Q524 828 522 821T513 800Q502 779 487 768T444 756Q415 756 386 765T332
784T288 793Q271 793 262 783T246 763T234 753Z" />
<glyph unicode="&#xd6;" horiz-adv-x="731" d="M365 -6Q220 -6 144 85T68 352Q68 528 144 617T365 706Q511 706 587 617T663 352Q663 177 587 86T365 -6ZM365 54Q477 54 535 130T593 352Q593 498 535 572T365 646Q254 646 196 572T138 352Q138 206 196 130T365
54ZM450 758Q433 758 425 762T417 776V842Q417 850 425 855T450 860Q468 860 476 855T484 842V776Q484 767 476 763T450 758ZM281 758Q263 758 255 762T247 776V842Q247 850 255 855T281 860Q298 860 306 855T314 842V776Q314 767 306 763T281 758Z" />
<glyph unicode="&#xd7;" horiz-adv-x="560" d="M100 27Q94 27 87 33T73 46T67 60Q67 65 73 70L242 240L73 409Q67 414 67 420Q67 425 73 432T86 446T99 453Q104 453 110 448L280 277L450 448Q456 453 461 453Q466 453 473 447T487 433T493 420Q493 414 487 409L318
240L487 70Q493 65 493 60Q493 54 487 47T474 33T460 27Q455 27 450 32L280 202L110 32Q105 27 100 27Z" />
<glyph unicode="&#xd8;" horiz-adv-x="731" d="M93 -18Q89 -18 81 -14T67 -3T61 11Q61 14 63 17T69 25L617 701Q624 710 628 712T638 715Q644 715 651 711T664 700T670 686Q670 682 668 679T663 673L115 -3Q107 -12 103 -15T93 -18ZM365 -6Q220 -6 144 85T68 352Q68
528 144 617T365 706Q511 706 587 617T663 352Q663 177 587 86T365 -6ZM365 54Q477 54 535 130T593 352Q593 498 535 572T365 646Q254 646 196 572T138 352Q138 206 196 130T365 54Z" />
<glyph unicode="&#xd9;" horiz-adv-x="712" d="M356 -6Q233 -6 166 54T98 224V684Q98 693 105 697T128 702H136Q153 702 159 698T166 684V223Q166 142 216 98T356 54Q447 54 497 98T547 223V684Q547 693 554 697T577 702H585Q602 702 608 698T615 684V224Q615
114 548 54T356 -6ZM411 752Q393 752 381 756T351 773L299 809Q276 826 268 834T260 849Q260 856 271 860T299 864Q324 864 336 860T361 841L417 784Q423 778 427 773T431 763Q431 758 426 755T411 752Z" />
<glyph unicode="&#xda;" horiz-adv-x="712" d="M356 -6Q233 -6 166 54T98 224V684Q98 693 105 697T128 702H136Q153 702 159 698T166 684V223Q166 142 216 98T356 54Q447 54 497 98T547 223V684Q547 693 554 697T577 702H585Q602 702 608 698T615 684V224Q615
114 548 54T356 -6ZM301 752Q292 752 287 755T281 763Q281 767 285 772T295 784L350 841Q364 855 376 859T412 864Q430 864 441 860T452 849Q452 843 444 835T413 809L360 773Q342 760 331 756T301 752Z" />
<glyph unicode="&#xdb;" horiz-adv-x="712" d="M356 -6Q233 -6 166 54T98 224V684Q98 693 105 697T128 702H136Q153 702 159 698T166 684V223Q166 142 216 98T356 54Q447 54 497 98T547 223V684Q547 693 554 697T577 702H585Q602 702 608 698T615 684V224Q615
114 548 54T356 -6ZM258 742Q248 742 244 744T239 752Q239 757 243 762T254 776L313 839Q319 845 324 848T337 852T356 854Q367 854 374 853T387 849T398 840L457 775Q465 768 469 762T473 752Q473 747 468 745T454 742Q447 742 440 745T423 755L356 803L290 755Q281
748 274 745T258 742Z" />
<glyph unicode="&#xdc;" horiz-adv-x="712" d="M356 -6Q233 -6 166 54T98 224V684Q98 693 105 697T128 702H136Q153 702 159 698T166 684V223Q166 142 216 98T356 54Q447 54 497 98T547 223V684Q547 693 554 697T577 702H585Q602 702 608 698T615 684V224Q615
114 548 54T356 -6ZM440 758Q423 758 415 762T407 776V842Q407 850 415 855T440 860Q458 860 466 855T474 842V776Q474 767 466 763T440 758ZM271 758Q253 758 245 762T237 776V842Q237 850 245 855T271 860Q288 860 296 855T304 842V776Q304 767 296 763T271 758Z"
/>
<glyph unicode="&#xdd;" horiz-adv-x="559" d="M275 -2Q259 -2 252 2T245 16V335L29 673Q25 678 24 681T22 688Q22 694 29 698T56 702H64Q76 702 84 699T98 687L297 371H265L465 688Q471 696 479 699T500 702H506Q523 702 530 698T537 688Q537 685 536 682T530
673L313 332V16Q313 7 307 3T283 -2H275ZM225 752Q216 752 211 755T205 763Q205 767 209 772T219 784L274 841Q288 855 300 859T336 864Q354 864 365 860T376 849Q376 843 368 835T337 809L284 773Q266 760 255 756T225 752Z" />
<glyph unicode="&#xde;" horiz-adv-x="560" d="M142 153V211H328Q403 211 438 246T474 349Q474 418 439 452T328 487H142V546H328Q434 546 488 496T543 349Q543 254 489 204T328 153H142ZM138 -2Q122 -2 115 2T108 16V684Q108 693 115 697T138 702H146Q163 702
169 698T176 684V16Q176 7 170 3T146 -2H138Z" />
<glyph unicode="&#xdf;" horiz-adv-x="554" d="M129 -2Q113 -2 107 2T100 16V511Q100 571 123 615T189 682T292 706Q350 706 392 686T457 627T480 534Q480 477 452 436T378 384V381Q420 371 449 346T493 283T509 202Q509 137 481 92T405 24T293 0H266Q250 0 250
23V33Q250 56 266 56H294Q359 56 400 94T441 202Q441 270 402 309T298 348H266Q250 348 250 371V381Q250 404 266 404H285Q343 404 378 438T413 533Q413 587 380 618T291 650Q232 650 199 613T166 511V16Q166 7 160 3T137 -2H129Z" />
<glyph unicode="&#xe0;" horiz-adv-x="545" d="M221 -6Q146 -6 101 31T56 142Q56 191 73 225T129 280T231 310T385 320V373Q385 400 375 423T338 459T263 473Q219 473 186 465T134 447T107 438Q104 438 101 441T94 451T89 464T87 476Q87 483 103 492T146 509T204
523T266 529Q311 529 346 519T403 488T438 438T450 372V150Q450 108 452 81T457 38T460 17Q460 13 457 10T447 4T434 1T420 0Q412 0 407 5T399 25T390 66Q373 48 347 32T289 5T221 -6ZM226 50Q258 50 286 59T340 84T385 119V265Q306 265 255 259T175 238T135 201T124
145Q124 99 149 75T226 50ZM308 576Q299 576 292 577T279 584T264 598L213 660Q199 677 192 687T185 705Q185 712 194 715T220 718Q238 718 247 716T261 708T272 692L313 615Q319 604 322 598T325 586Q325 581 321 579T308 576Z" />
<glyph unicode="&#xe1;" horiz-adv-x="545" d="M221 -6Q146 -6 101 31T56 142Q56 191 73 225T129 280T231 310T385 320V373Q385 400 375 423T338 459T263 473Q219 473 186 465T134 447T107 438Q104 438 101 441T94 451T89 464T87 476Q87 483 103 492T146 509T204
523T266 529Q311 529 346 519T403 488T438 438T450 372V150Q450 108 452 81T457 38T460 17Q460 13 457 10T447 4T434 1T420 0Q412 0 407 5T399 25T390 66Q373 48 347 32T289 5T221 -6ZM226 50Q258 50 286 59T340 84T385 119V265Q306 265 255 259T175 238T135 201T124
145Q124 99 149 75T226 50ZM231 576Q223 576 219 578T215 586Q215 591 218 597T227 615L268 692Q273 702 278 707T293 715T319 718Q337 718 346 715T355 705Q355 698 348 688T327 660L276 598Q268 589 262 584T248 578T231 576Z" />
<glyph unicode="&#xe2;" horiz-adv-x="545" d="M221 -6Q146 -6 101 31T56 142Q56 191 73 225T129 280T231 310T385 320V373Q385 400 375 423T338 459T263 473Q219 473 186 465T134 447T107 438Q104 438 101 441T94 451T89 464T87 476Q87 483 103 492T146 509T204
523T266 529Q311 529 346 519T403 488T438 438T450 372V150Q450 108 452 81T457 38T460 17Q460 13 457 10T447 4T434 1T420 0Q412 0 407 5T399 25T390 66Q373 48 347 32T289 5T221 -6ZM226 50Q258 50 286 59T340 84T385 119V265Q306 265 255 259T175 238T135 201T124
145Q124 99 149 75T226 50ZM177 576Q169 576 165 578T161 586Q161 591 165 599T173 615L214 692Q219 702 224 707T240 715T270 718Q289 718 299 716T315 708T326 692L367 615Q373 604 376 598T379 586Q379 581 375 579T362 576Q350 576 342 580T323 598L270 668L217
598Q207 584 199 580T177 576Z" />
<glyph unicode="&#xe3;" horiz-adv-x="545" d="M221 -6Q146 -6 101 31T56 142Q56 191 73 225T129 280T231 310T385 320V373Q385 400 375 423T338 459T263 473Q219 473 186 465T134 447T107 438Q104 438 101 441T94 451T89 464T87 476Q87 483 103 492T146 509T204
523T266 529Q311 529 346 519T403 488T438 438T450 372V150Q450 108 452 81T457 38T460 17Q460 13 457 10T447 4T434 1T420 0Q412 0 407 5T399 25T390 66Q373 48 347 32T289 5T221 -6ZM226 50Q258 50 286 59T340 84T385 119V265Q306 265 255 259T175 238T135 201T124
145Q124 99 149 75T226 50ZM140 596Q136 596 130 597T119 602T114 610Q114 613 115 616T117 623Q133 662 155 676T202 691Q225 691 250 681T299 659T343 648Q362 648 371 659T387 682T400 694Q406 694 416 689T426 679Q426 676 425 672T419 658Q403 627 385 613T340
598Q316 598 290 609T241 631T198 642Q180 642 170 631T153 608T140 596Z" />
<glyph unicode="&#xe4;" horiz-adv-x="545" d="M221 -6Q146 -6 101 31T56 142Q56 191 73 225T129 280T231 310T385 320V373Q385 400 375 423T338 459T263 473Q219 473 186 465T134 447T107 438Q104 438 101 441T94 451T89 464T87 476Q87 483 103 492T146 509T204
523T266 529Q311 529 346 519T403 488T438 438T450 372V150Q450 108 452 81T457 38T460 17Q460 13 457 10T447 4T434 1T420 0Q412 0 407 5T399 25T390 66Q373 48 347 32T289 5T221 -6ZM226 50Q258 50 286 59T340 84T385 119V265Q306 265 255 259T175 238T135 201T124
145Q124 99 149 75T226 50ZM348 597Q331 597 323 601T315 615V679Q315 688 323 692T348 697Q366 697 374 693T382 679V615Q382 606 374 602T348 597ZM191 597Q173 597 165 601T157 615V679Q157 688 165 692T191 697Q208 697 216 693T224 679V615Q224 606 216 602T191
597Z" />
<glyph unicode="&#xe5;" horiz-adv-x="545" d="M221 -6Q146 -6 101 31T56 142Q56 191 73 225T129 280T231 310T385 320V373Q385 400 375 423T338 459T263 473Q219 473 186 465T134 447T107 438Q104 438 101 441T94 451T89 464T87 476Q87 483 103 492T146 509T204
523T266 529Q311 529 346 519T403 488T438 438T450 372V150Q450 108 452 81T457 38T460 17Q460 13 457 10T447 4T434 1T420 0Q412 0 407 5T399 25T390 66Q373 48 347 32T289 5T221 -6ZM226 50Q258 50 286 59T340 84T385 119V265Q306 265 255 259T175 238T135 201T124
145Q124 99 149 75T226 50ZM269 570Q230 570 207 593T183 654Q183 693 206 716T269 739Q309 739 332 716T356 654Q356 616 333 593T269 570ZM269 610Q290 610 301 622T313 655Q313 676 302 688T269 701Q226 701 226 655Q226 610 269 610Z" />
<glyph unicode="&#xe6;" horiz-adv-x="820" d="M219 -6Q145 -6 101 28T56 130Q56 173 72 203T125 253T221 281T365 291Q367 324 372 353T388 405Q382 425 368 440T328 464T263 473Q219 473 186 465T134 447T107 438Q103 438 98 444T90 460T87 476Q87 483 103 492T146
509T204 523T266 529Q323 529 362 512T423 464Q450 496 488 512T578 529Q640 529 681 500T744 413T766 270Q766 263 762 255T751 242T736 236H430Q431 144 469 97T586 50Q633 50 663 61T710 83T732 95Q738 95 742 89T749 74T752 60Q752 51 739 40T703 19T650 1T585
-6Q524 -6 480 14T408 75Q389 54 360 36T295 6T219 -6ZM224 50Q272 50 313 70T386 120Q376 144 371 173T365 236Q290 236 243 230T170 211T134 179T124 133Q124 92 148 71T224 50ZM430 291H701Q701 382 668 428T571 474Q526 474 495 453T447 391T430 291Z" />
<glyph unicode="&#xe7;" horiz-adv-x="485" d="M293 -6Q181 -6 122 57T63 259Q63 390 122 459T293 529Q322 529 348 525T395 513T428 497T440 480Q440 475 438 466T431 451T420 445Q414 445 399 452T357 466T290 473Q209 473 170 420T130 261Q130 154 169 102T295
50Q334 50 362 59T407 77T429 87Q435 87 439 81T446 66T449 52Q449 43 436 33T400 15T350 0T293 -6ZM278 -210Q254 -210 230 -204T190 -190T173 -172Q173 -168 174 -162T179 -152T188 -147Q196 -147 207 -152T236 -163T279 -169Q292 -169 304 -166T325 -154T333
-132Q333 -113 322 -106T294 -95T266 -89T254 -77Q254 -73 256 -64T264 -38T277 3H314L294 -63L287 -57Q336 -60 360 -78T385 -130Q385 -161 370 -178T330 -203T278 -210Z" />
<glyph unicode="&#xe8;" horiz-adv-x="539" d="M294 -6Q182 -6 123 57T63 259Q63 347 88 407T164 498T287 529Q352 529 396 500T462 413T485 270Q485 263 481 255T470 242T455 236H130Q131 144 171 97T295 50Q345 50 377 61T428 83T451 95Q457 95 461 89T468 74T471
60Q471 51 457 40T419 19T363 1T294 -6ZM130 291H420Q420 382 384 428T280 474Q232 474 199 453T148 391T130 291ZM319 576Q310 576 303 577T290 584T275 598L224 660Q210 677 203 687T196 705Q196 712 205 715T231 718Q249 718 258 716T272 708T283 692L324 615Q330
604 333 598T336 586Q336 581 332 579T319 576Z" />
<glyph unicode="&#xe9;" horiz-adv-x="539" d="M294 -6Q182 -6 123 57T63 259Q63 347 88 407T164 498T287 529Q352 529 396 500T462 413T485 270Q485 263 481 255T470 242T455 236H130Q131 144 171 97T295 50Q345 50 377 61T428 83T451 95Q457 95 461 89T468 74T471
60Q471 51 457 40T419 19T363 1T294 -6ZM130 291H420Q420 382 384 428T280 474Q232 474 199 453T148 391T130 291ZM241 576Q233 576 229 578T225 586Q225 591 228 597T237 615L278 692Q283 702 288 707T303 715T329 718Q347 718 356 715T365 705Q365 698 358 688T337
660L286 598Q278 589 272 584T258 578T241 576Z" />
<glyph unicode="&#xea;" horiz-adv-x="539" d="M294 -6Q182 -6 123 57T63 259Q63 347 88 407T164 498T287 529Q352 529 396 500T462 413T485 270Q485 263 481 255T470 242T455 236H130Q131 144 171 97T295 50Q345 50 377 61T428 83T451 95Q457 95 461 89T468 74T471
60Q471 51 457 40T419 19T363 1T294 -6ZM130 291H420Q420 382 384 428T280 474Q232 474 199 453T148 391T130 291ZM187 576Q179 576 175 578T171 586Q171 591 175 599T183 615L224 692Q229 702 234 707T250 715T280 718Q299 718 309 716T325 708T336 692L377 615Q383
604 386 598T389 586Q389 581 385 579T372 576Q360 576 352 580T333 598L280 668L227 598Q217 584 209 580T187 576Z" />
<glyph unicode="&#xeb;" horiz-adv-x="539" d="M294 -6Q182 -6 123 57T63 259Q63 347 88 407T164 498T287 529Q352 529 396 500T462 413T485 270Q485 263 481 255T470 242T455 236H130Q131 144 171 97T295 50Q345 50 377 61T428 83T451 95Q457 95 461 89T468 74T471
60Q471 51 457 40T419 19T363 1T294 -6ZM130 291H420Q420 382 384 428T280 474Q232 474 199 453T148 391T130 291ZM359 597Q342 597 334 601T326 615V679Q326 688 334 692T359 697Q377 697 385 693T393 679V615Q393 606 385 602T359 597ZM202 597Q184 597 176 601T168
615V679Q168 688 176 692T202 697Q219 697 227 693T235 679V615Q235 606 227 602T202 597Z" />
<glyph unicode="&#xec;" horiz-adv-x="265" d="M129 -2Q113 -2 107 2T100 16V507Q100 516 106 520T129 525H137Q153 525 159 521T166 507V16Q166 7 160 3T137 -2H129ZM172 576Q163 576 156 577T143 584T128 598L77 660Q63 677 56 687T49 705Q49 712 58 715T84
718Q102 718 111 716T125 708T136 692L177 615Q183 604 186 598T189 586Q189 581 185 579T172 576Z" />
<glyph unicode="&#xed;" horiz-adv-x="265" d="M129 -2Q113 -2 107 2T100 16V507Q100 516 106 520T129 525H137Q153 525 159 521T166 507V16Q166 7 160 3T137 -2H129ZM94 576Q86 576 82 578T78 586Q78 591 81 597T90 615L131 692Q136 702 141 707T156 715T182
718Q200 718 209 715T218 705Q218 698 211 688T190 660L139 598Q131 589 125 584T111 578T94 576Z" />
<glyph unicode="&#xee;" horiz-adv-x="265" d="M129 -2Q113 -2 107 2T100 16V507Q100 516 106 520T129 525H137Q153 525 159 521T166 507V16Q166 7 160 3T137 -2H129ZM40 576Q32 576 28 578T24 586Q24 591 28 599T36 615L77 692Q82 702 87 707T103 715T133 718Q152
718 162 716T178 708T189 692L230 615Q236 604 239 598T242 586Q242 581 238 579T225 576Q213 576 205 580T186 598L133 668L80 598Q70 584 62 580T40 576Z" />
<glyph unicode="&#xef;" horiz-adv-x="265" d="M129 -2Q113 -2 107 2T100 16V507Q100 516 106 520T129 525H137Q153 525 159 521T166 507V16Q166 7 160 3T137 -2H129ZM211 597Q194 597 186 601T178 615V679Q178 688 186 692T211 697Q229 697 237 693T245 679V615Q245
606 237 602T211 597ZM54 597Q36 597 28 601T20 615V679Q20 688 28 692T54 697Q71 697 79 693T87 679V615Q87 606 79 602T54 597Z" />
<glyph unicode="&#xf0;" horiz-adv-x="569" d="M286 -6Q177 -6 120 62T63 259Q63 390 120 459T286 529Q312 529 338 523T386 505T424 476L413 465Q399 509 376 545T324 611T260 660T191 695Q179 700 175 704T170 715Q170 722 173 729T181 741T192 747Q195 747
198 747T206 744Q274 721 329 679T424 576T485 437T506 260Q506 130 450 62T286 -6ZM284 50Q364 50 401 102T439 261Q439 368 402 420T284 473Q205 473 168 421T130 261Q130 154 167 102T284 50ZM180 558Q173 558 168 568T162 586Q162 590 165 592T176 598L443
706Q449 709 451 709T455 709Q462 709 465 704T471 691T473 682Q473 677 469 674T455 667L191 561Q187 559 185 559T180 558Z" />
<glyph unicode="&#xf1;" horiz-adv-x="557" d="M129 -2Q113 -2 107 2T100 16V373Q100 420 98 446T93 486T90 506Q90 510 94 513T105 518T119 521T132 522Q140 522 144 517T152 498T161 457Q179 477 205 493T262 519T323 529Q372 529 406 511T458 460T476 379V16Q476
7 470 3T447 -2H440Q424 -2 418 2T411 16V375Q411 423 385 448T307 473Q281 473 255 465T206 441T166 403V16Q166 7 160 3T137 -2H129ZM152 596Q148 596 142 597T131 602T126 610Q126 613 127 616T129 623Q145 662 167 676T214 691Q237 691 262 681T311 659T355
648Q374 648 383 659T399 682T412 694Q418 694 428 689T438 679Q438 676 437 672T431 658Q415 627 397 613T352 598Q328 598 302 609T253 631T210 642Q192 642 182 631T165 608T152 596Z" />
<glyph unicode="&#xf2;" horiz-adv-x="569" d="M286 -6Q177 -6 120 62T63 259Q63 390 120 459T286 529Q393 529 449 460T506 259Q506 129 450 62T286 -6ZM284 50Q364 50 401 102T439 261Q439 368 402 420T284 473Q205 473 168 421T130 261Q130 154 167 102T284
50ZM324 576Q315 576 308 577T295 584T280 598L229 660Q215 677 208 687T201 705Q201 712 210 715T236 718Q254 718 263 716T277 708T288 692L329 615Q335 604 338 598T341 586Q341 581 337 579T324 576Z" />
<glyph unicode="&#xf3;" horiz-adv-x="569" d="M286 -6Q177 -6 120 62T63 259Q63 390 120 459T286 529Q393 529 449 460T506 259Q506 129 450 62T286 -6ZM284 50Q364 50 401 102T439 261Q439 368 402 420T284 473Q205 473 168 421T130 261Q130 154 167 102T284
50ZM246 576Q238 576 234 578T230 586Q230 591 233 597T242 615L283 692Q288 702 293 707T308 715T334 718Q352 718 361 715T370 705Q370 698 363 688T342 660L291 598Q283 589 277 584T263 578T246 576Z" />
<glyph unicode="&#xf4;" horiz-adv-x="569" d="M286 -6Q177 -6 120 62T63 259Q63 390 120 459T286 529Q393 529 449 460T506 259Q506 129 450 62T286 -6ZM284 50Q364 50 401 102T439 261Q439 368 402 420T284 473Q205 473 168 421T130 261Q130 154 167 102T284
50ZM192 576Q184 576 180 578T176 586Q176 591 180 599T188 615L229 692Q234 702 239 707T255 715T285 718Q304 718 314 716T330 708T341 692L382 615Q388 604 391 598T394 586Q394 581 390 579T377 576Q365 576 357 580T338 598L285 668L232 598Q222 584 214 580T192
576Z" />
<glyph unicode="&#xf5;" horiz-adv-x="569" d="M286 -6Q177 -6 120 62T63 259Q63 390 120 459T286 529Q393 529 449 460T506 259Q506 129 450 62T286 -6ZM284 50Q364 50 401 102T439 261Q439 368 402 420T284 473Q205 473 168 421T130 261Q130 154 167 102T284
50ZM155 596Q151 596 145 597T134 602T129 610Q129 613 130 616T132 623Q148 662 170 676T217 691Q240 691 265 681T314 659T358 648Q377 648 386 659T402 682T415 694Q421 694 431 689T441 679Q441 676 440 672T434 658Q418 627 400 613T355 598Q331 598 305 609T256
631T213 642Q195 642 185 631T168 608T155 596Z" />
<glyph unicode="&#xf6;" horiz-adv-x="569" d="M286 -6Q177 -6 120 62T63 259Q63 390 120 459T286 529Q393 529 449 460T506 259Q506 129 450 62T286 -6ZM284 50Q364 50 401 102T439 261Q439 368 402 420T284 473Q205 473 168 421T130 261Q130 154 167 102T284
50ZM363 597Q346 597 338 601T330 615V679Q330 688 338 692T363 697Q381 697 389 693T397 679V615Q397 606 389 602T363 597ZM206 597Q188 597 180 601T172 615V679Q172 688 180 692T206 697Q223 697 231 693T239 679V615Q239 606 231 602T206 597Z" />
<glyph unicode="&#xf7;" horiz-adv-x="560" d="M280 369Q247 369 247 387V447Q247 464 280 464Q313 464 313 447V387Q313 369 280 369ZM280 -2Q247 -2 247 16V75Q247 93 280 93Q313 93 313 75V16Q313 -2 280 -2ZM67 204Q50 204 50 227V235Q50 258 67 258H493Q510
258 510 235V227Q510 204 493 204H67Z" />
<glyph unicode="&#xf8;" horiz-adv-x="569" d="M72 -21Q67 -21 60 -17T48 -6T42 7Q42 11 45 14T52 23L478 530Q482 535 486 539T497 543Q503 543 509 539T521 528T527 515Q527 512 524 508T517 499L91 -8Q88 -13 83 -17T72 -21ZM286 -6Q177 -6 120 62T63 259Q63
390 120 459T286 529Q393 529 449 460T506 259Q506 129 450 62T286 -6ZM284 50Q364 50 401 102T439 261Q439 368 402 420T284 473Q205 473 168 421T130 261Q130 154 167 102T284 50Z" />
<glyph unicode="&#xf9;" horiz-adv-x="557" d="M232 -6Q160 -6 121 33T81 142V507Q81 516 87 520T110 525H117Q133 525 139 521T146 507V147Q146 99 172 75T248 50Q274 50 300 58T351 83T391 120V507Q391 516 397 520T421 525H427Q444 525 450 521T457 507V150Q457
108 459 81T464 38T467 17Q467 13 463 10T453 4T440 1T427 0Q418 0 414 5T406 25T396 66Q378 47 351 31T294 4T232 -6ZM306 576Q297 576 290 577T277 584T262 598L211 660Q197 677 190 687T183 705Q183 712 192 715T218 718Q236 718 245 716T259 708T270 692L311
615Q317 604 320 598T323 586Q323 581 319 579T306 576Z" />
<glyph unicode="&#xfa;" horiz-adv-x="557" d="M232 -6Q160 -6 121 33T81 142V507Q81 516 87 520T110 525H117Q133 525 139 521T146 507V147Q146 99 172 75T248 50Q274 50 300 58T351 83T391 120V507Q391 516 397 520T421 525H427Q444 525 450 521T457 507V150Q457
108 459 81T464 38T467 17Q467 13 463 10T453 4T440 1T427 0Q418 0 414 5T406 25T396 66Q378 47 351 31T294 4T232 -6ZM228 576Q220 576 216 578T212 586Q212 591 215 597T224 615L265 692Q270 702 275 707T290 715T316 718Q334 718 343 715T352 705Q352 698 345
688T324 660L273 598Q265 589 259 584T245 578T228 576Z" />
<glyph unicode="&#xfb;" horiz-adv-x="557" d="M232 -6Q160 -6 121 33T81 142V507Q81 516 87 520T110 525H117Q133 525 139 521T146 507V147Q146 99 172 75T248 50Q274 50 300 58T351 83T391 120V507Q391 516 397 520T421 525H427Q444 525 450 521T457 507V150Q457
108 459 81T464 38T467 17Q467 13 463 10T453 4T440 1T427 0Q418 0 414 5T406 25T396 66Q378 47 351 31T294 4T232 -6ZM174 576Q166 576 162 578T158 586Q158 591 162 599T170 615L211 692Q216 702 221 707T237 715T267 718Q286 718 296 716T312 708T323 692L364
615Q370 604 373 598T376 586Q376 581 372 579T359 576Q347 576 339 580T320 598L267 668L214 598Q204 584 196 580T174 576Z" />
<glyph unicode="&#xfc;" horiz-adv-x="557" d="M232 -6Q160 -6 121 33T81 142V507Q81 516 87 520T110 525H117Q133 525 139 521T146 507V147Q146 99 172 75T248 50Q274 50 300 58T351 83T391 120V507Q391 516 397 520T421 525H427Q444 525 450 521T457 507V150Q457
108 459 81T464 38T467 17Q467 13 463 10T453 4T440 1T427 0Q418 0 414 5T406 25T396 66Q378 47 351 31T294 4T232 -6ZM345 597Q328 597 320 601T312 615V679Q312 688 320 692T345 697Q363 697 371 693T379 679V615Q379 606 371 602T345 597ZM188 597Q170 597 162
601T154 615V679Q154 688 162 692T188 697Q205 697 213 693T221 679V615Q221 606 213 602T188 597Z" />
<glyph unicode="&#xfd;" horiz-adv-x="481" d="M162 -208Q150 -208 143 -205T136 -195Q136 -192 137 -188T141 -177L228 46L224 -12L38 496Q37 498 36 502T35 510Q35 518 42 521T65 525H71Q83 525 90 522T101 511L245 92H249L390 511Q393 519 401 522T421 525H426Q440
525 446 522T452 510Q452 507 452 503T449 495L203 -191Q200 -200 192 -204T169 -208H162ZM202 576Q194 576 190 578T186 586Q186 591 189 597T198 615L239 692Q244 702 249 707T264 715T290 718Q308 718 317 715T326 705Q326 698 319 688T298 660L247 598Q239
589 233 584T219 578T202 576Z" />
<glyph unicode="&#xfe;" horiz-adv-x="573" d="M129 -208Q113 -208 107 -204T100 -190V734Q100 743 106 747T129 752H137Q153 752 159 748T166 734V442H141Q161 465 183 481T228 508T274 524T319 529Q381 529 423 499T488 409T510 263Q510 181 487 121T419 27T313
-6Q286 -6 260 1T209 22T166 53V-190Q166 -199 160 -203T137 -208H129ZM302 49Q370 49 406 104T443 263Q443 370 406 421T302 473Q266 473 231 457T166 411V117Q196 83 231 66T302 49Z" />
<glyph unicode="&#xff;" horiz-adv-x="481" d="M162 -208Q150 -208 143 -205T136 -195Q136 -192 137 -188T141 -177L228 46L224 -12L38 496Q37 498 36 502T35 510Q35 518 42 521T65 525H71Q83 525 90 522T101 511L245 92H249L390 511Q393 519 401 522T421 525H426Q440
525 446 522T452 510Q452 507 452 503T449 495L203 -191Q200 -200 192 -204T169 -208H162ZM319 597Q302 597 294 601T286 615V679Q286 688 294 692T319 697Q337 697 345 693T353 679V615Q353 606 345 602T319 597ZM162 597Q144 597 136 601T128 615V679Q128 688
136 692T162 697Q179 697 187 693T195 679V615Q195 606 187 602T162 597Z" />
<glyph unicode="&#x2013;" horiz-adv-x="500" d="M62 237Q45 237 45 260V270Q45 293 62 293H438Q455 293 455 270V260Q455 237 438 237H62Z" />
<glyph unicode="&#x2014;" horiz-adv-x="1000" d="M62 237Q45 237 45 260V270Q45 293 62 293H938Q955 293 955 270V260Q955 237 938 237H62Z" />
<glyph unicode="&#x2018;" horiz-adv-x="212" d="M84 515Q69 515 61 521T52 539Q52 583 63 619T92 683T126 724T154 739Q159 739 164 738T173 735T178 727Q178 723 173 715T163 699Q149 675 140 651T127 600T122 541Q122 530 115 523T90 515H84Z" />
<glyph unicode="&#x2019;" horiz-adv-x="212" d="M128 739Q144 739 152 733T160 715Q160 671 149 635T120 571T86 530T58 515Q54 515 49 516T39 520T34 527Q34 532 39 539T49 555Q63 579 72 603T85 654T90 713Q90 724 97 731T122 739H128Z" />
<glyph unicode="&#x201a;" horiz-adv-x="212" d="M128 94Q144 94 152 88T160 70Q160 26 149 -10T120 -74T86 -115T58 -130Q54 -130 49 -129T39 -125T34 -118Q34 -113 39 -106T49 -90Q63 -66 72 -42T85 9T90 68Q90 79 97 86T122 94H128Z" />
<glyph unicode="&#x201c;" horiz-adv-x="390" d="M262 515Q247 515 239 521T230 539Q230 583 241 619T270 683T304 724T332 739Q337 739 342 738T351 735T356 727Q356 723 351 715T341 699Q327 675 318 651T305 600T300 541Q300 530 293 523T268 515H262ZM84 515Q69
515 61 521T52 539Q52 583 63 619T92 683T126 724T154 739Q159 739 164 738T173 735T178 727Q178 723 173 715T163 699Q149 675 140 651T127 600T122 541Q122 530 115 523T90 515H84Z" />
<glyph unicode="&#x201d;" horiz-adv-x="390" d="M306 739Q322 739 330 733T338 715Q338 671 327 635T298 571T264 530T236 515Q232 515 227 516T217 520T212 527Q212 532 217 539T227 555Q241 579 250 603T263 654T268 713Q268 724 275 731T300 739H306ZM128
739Q144 739 152 733T160 715Q160 671 149 635T120 571T86 530T58 515Q54 515 49 516T39 520T34 527Q34 532 39 539T49 555Q63 579 72 603T85 654T90 713Q90 724 97 731T122 739H128Z" />
<glyph unicode="&#x201e;" horiz-adv-x="390" d="M306 93Q322 93 330 87T338 69Q338 25 327 -11T298 -75T264 -116T236 -131Q232 -131 227 -130T217 -126T212 -119Q212 -114 217 -107T227 -91Q241 -67 250 -43T263 8T268 67Q268 78 275 85T300 93H306ZM128 93Q144
93 152 87T160 69Q160 25 149 -11T120 -75T86 -116T58 -131Q54 -131 49 -130T39 -126T34 -119Q34 -114 39 -107T49 -91Q63 -67 72 -43T85 8T90 67Q90 78 97 85T122 93H128Z" />
<glyph unicode="&#x2022;" horiz-adv-x="336" d="M167 290Q137 290 117 310T97 360Q97 391 117 411T167 432Q198 432 218 412T239 360Q239 330 219 310T167 290Z" />
<glyph unicode="&#x2039;" horiz-adv-x="300" d="M211 61Q205 61 201 64T191 74L61 234Q57 240 54 246T50 258Q50 264 53 270T61 282L191 442Q196 448 200 451T211 454Q216 454 222 451T233 442T238 429Q238 426 237 422T231 412L95 237V280L231 103Q235 98 236
94T238 87Q238 82 234 76T223 66T211 61Z" />
<glyph unicode="&#x203a;" horiz-adv-x="300" d="M89 454Q95 454 99 451T109 441L239 281Q243 275 246 269T250 257Q250 251 247 245T239 233L109 73Q104 67 100 64T89 61Q85 61 79 64T67 73T62 86Q62 89 63 93T69 103L205 278V235L69 412Q65 417 64 421T62 428Q62
433 66 439T77 450T89 454Z" />
</font>
</defs>
</svg>
