<?xml version="1.0" encoding="UTF-8" standalone="no"?>
<svg
   overflow="hidden"
   viewBox="0 0 1100 1100"
   version="1.1"
   id="svg496"
   sodipodi:docname="favicon.svg"
   width="1100"
   height="1100"
   inkscape:version="1.1.2 (b8e25be8, 2022-02-05)"
   xmlns:inkscape="http://www.inkscape.org/namespaces/inkscape"
   xmlns:sodipodi="http://sodipodi.sourceforge.net/DTD/sodipodi-0.dtd"
   xmlns="http://www.w3.org/2000/svg"
   xmlns:svg="http://www.w3.org/2000/svg">
  <sodipodi:namedview
     id="namedview498"
     pagecolor="#ffffff"
     bordercolor="#666666"
     borderopacity="1.0"
     inkscape:pageshadow="2"
     inkscape:pageopacity="0.0"
     inkscape:pagecheckerboard="0"
     showgrid="false"
     width="1094px"
     inkscape:zoom="0.56454545"
     inkscape:cx="450.80515"
     inkscape:cy="550"
     inkscape:window-width="1296"
     inkscape:window-height="843"
     inkscape:window-x="0"
     inkscape:window-y="38"
     inkscape:window-maximized="0"
     inkscape:current-layer="svg496" />
  <defs
     id="defs476">
    <clipPath
       id="a">
      <rect
         y="687"
         width="1095"
         height="1100"
         id="rect473"
         x="0" />
    </clipPath>
  </defs>
  <g
     transform="translate(4.505,-687.5)"
     clip-path="url(#a)"
     fill-rule="evenodd"
     id="g494"
     inkscape:export-filename="/Users/mark/Documents/Developer/GitHub/hugo-theme-hinode/assets/img/512.png"
     inkscape:export-xdpi="45.049999"
     inkscape:export-ydpi="45.049999">
    <path
       d="M 0,933.5 C 0,800.12 108.12,692 241.5,692 h 607.99 c 133.38,0 241.5,108.12 241.5,241.5 v 608 c 0,133.37 -108.12,241.5 -241.5,241.5 H 241.5 C 108.12,1783 0,1674.87 0,1541.5 Z"
       fill="#d43900"
       id="path478" />
    <path
       d="m 954.7,1354.9 c 0,16.01 -13.078,29 -29.25,29 h -58.5 c -16.172,0 -29.25,-12.99 -29.25,-29 0,-16.01 13.078,-29 29.25,-29 h 58.5 c 16.172,0 29.25,12.99 29.25,29 z"
       fill="#ffffff"
       id="path480" />
    <path
       d="m 252.7,1354.9 c 0,16.01 -13.078,29 -29.25,29 h -58.5 c -16.172,0 -29.25,-12.99 -29.25,-29 0,-16.01 13.078,-29 29.25,-29 h 58.5 c 16.172,0 29.25,12.99 29.25,29 z"
       fill="#ffffff"
       id="path482" />
    <path
       d="m 256.14,1107.1 c -11.261,-11.51 -11.261,-30.12 0,-41.63 11.274,-11.51 29.481,-11.51 40.755,0 l 34.354,35.1 c 11.261,11.51 11.261,30.12 0,41.63 -11.274,11.52 -29.481,11.52 -40.755,0 z"
       fill="#ffffff"
       id="path484" />
    <path
       d="m 758.23,1142.2 c -11.379,-11.51 -11.379,-30.12 0,-41.63 l 34.732,-35.1 c 11.379,-11.51 29.797,-11.51 41.19,0 11.392,11.51 11.392,30.12 0,41.63 l -34.732,35.1 c -11.379,11.52 -29.798,11.52 -41.19,0 z"
       fill="#ffffff"
       id="path486" />
    <path
       d="m 719.36,1379.5 c 15.301,-105.6 -67.029,-200.26 -173.67,-200.26 -106.72,0 -188.96,94.78 -173.67,200.26 2.287,15.94 -8.828,30.75 -24.831,33.02 -16.055,2.19 -30.797,-8.81 -33.098,-24.75 -20.241,-141.79 90.247,-266.92 231.6,-266.92 141.47,0 251.81,125.28 231.61,266.94 -2.314,15.92 -17.082,27.04 -33.112,24.76 -15.99,-2.3 -27.105,-17.11 -24.83,-33.05 z"
       fill="#ffffff"
       id="path488" />
    <path
       d="m 837.7,1500.4 c 0,16.28 -13.078,29.5 -29.25,29.5 h -526.5 c -16.172,0 -29.25,-13.22 -29.25,-29.5 0,-16.29 13.078,-29.5 29.25,-29.5 h 526.5 c 16.172,0 29.25,13.21 29.25,29.5 z"
       fill="#ffffff"
       id="path490" />
    <path
       d="m 544.7,1061.9 c -16.008,0 -29,-13.08 -29,-29.25 v -58.502 c 0,-16.176 12.992,-29.25 29,-29.25 16.009,0 29,13.074 29,29.25 v 58.502 c 0,16.17 -12.991,29.25 -29,29.25 z"
       fill="#ffffff"
       id="path492" />
  </g>
</svg>
