<?xml version="1.0" encoding="UTF-8" standalone="no"?>
<svg
   width="400"
   height="400"
   viewBox="0 0 400 400"
   version="1.1"
   id="svg136"
   sodipodi:docname="placeholder.svg"
   xml:space="preserve"
   inkscape:version="1.2.1 (9c6d41e, 2022-07-14)"
   xmlns:inkscape="http://www.inkscape.org/namespaces/inkscape"
   xmlns:sodipodi="http://sodipodi.sourceforge.net/DTD/sodipodi-0.dtd"
   xmlns="http://www.w3.org/2000/svg"
   xmlns:svg="http://www.w3.org/2000/svg"><defs
     id="defs140" /><sodipodi:namedview
     id="namedview138"
     pagecolor="#ffffff"
     bordercolor="#666666"
     borderopacity="1.0"
     inkscape:showpageshadow="2"
     inkscape:pageopacity="0.0"
     inkscape:pagecheckerboard="0"
     inkscape:deskcolor="#d1d1d1"
     showgrid="false"
     inkscape:zoom="0.59"
     inkscape:cx="143.22034"
     inkscape:cy="200"
     inkscape:window-width="1512"
     inkscape:window-height="842"
     inkscape:window-x="0"
     inkscape:window-y="33"
     inkscape:window-maximized="0"
     inkscape:current-layer="svg136" /><rect
     width="100%"
     height="100%"
     fill="#DDDDDD"
     id="rect132" /><path
     d="m 173.77725,163.28813 c -5.78541,0 -10.48912,4.70371 -10.48912,10.48911 v 52.44552 c 0,5.78539 4.70371,10.4891 10.48912,10.4891 h 52.4455 c 5.78541,0 10.48912,-4.70371 10.48912,-10.4891 v -52.44552 c 0,-5.7854 -4.70371,-10.48911 -10.48912,-10.48911 z m 10.4891,13.11138 c 4.34314,0 7.86683,3.52369 7.86683,7.86683 0,4.34315 -3.52369,7.86683 -7.86683,7.86683 -4.34315,0 -7.86683,-3.52368 -7.86683,-7.86683 0,-4.34314 3.52368,-7.86683 7.86683,-7.86683 z m 23.60048,18.35593 c 1.3767,0 2.63867,0.72113 3.35979,1.88477 l 14.42252,23.60048 c 0.73752,1.2128 0.77029,2.737 0.082,3.98258 -0.68836,1.24558 -2.01587,1.99949 -3.44174,1.99949 h -44.57869 c -1.45864,0 -2.81894,-0.81945 -3.49091,-2.1142 -0.67196,-1.29475 -0.57362,-2.86812 0.26223,-4.06453 l 9.17796,-13.11138 c 0.73752,-1.04891 1.93394,-1.6717 3.22868,-1.6717 1.29475,0 2.49117,0.62279 3.22868,1.6717 l 4.32675,6.19513 10.06299,-16.47117 c 0.72112,-1.16364 1.9831,-1.88477 3.3598,-1.88477 z"
     id="path417"
     style="stroke-width:0.163892" /></svg>
