<?xml version="1.0" encoding="UTF-8" standalone="no"?>
<svg
   width="400"
   height="400"
   viewBox="0 0 400 400"
   version="1.1"
   id="svg136"
   sodipodi:docname="placeholder-video.svg"
   xml:space="preserve"
   inkscape:version="1.2.1 (9c6d41e, 2022-07-14)"
   xmlns:inkscape="http://www.inkscape.org/namespaces/inkscape"
   xmlns:sodipodi="http://sodipodi.sourceforge.net/DTD/sodipodi-0.dtd"
   xmlns="http://www.w3.org/2000/svg"
   xmlns:svg="http://www.w3.org/2000/svg"><defs
     id="defs140" /><sodipodi:namedview
     id="namedview138"
     pagecolor="#ffffff"
     bordercolor="#666666"
     borderopacity="1.0"
     inkscape:showpageshadow="2"
     inkscape:pageopacity="0.0"
     inkscape:pagecheckerboard="0"
     inkscape:deskcolor="#d1d1d1"
     showgrid="false"
     inkscape:zoom="0.59"
     inkscape:cx="87.288136"
     inkscape:cy="200"
     inkscape:window-width="1512"
     inkscape:window-height="842"
     inkscape:window-x="0"
     inkscape:window-y="598"
     inkscape:window-maximized="0"
     inkscape:current-layer="svg136" /><rect
     width="100%"
     height="100%"
     fill="#DDDDDD"
     id="rect132" /><path
     d="m 172.08824,174.23529 c -4.73695,0 -8.58824,3.85129 -8.58824,8.58824 v 34.35294 c 0,4.73695 3.85129,8.58824 8.58824,8.58824 h 34.35294 c 4.73695,0 8.58823,-3.85129 8.58823,-8.58824 v -34.35294 c 0,-4.73695 -3.85128,-8.58824 -8.58823,-8.58824 z m 49.38235,36.5 9.86305,7.89044 c 0.5636,0.45625 1.2614,0.6978 1.98603,0.6978 1.7579,0 3.18033,-1.42243 3.18033,-3.18033 v -32.2864 c 0,-1.75791 -1.42243,-3.18033 -3.18033,-3.18033 -0.72463,0 -1.42243,0.24154 -1.98603,0.69779 l -9.86305,7.89044 z"
     id="path5711"
     style="stroke-width:0.134191" /></svg>
