<?xml version="1.0" standalone="no"?>
<!DOCTYPE svg PUBLIC "-//W3C//DTD SVG 20010904//EN"
 "http://www.w3.org/TR/2001/REC-SVG-20010904/DTD/svg10.dtd">
<svg version="1.0" xmlns="http://www.w3.org/2000/svg"
 width="260.000000pt" height="260.000000pt" viewBox="0 0 260.000000 260.000000"
 preserveAspectRatio="xMidYMid meet">
<metadata>
Created by potrace 1.14, written by Peter Selinger 2001-2017
</metadata>
<g transform="translate(0.000000,260.000000) scale(0.100000,-0.100000)"
fill="#000000" stroke="none">
<path d="M2395 2441 c-79 -43 -221 -125 -225 -130 -5 -6 -34 -22 -115 -65 -22
-12 -42 -24 -45 -27 -3 -4 -15 -9 -27 -13 -13 -4 -23 -12 -23 -17 0 -5 -4 -9
-10 -9 -5 0 -42 -19 -82 -43 -40 -23 -90 -51 -110 -62 -21 -11 -38 -23 -38
-28 0 -4 -4 -6 -8 -3 -5 3 -18 -3 -29 -13 -11 -10 -30 -22 -44 -26 -13 -4 -29
-15 -36 -24 -7 -9 -13 -12 -13 -7 0 5 -9 1 -20 -9 -11 -10 -20 -15 -20 -11 0
4 -10 -2 -22 -13 -11 -11 -24 -18 -28 -16 -4 2 -17 -5 -28 -16 -12 -11 -22
-16 -22 -12 0 4 -4 4 -8 -2 -8 -11 -54 -39 -94 -57 -16 -7 -28 -16 -28 -20 0
-8 -83 33 -88 45 -2 4 -10 7 -17 7 -7 0 -15 3 -17 8 -1 4 -32 22 -68 41 -36
19 -85 47 -110 64 -25 17 -50 30 -57 30 -7 0 -15 7 -17 14 -3 8 -10 11 -16 8
-5 -3 -10 -3 -10 2 0 4 -15 14 -33 22 -17 8 -38 19 -46 25 -18 14 -137 82
-179 101 -17 8 -32 20 -32 25 0 6 -9 10 -19 10 -11 0 -23 5 -27 11 -3 6 -21
18 -38 26 -62 30 -76 38 -76 46 0 4 -4 5 -10 2 -6 -3 -10 -2 -10 4 0 5 -10 13
-22 16 -13 4 -38 18 -56 32 -17 13 -32 22 -32 19 0 -3 -28 12 -62 33 -35 21
-65 37 -67 35 -6 -5 -8 -2262 -2 -2286 3 -17 22 -18 221 -18 l217 0 -1 315
c-1 204 3 315 9 315 7 0 7 3 0 8 -6 4 -10 75 -10 177 0 102 4 173 10 177 7 5
7 8 0 8 -5 0 -10 25 -10 55 0 30 5 55 10 55 7 0 7 3 0 8 -5 4 -10 30 -10 57 0
28 5 53 10 57 7 5 7 8 0 8 -5 0 -10 25 -10 55 0 30 5 55 10 55 7 0 7 3 0 8 -5
4 -10 30 -10 57 0 28 5 53 10 57 6 5 6 8 -1 8 -10 0 -11 46 -2 55 6 6 135 -61
148 -76 3 -3 20 -12 38 -20 17 -8 32 -17 32 -21 0 -5 7 -8 15 -8 8 0 15 -4 15
-10 0 -5 9 -10 20 -10 11 0 20 -4 20 -9 0 -5 8 -11 17 -14 18 -6 73 -37 83
-47 3 -3 23 -14 45 -25 22 -11 42 -22 45 -25 10 -10 170 -100 178 -100 18 0
72 32 72 42 0 6 3 8 6 5 4 -4 19 2 33 11 14 10 47 29 74 43 26 13 47 27 47 31
0 5 4 8 10 8 5 0 48 22 95 49 47 27 85 47 85 44 0 -3 8 3 18 13 9 10 24 20 32
22 8 2 18 9 22 15 4 7 8 8 8 4 0 -4 19 5 43 20 65 44 154 89 139 71 -10 -13
-10 -17 0 -21 9 -4 9 -6 1 -6 -8 -1 -9 -10 -3 -30 4 -16 6 -32 3 -35 -7 -7 -5
-225 3 -237 3 -5 2 -9 -3 -9 -4 0 -7 -33 -5 -74 l3 -74 -73 -40 c-40 -22 -77
-40 -81 -39 -5 1 -13 -6 -18 -15 -6 -10 -15 -18 -20 -18 -6 0 -24 -9 -40 -21
-16 -11 -29 -17 -29 -12 0 4 -4 4 -8 -2 -9 -13 -42 -34 -64 -41 -10 -4 -18
-11 -18 -16 0 -5 -4 -7 -9 -4 -5 3 -14 0 -20 -8 -7 -8 -23 -17 -36 -20 -14 -4
-25 -11 -25 -16 0 -13 -47 -13 -55 0 -4 6 -11 8 -16 5 -5 -4 -9 -2 -9 3 0 9
-8 11 -55 14 -14 1 -25 5 -25 9 0 10 -171 3 -179 -8 -3 -5 -13 -9 -21 -9 -16
0 -86 -31 -109 -49 -42 -32 -109 -100 -105 -107 3 -4 1 -8 -5 -8 -9 0 -49 -73
-57 -105 -23 -83 -25 -201 -4 -255 1 -3 2 -9 1 -14 -1 -5 2 -12 6 -15 4 -3 19
-28 32 -54 36 -71 108 -140 185 -177 36 -17 71 -28 76 -25 6 3 10 2 10 -4 0
-5 12 -10 28 -11 121 -3 153 0 205 19 14 6 28 7 31 4 3 -4 6 -1 6 5 0 10 29
24 40 19 3 -1 18 9 32 23 14 14 40 37 58 53 18 15 30 27 27 27 -4 0 5 12 18
26 14 15 23 30 20 34 -2 4 5 17 16 28 10 12 19 23 18 24 -1 2 3 26 9 53 7 28
14 61 15 75 4 23 53 61 100 77 9 3 17 9 17 13 0 4 11 11 25 14 14 4 25 11 25
17 0 6 5 7 10 4 6 -3 10 -1 10 4 0 6 7 11 15 11 8 0 24 9 35 20 11 11 23 20
28 20 4 0 36 17 72 37 35 21 68 37 72 35 4 -1 8 2 8 7 0 5 14 14 30 21 17 7
30 17 30 22 0 5 4 7 9 4 5 -3 14 1 21 9 7 8 16 12 21 9 5 -3 12 2 15 10 3 9
11 16 18 16 6 0 28 11 47 25 20 13 39 21 43 18 3 -4 6 -1 6 5 0 7 7 12 15 12
12 0 15 14 15 68 1 309 -1 1446 -3 1448 -1 1 -15 -6 -32 -15z m-1042 -1710 c4
-1 15 -1 25 -1 26 0 90 -62 105 -101 20 -52 10 -159 -15 -159 -5 0 -7 -3 -5
-7 3 -5 -15 -23 -40 -42 -38 -29 -53 -35 -98 -35 -56 0 -96 15 -130 49 -23 23
-59 85 -50 85 3 0 1 9 -5 19 -7 14 -7 22 0 26 6 4 7 11 4 17 -8 12 25 90 43
101 6 4 18 13 25 20 16 16 47 30 70 31 9 1 20 4 23 8 4 4 15 3 24 -1 9 -5 19
-9 24 -10z"/>
</g>
</svg>
